<?xml version="1.0" encoding="UTF-8"?>
<svg width="25px" height="16px" viewBox="0 0 25 16" version="1.1" xmlns="http://www.w3.org/2000/svg" xmlns:xlink="http://www.w3.org/1999/xlink">
    <!-- Generator: Sketch 46 (44423) - http://www.bohemiancoding.com/sketch -->
    <title>Back icon</title>
    <desc>Created with Sketch.</desc>
    <defs></defs>
    <g id="Guidelines" stroke="none" stroke-width="1" fill="none" fill-rule="evenodd">
        <g id="Logo-&amp;-Icons" transform="translate(-601.000000, -1134.000000)" fill="#FFFFFF">
            <path d="M611.172699,1130 L615.82731,1130 L615.82731,1130 C616.158681,1130 616.42731,1130.26863 616.42731,1130.6 L616.42731,1144.23899 L616.42731,1144.23899 C616.42731,1144.57036 616.69594,1144.83899 617.02731,1144.83899 L620.4,1144.83899 L620.4,1144.83899 C620.731371,1144.83899 621,1145.10762 621,1145.43899 C621,1145.58335 620.947951,1145.72288 620.853401,1145.83197 L613.953405,1153.79296 L613.953405,1153.79296 C613.736372,1154.04337 613.357437,1154.07042 613.107031,1153.85339 C613.085478,1153.83471 613.065285,1153.81452 613.046604,1153.79296 L606.146609,1145.83197 L606.146609,1145.83197 C605.929576,1145.58156 605.95663,1145.20263 606.207036,1144.98559 C606.316125,1144.89104 606.455648,1144.83899 606.600009,1144.83899 L609.972699,1144.83899 L609.972699,1144.83899 C610.30407,1144.83899 610.572699,1144.57036 610.572699,1144.23899 L610.572699,1130.6 L610.572699,1130.6 C610.572699,1130.26863 610.841328,1130 611.172699,1130 Z" id="Back-icon" transform="translate(613.500000, 1142.000000) rotate(-270.000000) translate(-613.500000, -1142.000000) "></path>
        </g>
    </g>
</svg>