<?xml version="1.0" encoding="UTF-8"?>
<svg width="32px" height="32px" viewBox="0 0 32 32" version="1.1" xmlns="http://www.w3.org/2000/svg" xmlns:xlink="http://www.w3.org/1999/xlink">
    <!-- Generator: Sketch 46 (44423) - http://www.bohemiancoding.com/sketch -->
    <title>Favicon logo@2x</title>
    <desc>Created with Sketch.</desc>
    <defs>
        <linearGradient x1="50.3393351%" y1="91.8709212%" x2="49.7860477%" y2="9.12924201%" id="linearGradient-1">
            <stop stop-color="#223F6B" offset="0%"></stop>
            <stop stop-color="#24C6DD" offset="100%"></stop>
        </linearGradient>
        <linearGradient x1="32.4615538%" y1="100%" x2="32.4615529%" y2="0%" id="linearGradient-2">
            <stop stop-color="#223F6B" offset="0%"></stop>
            <stop stop-color="#24C6DD" offset="100%"></stop>
        </linearGradient>
    </defs>
    <g id="Guidelines" stroke="none" stroke-width="1" fill="none" fill-rule="evenodd">
        <g id="Logo-&amp;-Icons" transform="translate(-770.000000, -528.000000)">
            <g id="Favicon-logo" transform="translate(770.000000, 528.000000)">
                <circle id="Oval-notif-popup-Copy" fill="#F6F6F6" cx="16" cy="16" r="16"></circle>
                <g id="Symbol-Notif-Copy" transform="translate(5.333333, 8.000000)" fill-rule="nonzero">
                    <path d="M15.6657865,6.78886115 L13.671379,6.91865566 L13.671379,8.02089495 C17.1935027,9.89683119 20.2100442,12.3264221 20.8203329,12.786787 C20.8512462,12.8090954 20.9050952,12.786787 20.962933,12.7502823 L20.962933,6.63371615 C20.9634399,6.49781079 20.9102679,6.36738824 20.8153469,6.27171116 L19.8460648,5.28608412 C19.7519743,5.18956247 19.6237146,5.13549374 19.490063,5.13600922 L17.5495045,5.13600922 L17.42984,1.40644517 L18.3821696,1.40644517 C18.4787656,1.41889457 18.5737404,1.37348128 18.6259244,1.289891 C18.6781083,1.20630072 18.6781083,1.09957982 18.6259244,1.01598954 C18.5737404,0.932399263 18.4787656,0.886985976 18.3821696,0.899435376 L17.4128875,0.899435376 L17.3879575,0.127766468 C17.3879596,0.0575971062 17.3323105,0.000556899732 17.263307,6.73264285e-11 L16.5592811,6.73264285e-11 C16.4914162,-3.47826005e-05 16.4357879,0.0547358116 16.4336334,0.12371039 L16.4116949,0.791949299 L16.9102968,0.893351258 L15.4424129,0.893351258 C15.3458169,0.880901858 15.2508421,0.926315146 15.1986581,1.00990542 C15.1464742,1.0934957 15.1464742,1.20021661 15.1986581,1.28380689 C15.2508421,1.36739716 15.3458169,1.41281045 15.4424129,1.40036105 L16.8933444,1.40036105 L16.3947425,1.50784713 L16.2820585,5.02446706 L16.9801011,5.12586902 L13.3622458,5.12586902 C13.15663,5.12119106 12.9692871,5.24537242 12.8905134,5.4385596 C12.8117398,5.63174677 12.8577008,5.85429518 13.006244,5.99893989 L13.6255076,6.62864605 L15.6657865,6.78886115 Z" id="Shape-symbol-notif-2" fill="url(#linearGradient-1)"></path>
                    <path d="M21.056333,13.2080111 C21.056333,13.2080111 20.7632587,13.5623399 20.6492299,13.4811184 C19.9990652,12.9897283 16.6272112,10.2769304 12.816246,8.36517946 L10.6797049,4.94372397 C10.6131122,4.83625092 10.5092599,4.7580075 10.3886311,4.72442594 C3.64492316,2.82282768 0.559141615,3.74875273 0.431109188,3.78936347 C0.200735816,3.86023111 0.0527846716,4.08762241 0.0790200135,4.33050169 L0.317080308,6.69810827 C0.0980248269,6.91029942 0.0320081068,7.18543724 0.155039267,7.53062859 C0.872220909,9.55202855 1.57639926,10.9612215 2.32758951,12.2059409 C1.52738684,8.82712671 1.74144106,5.24018243 1.74144106,5.05337299 C1.74144106,4.79955582 1.71643472,4.44421178 2.79170706,10.1124569 C3.51589048,13.9288519 5.43937764,15.3268769 6.60567303,15.837557 C7.3758681,16.0578703 8.3061037,16.0517787 9.34436666,15.5004878 C10.2932569,14.998725 11.4245318,15.0025209 12.370133,15.5106405 C13.2513562,15.984771 14.478667,16.2558477 15.9090293,15.4984573 C16.854714,14.9932898 17.9854276,14.9959509 18.9287941,15.5055641 C19.6118228,15.886196 20.3974163,16.0335701 21.1693616,15.9258854 C21.4884424,15.3898235 21.7084982,14.6121277 21.7124992,13.4811184 C21.7134994,13.1765378 21.056333,13.2080111 21.056333,13.2080111 Z M12.1110674,9.63934166 C15.7619921,10.6546104 19.8960391,14.0385009 19.8960391,14.0385009 C19.8960391,14.0385009 15.6779708,11.6536347 12.1110674,9.63934166 Z" id="Shape-symbol-notif" fill="url(#linearGradient-2)"></path>
                </g>
            </g>
        </g>
    </g>
</svg>