<?xml version="1.0" encoding="UTF-8"?>
<svg width="24px" height="24px" viewBox="0 0 24 24" version="1.1" xmlns="http://www.w3.org/2000/svg" xmlns:xlink="http://www.w3.org/1999/xlink">
    <!-- Generator: Sketch 46 (44423) - http://www.bohemiancoding.com/sketch -->
    <title>Notification Logo@2x</title>
    <desc>Created with Sketch.</desc>
    <defs>
        <linearGradient x1="50.3393351%" y1="91.8709212%" x2="49.7860477%" y2="9.12924201%" id="linearGradient-1">
            <stop stop-color="#223F6B" offset="0%"></stop>
            <stop stop-color="#24C6DD" offset="100%"></stop>
        </linearGradient>
        <linearGradient x1="32.4615538%" y1="100%" x2="32.4615529%" y2="0%" id="linearGradient-2">
            <stop stop-color="#223F6B" offset="0%"></stop>
            <stop stop-color="#24C6DD" offset="100%"></stop>
        </linearGradient>
    </defs>
    <g id="Guidelines" stroke="none" stroke-width="1" fill="none" fill-rule="evenodd">
        <g id="Logo-&amp;-Icons" transform="translate(-587.000000, -532.000000)">
            <g id="Notification-Logo" transform="translate(587.000000, 532.000000)">
                <circle id="Oval-notif-popup-Copy" fill="#F6F6F6" cx="12" cy="12" r="12"></circle>
                <g id="Symbol-Notif-Copy" transform="translate(4.000000, 6.000000)" fill-rule="nonzero">
                    <path d="M11.7493399,5.09164586 L10.2535342,5.18899174 L10.2535342,6.01567121 C12.895127,7.42262339 15.1575331,9.24481659 15.6152497,9.59009026 C15.6384346,9.60682159 15.6788214,9.59009026 15.7221998,9.56271173 L15.7221998,4.97528711 C15.72258,4.87335809 15.6827009,4.77554118 15.6115101,4.70378337 L14.8845486,3.96456309 C14.8139808,3.89217185 14.717786,3.8516203 14.6175473,3.85200691 L13.1621283,3.85200691 L13.07238,1.05483388 L13.7866272,1.05483388 C13.8590742,1.06417093 13.9303053,1.03011096 13.9694433,0.967418252 C14.0085812,0.904725543 14.0085812,0.824684866 13.9694433,0.761992157 C13.9303053,0.699299447 13.8590742,0.665239482 13.7866272,0.674576532 L13.0596657,0.674576532 L13.0409681,0.0958248512 C13.0409697,0.0431978297 12.9992329,0.000417674799 12.9474802,5.04948214e-11 L12.4194608,5.04948214e-11 C12.3685621,-2.60869504e-05 12.3268409,0.0410518587 12.3252251,0.0927827924 L12.3087712,0.593961974 L12.6827226,0.670013443 L11.5818097,0.670013443 C11.5093627,0.660676393 11.4381316,0.694736359 11.3989936,0.757429069 C11.3598556,0.820121778 11.3598556,0.900162455 11.3989936,0.962855164 C11.4381316,1.02554787 11.5093627,1.05960784 11.5818097,1.05027079 L12.6700083,1.05027079 L12.2960569,1.13088535 L12.2115438,3.7683503 L12.7350758,3.84440177 L10.0216843,3.84440177 C9.8674725,3.84089329 9.7269653,3.93402932 9.66788507,4.0789197 C9.60880484,4.22381008 9.64327562,4.39072139 9.75468302,4.49920492 L10.2191307,4.97148454 L11.7493399,5.09164586 Z" id="Shape-symbol-notif-2" fill="url(#linearGradient-1)"></path>
                    <path d="M15.7922497,9.90600833 C15.7922497,9.90600833 15.5724441,10.1717549 15.4869224,10.1108388 C14.9992989,9.74229625 12.4704084,7.7076978 9.6121845,6.27388459 L8.00977865,3.70779298 C7.95983416,3.62718819 7.88194495,3.56850563 7.79147336,3.54331945 C2.73369237,2.11712076 0.419356211,2.81156454 0.323331891,2.84202261 C0.150551862,2.89517333 0.0395885037,3.06571681 0.0592650102,3.24787626 L0.237810231,5.0235812 C0.0735186202,5.18272457 0.0240060801,5.38907793 0.11627945,5.64797145 C0.654165682,7.16402142 1.18229944,8.22091612 1.74569213,9.15445568 C1.14554013,6.62034503 1.30608079,3.93013682 1.30608079,3.79002974 C1.30608079,3.59966686 1.28732604,3.33315883 2.0937803,7.58434265 C2.63691786,10.4466389 4.07953323,11.4951576 4.95425477,11.8781678 C5.53190107,12.0434027 6.22957778,12.038834 7.008275,11.6253659 C7.71994269,11.2490438 8.56839888,11.2518907 9.27759975,11.6329804 C9.93851715,11.9885782 10.8590003,12.1918858 11.931772,11.623843 C12.6410355,11.2449674 13.4890707,11.2469632 14.1965956,11.6291731 C14.7088671,11.914647 15.2980623,12.0251776 15.8770212,11.944414 C16.1163318,11.5423676 16.2813736,10.9590958 16.2843744,10.1108388 C16.2851246,9.88240333 15.7922497,9.90600833 15.7922497,9.90600833 Z M9.08330054,7.22950625 C11.8214941,7.99095776 14.9220293,10.5288757 14.9220293,10.5288757 C14.9220293,10.5288757 11.7584781,8.74022606 9.08330054,7.22950625 Z" id="Shape-symbol-notif" fill="url(#linearGradient-2)"></path>
                </g>
            </g>
        </g>
    </g>
</svg>