<?xml version="1.0" encoding="UTF-8"?>
<svg width="149px" height="170px" viewBox="0 0 149 170" version="1.1" xmlns="http://www.w3.org/2000/svg" xmlns:xlink="http://www.w3.org/1999/xlink">
    <!-- Generator: Sketch 46 (44423) - http://www.bohemiancoding.com/sketch -->
    <title>Score Sircle@2x</title>
    <desc>Created with Sketch.</desc>
    <defs></defs>
    <g id="Guidelines" stroke="none" stroke-width="1" fill="none" fill-rule="evenodd">
        <g id="Logo-&amp;-Icons" transform="translate(-1448.000000, -1920.000000)">
            <g id="Score-Sircle" transform="translate(1449.000000, 1920.000000)">
                <g id="Stars-Blue-Lil" transform="translate(1.000000, 0.000000)" fill="#66A9E8">
                    <g id="Stars-Yellow-Lil">
                        <ellipse id="Oval" fill-rule="nonzero" cx="8.70143109" cy="159.716346" rx="4.70143109" ry="4.71634615"></ellipse>
                        <path d="M86.1535551,12.3461538 C82.7550404,12.3461538 80,9.58237317 80,6.17307692 C80,2.76378068 82.7550404,6.28003258e-16 86.1535551,0 C89.5520697,-6.25501253e-16 92.3071101,2.76378068 92.3071101,6.17307692 C92.299205,9.57908296 89.5487899,12.3382236 86.1535551,12.3461538 Z M86.1535551,2.25 C84.0175727,2.25 82.286017,3.98704907 82.286017,6.12980769 C82.286017,8.27256631 84.0175727,10.0096154 86.1535551,10.0096154 C88.2895374,10.0096154 90.0210932,8.27256631 90.0210932,6.12980769 C89.9975339,4.00160731 88.2751419,2.28659764 86.1535551,2.27884615 L86.1535551,2.25 Z" id="Shape" fill-rule="nonzero"></path>
                        <g id="Group-4" transform="translate(135.000000, 25.000000)" fill-rule="nonzero">
                            <path d="M1.85286836,11.3894231 C1.39270302,11.3829384 0.98068716,11.1019143 0.805462011,10.6750175 C0.630236861,10.2481206 0.725537392,9.75753882 1.04773031,9.42788462 L9.7460967,0.701923077 C10.016129,0.340737729 10.4713446,0.170725397 10.9110846,0.266827461 C11.3508246,0.362929525 11.6942943,0.707488895 11.7900924,1.14862391 C11.8858906,1.58975893 11.7164159,2.04641868 11.3563728,2.31730769 L2.6580064,11.0432692 C2.44655907,11.2620063 2.15658901,11.3866735 1.85286836,11.3894231 L1.85286836,11.3894231 Z" id="Shape"></path>
                            <path d="M10.5656122,11.3894231 C10.26397,11.390484 9.97429593,11.2711333 9.76047416,11.0576923 L1.06210778,2.33173077 C0.702064648,2.06084176 0.532589966,1.60418201 0.628388115,1.16304699 C0.724186264,0.721911972 1.06765599,0.377352602 1.50739596,0.281250538 C1.94713592,0.185148474 2.40235152,0.355160806 2.67238387,0.716346154 L11.3707503,9.44230769 C11.6929432,9.7719619 11.7882437,10.2625437 11.6130186,10.6894405 C11.4377934,11.1163373 11.0257775,11.3973615 10.5656122,11.4038462 L10.5656122,11.3894231 Z" id="Shape"></path>
                        </g>
                        <ellipse id="Oval" fill-rule="nonzero" transform="translate(5.437471, 38.437471) rotate(-45.000000) translate(-5.437471, -38.437471) " cx="5.43747064" cy="38.4374706" rx="3.83878318" ry="3.85096154"></ellipse>
                    </g>
                </g>
                <g id="-Circle-Score-Copy" transform="translate(0.000000, 21.000000)">
                    <g id="Circle-Copy">
                        <g id="Group-3">
                            <rect id="Rectangle" fill="#66A9E8" x="7.04761905" y="0" width="140.952381" height="140.952381" rx="70.4761905"></rect>
                            <path d="M70.4761905,148 C109.399116,148 140.952381,116.446735 140.952381,77.5238095 C140.952381,38.6008843 109.399116,7.04761905 70.4761905,7.04761905 C31.5532653,7.04761905 0,38.6008843 0,77.5238095" id="Oval-2" stroke="#2B3D6B" stroke-linecap="round"></path>
                        </g>
                    </g>
                </g>
            </g>
        </g>
    </g>
</svg>