<?xml version="1.0" encoding="UTF-8"?>
<svg width="16px" height="16px" viewBox="0 0 16 16" version="1.1" xmlns="http://www.w3.org/2000/svg" xmlns:xlink="http://www.w3.org/1999/xlink">
    <!-- Generator: Sketch 46 (44423) - http://www.bohemiancoding.com/sketch -->
    <title>Search Icon menu</title>
    <desc>Created with Sketch.</desc>
    <defs></defs>
    <g id="Guidelines" stroke="none" stroke-width="1" fill="none" fill-rule="evenodd">
        <g id="Logo-&amp;-Icons" transform="translate(-1434.000000, -1266.000000)" fill-rule="nonzero" fill="#3E3E3E">
            <path d="M1440.63642,1266 C1436.98639,1266 1434,1268.9798 1434,1272.63023 C1434,1276.28065 1436.98639,1279.26737 1440.63642,1279.26737 C1442.03975,1279.26737 1443.33938,1278.81798 1444.41089,1278.0713 L1447.9987,1281.65259 C1448.45496,1282.1158 1449.20156,1282.1158 1449.65781,1281.65259 C1450.11406,1281.19628 1450.11406,1280.45652 1449.65781,1280.00022 L1446.06999,1276.41201 C1446.8235,1275.33348 1447.26593,1274.0337 1447.26593,1272.63023 C1447.26593,1268.9798 1444.27954,1266 1440.63642,1266 Z M1440.63642,1268.33683 C1443.01447,1268.33683 1444.92245,1270.245 1444.92245,1272.63023 C1444.92245,1275.01545 1443.01447,1276.92363 1440.63642,1276.92363 C1438.25146,1276.92363 1436.34349,1275.01545 1436.34349,1272.63023 C1436.34349,1270.245 1438.25146,1268.33683 1440.63642,1268.33683 Z" id="Search-Icon-menu"></path>
        </g>
    </g>
</svg>