<?xml version="1.0" encoding="UTF-8"?>
<svg width="16px" height="16px" viewBox="0 0 16 16" version="1.1" xmlns="http://www.w3.org/2000/svg" xmlns:xlink="http://www.w3.org/1999/xlink">
    <!-- Generator: Sketch 46 (44423) - http://www.bohemiancoding.com/sketch -->
    <title>Search Icon W menu</title>
    <desc>Created with Sketch.</desc>
    <defs></defs>
    <g id="Guidelines" stroke="none" stroke-width="1" fill="none" fill-rule="evenodd">
        <g id="Logo-&amp;-Icons" transform="translate(-1390.000000, -1266.000000)" fill-rule="nonzero" fill="#FFFFFF">
            <path d="M1396.63642,1266 C1392.98639,1266 1390,1268.9798 1390,1272.63023 C1390,1276.28065 1392.98639,1279.26737 1396.63642,1279.26737 C1398.03975,1279.26737 1399.33938,1278.81798 1400.41089,1278.0713 L1403.9987,1281.65259 C1404.45496,1282.1158 1405.20156,1282.1158 1405.65781,1281.65259 C1406.11406,1281.19628 1406.11406,1280.45652 1405.65781,1280.00022 L1402.06999,1276.41201 C1402.8235,1275.33348 1403.26593,1274.0337 1403.26593,1272.63023 C1403.26593,1268.9798 1400.27954,1266 1396.63642,1266 Z M1396.63642,1268.33683 C1399.01447,1268.33683 1400.92245,1270.245 1400.92245,1272.63023 C1400.92245,1275.01545 1399.01447,1276.92363 1396.63642,1276.92363 C1394.25146,1276.92363 1392.34349,1275.01545 1392.34349,1272.63023 C1392.34349,1270.245 1394.25146,1268.33683 1396.63642,1268.33683 Z" id="Search-Icon-W-menu"></path>
        </g>
    </g>
</svg>