<?xml version="1.0" encoding="UTF-8"?>
<svg width="179px" height="91px" viewBox="0 0 179 91" version="1.1" xmlns="http://www.w3.org/2000/svg" xmlns:xlink="http://www.w3.org/1999/xlink">
    <!-- Generator: Sketch 46 (44423) - http://www.bohemiancoding.com/sketch -->
    <title>Ship Silver@2x</title>
    <desc>Created with Sketch.</desc>
    <defs></defs>
    <g id="Guidelines" stroke="none" stroke-width="1" fill="none" fill-rule="evenodd">
        <g id="Logo-&amp;-Icons" transform="translate(-621.000000, -1621.000000)">
            <g id="Ship-Silver" transform="translate(621.000000, 1621.000000)">
                <path d="M41.7835821,45.7810294 C39.4376192,42.4213626 36.6140926,39.4191164 33.4014925,36.8683824 C31.2656716,35.0617647 30.2985075,34.1919118 30.7149254,33.2952941 C31.1313433,32.3986765 32.2597015,32.2782353 36.2223881,32.5994118 C41.7819572,32.9286648 47.0927065,35.0093654 51.3880597,38.5411765 L50.5149254,39.5582353 C46.4224272,36.2050845 41.3649135,34.2365516 36.0746269,33.9376471 C34.7381096,33.7671345 33.3870681,33.7402152 32.0447761,33.8573529 C32.7245957,34.5697212 33.4515997,35.2358725 34.2208955,35.8513235 C37.5333352,38.4812516 40.4430613,41.5784045 42.858209,45.045 L41.7835821,45.7810294 Z" id="Shape" fill="#2B3D6B" fill-rule="nonzero"></path>
                <path d="M110.774627,35.1420588 C96.938806,28.6114706 87.2268657,26.2561765 62.9402985,31.1273529 C60.0656716,31.7161765 57.0970149,36.9486765 54.880597,41.7127941" id="Shape" fill="#78D2DF" fill-rule="nonzero"></path>
                <path d="M148.198507,40.1470588 C121.171642,32.9339706 106.019403,30.9132353 56.6,40.6288235 C50.0850746,41.9670588 42.6029851,51.0938235 37.6059701,58.3336765 L148.198507,40.1470588 Z" id="Shape" fill="#78D2DF" fill-rule="nonzero"></path>
                <path d="M28.1089552,60.5417647 L28.9955224,59.2035294 C34.1537313,51.7227941 41.7164179,42.5291176 48.419403,41.2176471 C96.858209,31.6894118 116.376119,33.2819118 144.356716,40.7492647 L147.40597,41.5655882 L28.1089552,60.5417647 Z M102.607463,35.9985294 C88.5567164,35.9985294 71.9940299,37.9925 48.661194,42.5826471 C42.7641791,43.7469118 35.9537313,51.7227941 30.9835821,58.7351471 L140.891045,41.3380882 C128.424504,37.8723452 115.550053,36.0766958 102.607463,35.9985294 L102.607463,35.9985294 Z" id="Shape" fill="#2B3D6B" fill-rule="nonzero"></path>
                <ellipse id="Oval" fill="#73AAD8" fill-rule="nonzero" cx="19.2701493" cy="47.5876471" rx="2.59253731" ry="2.58279412"></ellipse>
                <path d="M41.138806,15.8982353 C39.1431621,15.8982353 37.5253731,14.2865262 37.5253731,12.2983824 C37.5253731,10.3102385 39.1431621,8.69852941 41.138806,8.69852941 C43.1344498,8.69852941 44.7522388,10.3102385 44.7522388,12.2983824 C44.7448724,14.2834785 43.1313906,15.8908966 41.138806,15.8982353 L41.138806,15.8982353 Z M41.138806,10.0233824 C39.8850372,10.0233824 38.8686567,11.0359431 38.8686567,12.285 C38.8686567,13.5340569 39.8850372,14.5466176 41.138806,14.5466176 C42.3925748,14.5466176 43.4089552,13.5340569 43.4089552,12.285 C43.4089552,11.6851817 43.1697795,11.1099304 42.7440439,10.6857948 C42.3183083,10.2616592 41.740887,10.0233824 41.138806,10.0233824 L41.138806,10.0233824 Z" id="Shape" fill="#73AAD8" fill-rule="nonzero"></path>
                <path d="M12.1776119,32.8135294 C10.5158119,32.8135294 9.16865672,31.4714371 9.16865672,29.8158824 C9.16865672,28.1603276 10.5158119,26.8182353 12.1776119,26.8182353 C13.839412,26.8182353 15.1865672,28.1603276 15.1865672,29.8158824 C15.1792112,31.4683921 13.8363555,32.8062011 12.1776119,32.8135294 Z M12.1776119,28.1430882 C11.2576869,28.1430882 10.5119403,28.8860322 10.5119403,29.8025 C10.5119403,30.7189678 11.2576869,31.4619118 12.1776119,31.4619118 C13.097537,31.4619118 13.8432836,30.7189678 13.8432836,29.8025 C13.8504607,29.3565392 13.6785722,28.9261896 13.3658061,28.6070605 C13.0530401,28.2879313 12.6252987,28.106452 12.1776119,28.1029412 L12.1776119,28.1430882 Z" id="Shape" fill="#73AAD8" fill-rule="nonzero"></path>
                <path d="M21.9029851,15.5101471 C21.6342779,15.5063866 21.3936869,15.3434201 21.2913666,15.0958618 C21.1890463,14.8483035 21.2446957,14.5638142 21.4328358,14.3726471 L26.5373134,9.27397059 C26.7076811,9.10424316 26.9559975,9.03795706 27.1887241,9.10008161 C27.4214507,9.16220616 27.6032308,9.34330316 27.6655897,9.57515514 C27.7279486,9.80700711 27.6614125,10.0543902 27.4910448,10.2241176 L22.3731343,15.3227941 C22.2469553,15.4439614 22.078235,15.5111959 21.9029851,15.5101471 L21.9029851,15.5101471 Z" id="Shape" fill="#73AAD8" fill-rule="nonzero"></path>
                <path d="M27.0208955,15.5101471 C26.8437371,15.5076332 26.6747518,15.4354831 26.5507463,15.3094118 L21.4328358,10.2107353 C21.2624681,10.0410079 21.195932,9.79362476 21.2582909,9.56177278 C21.3206498,9.3299208 21.5024299,9.1488238 21.7351565,9.08669925 C21.9678831,9.0245747 22.2161995,9.09086081 22.3865672,9.26058824 L27.5044776,14.3592647 C27.6926177,14.5504318 27.7482672,14.8349212 27.6459468,15.0824795 C27.5436265,15.3300378 27.3030356,15.4930042 27.0343284,15.4967647 L27.0208955,15.5101471 Z" id="Shape" fill="#73AAD8" fill-rule="nonzero"></path>
                <ellipse id="Oval" fill="#73AAD8" fill-rule="nonzero" cx="140.461194" cy="28.7720588" rx="2.76716418" ry="2.75676471"></ellipse>
                <ellipse id="Oval" fill="#73AAD8" fill-rule="nonzero" cx="160.422388" cy="2.24823529" rx="2.25671642" ry="2.24823529"></ellipse>
                <path d="M166.265672,31.0872059 C164.804174,31.0872059 163.486586,30.2101299 162.927295,28.864957 C162.368004,27.5197842 162.677154,25.9714232 163.710589,24.9418725 C164.744023,23.9123218 166.298225,23.6043337 167.648473,24.1615225 C168.99872,24.7187113 169.879104,26.0313483 169.879104,27.4873529 C169.871738,29.4724491 168.258256,31.0798672 166.265672,31.0872059 L166.265672,31.0872059 Z M166.265672,25.2123529 C165.011903,25.2123529 163.995522,26.2249137 163.995522,27.4739706 C163.995522,28.7230275 165.011903,29.7355882 166.265672,29.7355882 C167.51944,29.7355882 168.535821,28.7230275 168.535821,27.4739706 C168.535821,26.2249137 167.51944,25.2123529 166.265672,25.2123529 Z" id="Shape" fill="#73AAD8" fill-rule="nonzero"></path>
                <path d="M146.492537,17.5844118 C146.22383,17.5806513 145.983239,17.4176848 145.880919,17.1701265 C145.778599,16.9225682 145.834248,16.6380789 146.022388,16.4469118 L151.140299,11.3482353 C151.310666,11.1785078 151.558983,11.1122217 151.791709,11.1743463 C152.024436,11.2364708 152.206216,11.4175678 152.268575,11.6494198 C152.330934,11.8812718 152.264398,12.1286549 152.09403,12.2983824 L146.962687,17.3970588 C146.836508,17.5182261 146.667787,17.5854606 146.492537,17.5844118 Z" id="Shape" fill="#73AAD8" fill-rule="nonzero"></path>
                <path d="M151.597015,17.5844118 C151.419856,17.5818979 151.250871,17.5097478 151.126866,17.3836765 L146.008955,12.285 C145.838588,12.1152726 145.772051,11.8678895 145.83441,11.6360375 C145.896769,11.4041855 146.078549,11.2230885 146.311276,11.1609639 C146.544003,11.0988394 146.792319,11.1651255 146.962687,11.3348529 L152.134328,16.4469118 C152.322468,16.6380789 152.378118,16.9225682 152.275798,17.1701265 C152.173477,17.4176848 151.932886,17.5806513 151.664179,17.5844118 L151.597015,17.5844118 Z" id="Shape" fill="#73AAD8" fill-rule="nonzero"></path>
                <path d="M162.880597,87.4804412 C154.160036,86.0240261 145.326719,85.3433043 136.485075,85.4463235 C127.643431,85.3433043 118.810113,86.0240261 110.089552,87.4804412 C101.564016,88.9015323 92.9284983,89.5643399 84.2850746,89.4610294 C75.6506075,89.5629644 67.0241318,88.9001607 58.5074627,87.4804412 C49.7913221,86.0248174 40.9625352,85.3440983 32.1253731,85.4463235 C23.2792288,85.3419428 14.44133,86.0226712 5.71641791,87.4804412 C4.25223881,87.7079412 2.77462687,87.9354412 1.21641791,88.1495588 C0.705970149,88.2164706 0.329850746,88.4841176 0.329850746,88.8052941 L0.343283582,88.8052941 C0.343283582,89.2335294 0.517910448,89.5547059 1.22985075,89.4610294 C2.81492537,89.2469118 4.82985075,89.0194118 6.30746269,88.7785294 C14.8329727,87.3572274 23.4685097,86.6944183 32.1119403,86.7979412 C40.7553709,86.6944183 49.3909079,87.3572274 57.9164179,88.7785294 C66.6325067,90.2345747 75.4613314,90.9152967 84.2985075,90.8126471 C93.1401514,90.9156663 101.973469,90.2349445 110.69403,88.7785294 C119.223986,87.3566467 127.864035,86.6938363 136.51194,86.7979412 C145.159846,86.6938363 153.799894,87.3566467 162.329851,88.7785294 L166.185075,89.3539706 C166.897015,89.4610294 167.528358,89.4610294 167.528358,88.8855882 C167.528358,88.3101471 167.179104,88.1227941 166.668657,88.0558824 L162.880597,87.4804412 Z" id="Shape" fill="#2B3D6B" fill-rule="nonzero"></path>
                <path d="M54.880597,83.5727941 L58.6149254,84.1348529 C61.3014925,84.5630882 64.1492537,84.9913235 67.480597,85.3392647 L63.880597,84.8039706 C61.0865672,84.3088235 58.2522388,83.9341176 54.880597,83.5727941 Z" id="Shape"></path>
                <path d="M18.1014925,73.2014706 L15.5492537,78.0458824 C15.0177227,79.0328996 15.0745097,80.231231 15.6970149,81.1639706 C16.3297737,82.0946274 17.4214537,82.6076355 18.5447761,82.5022059 C22.0104478,82.2345588 25.7716418,82.1007353 29.9089552,82.0605882 C28.389826,81.8247696 26.8500404,81.7485182 25.3149254,81.8330882 C23.9472887,81.9391089 22.6295744,81.2976 21.8731676,80.1575214 C21.1167607,79.0174428 21.0407473,77.5582844 21.6746269,76.3463235 L31.158209,64.9044118 C31.6785942,63.7227678 32.8324347,62.9425613 34.1268657,62.8970588 L170.671642,38.1798529 C170.381463,38.0845857 170.077098,38.0393288 169.771642,38.0460294 L26.1746269,60.7960294 C25.0850751,60.813462 24.1140151,61.4848344 23.7164179,62.4955882 L23.4746269,62.9639706" id="Shape"></path>
                <path d="M175.091045,37.3769118 L172.646269,37.8185294 C172.822623,37.9730638 172.984486,38.1432765 173.129851,38.3270588 C173.886734,39.3715307 174.058789,40.7276721 173.586567,41.9269118 L149.044776,81.5119118 C148.699682,82.0497236 148.241333,82.50635 147.701493,82.8501471 L150.38806,82.9438235 C151.7483,82.9997443 153.032693,82.3190152 153.746269,81.1639706 L178.328358,41.6860294 C178.710708,40.6660261 178.545937,39.5223057 177.891058,38.6506106 C177.236179,37.7789155 176.181158,37.2989964 175.091045,37.3769118 Z" id="Shape" fill="#78D2DF" fill-rule="nonzero"></path>
                <path d="M106.623881,85.995 C109.955224,85.6470588 112.749254,85.2188235 115.502985,84.7905882 L119.210448,84.2285294 C115.838806,84.5898529 113.01791,85.0180882 110.223881,85.4463235 L106.623881,85.995 Z" id="Shape" fill="#78D2DF" fill-rule="nonzero"></path>
                <path d="M31.1447761,64.9579412 L21.661194,76.3998529 C21.0273144,77.6118138 21.1033279,79.0709722 21.8597347,80.2110508 C22.6161416,81.3511294 23.9338558,81.9926383 25.3014925,81.8866176 C26.8366076,81.8020476 28.3763932,81.8782991 29.8955224,82.1141176 L32.1119403,82.1141176 C39.7236574,82.023727 47.331102,82.5158604 54.8671642,83.5861765 C58.238806,83.9475 61.0865672,84.3757353 63.880597,84.8039706 L67.480597,85.3392647 C73.0731282,85.8969433 78.691611,86.1560393 84.3119403,86.1154412 C92.9241122,86.2168732 101.528243,85.5540594 110.022388,84.1348529 C118.77421,82.6754981 127.63901,81.9947752 136.51194,82.1007353 C139.601493,82.1007353 142.422388,82.1007353 145.135821,82.2747059 C146.255509,82.3245131 147.31446,81.7662999 147.902985,80.8160294 L172.377612,41.3514706 C172.634146,40.5987477 172.503622,39.7685346 172.028358,39.13 C171.695502,38.6797724 171.223634,38.3507058 170.685075,38.1932353 L34.1268657,62.8970588 C32.8148411,62.9469623 31.651227,63.7511205 31.1447761,64.9579412 Z" id="Shape" fill="#78D2DF" fill-rule="nonzero"></path>
                <path d="M149.044776,81.5119118 L173.626866,41.9402941 C174.099088,40.7410545 173.927033,39.384913 173.170149,38.3404412 C173.024784,38.1566588 172.862922,37.9864461 172.686567,37.8319118 C171.894243,37.0764753 170.82709,36.6753807 169.731343,36.7211765 L26.0940299,59.4711765 C24.5294904,59.5398422 23.1465655,60.5052952 22.5477612,61.9469118 L22.3597015,62.2948529 L23.5149254,62.9639706 L23.7567164,62.4955882 C24.1543136,61.4848344 25.1253736,60.813462 26.2149254,60.7960294 L169.81194,38.0460294 C170.117396,38.0393288 170.421761,38.0845857 170.71194,38.1798529 C171.250499,38.3373234 171.722368,38.66639 172.055224,39.1166176 C172.530488,39.7551522 172.661012,40.5853654 172.404478,41.3380882 L147.902985,80.8160294 C147.31446,81.7662999 146.255509,82.3245131 145.135821,82.2747059 C142.449254,82.1542647 139.614925,82.1007353 136.51194,82.1007353 C127.63901,81.9947752 118.77421,82.6754981 110.022388,84.1348529 C101.528243,85.5540594 92.9241122,86.2168732 84.3119403,86.1154412 C78.7005692,86.1550849 73.0910801,85.89599 67.5074627,85.3392647 C64.1761194,84.9913235 61.3820896,84.5630882 58.641791,84.1348529 L54.9074627,83.5727941 C47.3714005,82.502478 39.7639559,82.0103446 32.1522388,82.1007353 L29.8955224,82.1007353 C25.758209,82.1007353 21.9970149,82.2747059 18.5313433,82.5423529 C17.4080209,82.6477826 16.3163409,82.1347744 15.6835821,81.2041176 C15.0610769,80.271378 15.0042899,79.0730467 15.5358209,78.0860294 L18.0880597,73.2416176 L16.919403,72.5725 L14.3402985,77.4704412 C13.5936708,78.8976128 13.6827827,80.6159381 14.5730666,81.9588567 C15.4633504,83.3017754 17.0147176,84.0579756 18.6253731,83.9341176 C22.6552239,83.6263235 27.0880597,83.4791176 32.058209,83.4791176 C40.8637153,83.3744921 49.6610995,84.0507377 58.3462687,85.4998529 C66.9071014,86.9290173 75.5786222,87.5963065 84.258209,87.4938235 C91.7217364,87.5833739 99.1811039,87.1001806 106.570149,86.0485294 L110.170149,85.5132353 C112.950746,85.085 115.785075,84.6567647 119.156716,84.2954412 C124.905206,83.7182368 130.680752,83.4502008 136.458209,83.4925 C139.534328,83.4925 142.341791,83.4925 145.028358,83.6664706 C146.65274,83.7523318 148.195869,82.9529205 149.058209,81.5788235 L149.044776,81.5119118 Z" id="Shape" fill="#2B3D6B" fill-rule="nonzero"></path>
                <path d="M59.3268657,30.1638235 L57.4462687,30.5385294 C54.8671642,31.0604412 52.0731343,34.7539706 48.9701493,41.5120588 L50.1925373,42.0607353 C52.9731343,35.9048529 55.6462687,32.2782353 57.7149254,31.85 L59.5283582,31.4886765 L59.3268657,30.1638235 Z" id="Shape" fill="#2B3D6B" fill-rule="nonzero"></path>
                <path d="M69.4820896,28.5311765 L69.6835821,29.8694118 C85.0910448,28.1029412 93.6477612,30.4983824 105.119403,35.9182353 L105.697015,34.7138235 C93.9567164,29.1735294 85.2253731,26.6576471 69.4820896,28.5311765 Z" id="Shape" fill="#2B3D6B" fill-rule="nonzero"></path>
                <path d="M31.6552239,30.0166176 C37.5222253,29.341205 43.4580108,30.4269735 48.7014925,33.1347059" id="Shape" stroke="#2B3D6B" stroke-linecap="round"></path>
                <path d="M75.4328358,25.3327941 C75.4328358,25.3327941 84.1104478,25.0785294 88.3552239,26.0286765" id="Shape" stroke="#2B3D6B" stroke-linecap="round"></path>
            </g>
        </g>
    </g>
</svg>