<?xml version="1.0" encoding="UTF-8"?>
<svg width="200px" height="98px" viewBox="0 0 200 98" version="1.1" xmlns="http://www.w3.org/2000/svg" xmlns:xlink="http://www.w3.org/1999/xlink">
    <!-- Generator: Sketch 46 (44423) - http://www.bohemiancoding.com/sketch -->
    <title>Ship Gold@2x</title>
    <desc>Created with Sketch.</desc>
    <defs></defs>
    <g id="Guidelines" stroke="none" stroke-width="1" fill="none" fill-rule="evenodd">
        <g id="Logo-&amp;-Icons" transform="translate(-864.000000, -1621.000000)">
            <g id="Ship-Gold" transform="translate(864.000000, 1621.000000)">
                <path d="M146.986952,66.3333333 L146.986952,47.6666667 C147.053613,47.0245256 146.863021,46.3821475 146.457352,45.8816783 C146.051683,45.3812091 145.464384,45.0639124 144.825411,45 L22.1745885,45 C21.5356164,45.0639124 20.9483168,45.3812091 20.5426477,45.8816783 C20.1369786,46.3821475 19.9463875,47.0245256 20.0130485,47.6666667 L20.0130485,66.3333333 C19.9463875,66.9754744 20.1369786,67.6178525 20.5426477,68.1183217 C20.9483168,68.6187909 21.5356164,68.9360876 22.1745885,69 L144.825411,69 C145.464384,68.9360876 146.051683,68.6187909 146.457352,68.1183217 C146.863021,67.6178525 147.053613,66.9754744 146.986952,66.3333333 Z" id="Shape" fill="#78D2DF" fill-rule="nonzero"></path>
                <path d="M148.766273,44 L19.8887318,44 L19.8887318,45.6568483 L147.867804,45.6568483 C148.363607,45.7191022 148.720481,46.165146 148.673784,46.6642121 L148.673784,69.3961708 L16.3212789,69.3961708 L16.3212789,64.0942563 L15,64.0942563 L15,71 L149.995063,71 L149.995063,45.5243004 C150.057764,44.768292 149.516328,44.0966466 148.766273,44 Z" id="Shape" fill="#2B3D6B" fill-rule="nonzero"></path>
                <path d="M55.432353,69 L20.5146006,69 C19.0084962,68.8602072 17.8930724,67.5436102 18.0081611,66.0415094 L19.3343196,32.9433962 C19.2192309,31.4412955 20.3346547,30.1246985 21.8407591,29.9849057 L23.3791029,29.9849057 L55.4853994,27 C56.9915038,27.1397928 58.1069276,28.4563898 57.9918389,29.9584906 L57.9918389,66.054717 C58.0982563,67.5707951 56.9541516,68.8873533 55.432353,69 L55.432353,69 Z" id="Shape" fill="#78D2DF" fill-rule="nonzero"></path>
                <path d="M15.0061255,66.2465088 C14.893261,68.1952372 16.3534938,69.8712553 18.2763592,70 L54.7236408,70 C56.6465062,69.8712553 58.106739,68.1952372 57.9938745,66.2465088 L57.9938745,29.7534912 C58.106739,27.8047628 56.6465062,26.1287447 54.7236408,26 L18.2763592,26 C16.3534938,26.1287447 14.893261,27.8047628 15.0061255,29.7534912 L15.0061255,33.7607772 L16.3247681,33.7607772 L16.3247681,29.7534912 C16.2570008,28.5896507 17.1280587,27.5880455 18.2763592,27.5094111 L54.7236408,27.5094111 C55.8719413,27.5880455 56.7429992,28.5896507 56.6752319,29.7534912 L56.6752319,66.2465088 C56.7429992,67.4103493 55.8719413,68.4119545 54.7236408,68.4905889 L18.2763592,68.4905889 C17.1280587,68.4119545 16.2570008,67.4103493 16.3247681,66.2465088" id="Shape" fill="#2B3D6B" fill-rule="nonzero"></path>
                <path d="M199.323367,42.420168 C199.072679,41.6083153 198.339984,41.0404667 197.490923,41 L169.114604,41 C167.980505,41.00472 166.877693,41.3721585 165.967581,42.0485352 C165.659329,42.2908942 165.398272,42.5878251 165.197423,42.9245267 L152.622611,62.5546991 C152.425757,62.8747535 152.179239,63.1614825 151.892289,63.4041453 C150.024119,64.9505746 147.678574,65.8039684 145.253,65.8197582 L46.9915291,65.8197582 C42.7397002,65.8088044 38.6605984,64.1369352 35.625067,61.1610763 L34.9080238,60.4709012 C33.4914554,59.0725173 31.5874094,58.277936 29.5965929,58.2543773 L13.7685289,58.2543773 C13.56757,58.2417289 13.3677461,58.2928237 13.1975501,58.4003759 C9.70528425,60.9088969 14.5254078,81.6008771 19.0135669,91.8075049 L21.8950181,93.4400345 C30.29044,91.7557659 38.8411909,90.9682587 47.4031649,91.0907846 C56.1593035,90.9681928 64.9030707,91.7914457 73.4822906,93.5462153 C81.8808416,95.2783231 90.4422223,96.0971399 99.0169946,95.9883733 C107.581452,96.1081144 116.133788,95.3026611 124.525141,93.5860331 C133.108734,91.8305165 141.856983,91.0072609 150.617546,91.1306024 C159.400718,91.0076681 168.1714,91.8353901 176.776343,93.5993057 L177.745679,93.3205811 C193.9721,78.5481796 202.56334,51.0871744 199.323367,42.420168 Z" id="Shape" fill="#78D2DF" fill-rule="nonzero"></path>
                <path d="M95.5335676,93.9891939 C86.955827,94.1001718 78.3885563,93.3561067 69.9609567,91.7682197 C61.4111405,90.1558266 52.7196082,89.3985615 44.0171518,89.50782 C35.3151174,89.3936099 26.6235264,90.1464773 18.0733469,91.7550779 L16.7476543,91.9916313 C16.4754133,92.0318345 16.2079578,91.8939649 16.0848079,91.649943 C11.8823623,84.2510764 6.51330711,65.6947716 8.38253373,59.8072188 C8.56671931,58.9687695 9.13560661,58.2638327 9.92033718,57.9016493 C9.99047314,57.8890888 10.062312,57.8890888 10.132448,57.9016493 L26.6240644,57.9016493 C28.4569477,57.9106268 30.2221743,58.5890658 31.5821549,59.8072188 L32.629452,60.727149 C35.6404084,63.3855405 39.5344058,64.8500763 43.5664163,64.8405508 L141.667671,64.8405508 C143.997795,64.8380335 146.25876,64.0554167 148.084024,62.6195766 C148.207225,62.5226335 148.314551,62.4073734 148.40219,62.2778883 L161.195124,43.8792858 C161.372269,43.6213932 161.591854,43.3948295 161.844713,43.209051 C162.906583,42.4266119 164.193803,42.0027984 165.516882,42 L193.833677,42 C194.930493,42.0222958 195.900186,42.7119071 196.272951,43.7347254 L196.272951,43.7347254 C199.706495,52.1980825 190.75807,78.140112 174.094113,91.7682197 C173.958543,91.8823114 173.778696,91.9304969 173.603607,91.8996383 L172.993788,91.7945034 C164.444883,90.1732061 155.753334,89.4071341 147.049983,89.50782 C138.347949,89.3936099 129.656358,90.1464773 121.106179,91.7550779 C112.678918,93.3465813 104.111724,94.0950424 95.5335676,93.9891939 Z M44.0171518,88.0490737 C52.785731,87.9330758 61.5438964,88.6903421 70.1598106,90.3094734 C78.5222106,91.8818062 87.0228405,92.617064 95.5335676,92.5041638 C104.044291,92.6169752 112.544912,91.8817183 120.907325,90.3094734 C129.523276,88.6906056 138.281414,87.9333416 147.049983,88.0490737 C155.818566,87.9329871 164.57674,88.6902542 173.192642,90.3094734 L173.537322,90.3094734 C190.042196,76.6682238 197.996351,51.4621384 195.079828,44.3129672 C194.891729,43.7971175 194.400223,43.4513338 193.846934,43.4456045 L165.516882,43.4456045 C164.451805,43.4474662 163.415488,43.7883713 162.560587,44.418102 C162.436138,44.513705 162.328613,44.6291796 162.242421,44.7597904 L149.462744,63.2241022 C149.293777,63.4683169 149.088127,63.6854779 148.852925,63.8680532 C146.812802,65.4733194 144.285596,66.348543 141.680928,66.3518646 L43.5796732,66.3518646 C39.2377595,66.3586234 35.0460012,64.7769605 31.8075226,61.9099163 L30.7602254,60.9899861 C29.6436244,59.9306838 28.1690632,59.3216162 26.6240644,59.2815445 L10.2517603,59.2815445 C9.93056049,59.5130286 9.70830915,59.8552312 9.6286848,60.2409002 C8.07762442,65.1296717 12.7573194,82.5820603 16.9465082,90.4671757 L17.874493,90.3094734 C26.4903583,88.6899905 35.2485594,87.9327211 44.0171518,88.0490737 L44.0171518,88.0490737 Z" id="Shape" fill="#2B3D6B" fill-rule="nonzero"></path>
                <ellipse id="Oval" fill="#FFFFFF" fill-rule="nonzero" cx="188.5" cy="52" rx="2.5" ry="3"></ellipse>
                <path d="M188.671876,54.9957295 C187.242891,55.0661897 185.914937,54.2595771 185.318578,52.9589024 C184.72222,51.6582276 184.977578,50.1254799 185.963398,49.0884666 C186.949219,48.0514534 188.466933,47.7190555 189.795872,48.2491084 C191.124811,48.7791613 191.997291,50.0648987 191.999027,51.4958031 C192.043531,53.3799796 190.555655,54.9451198 188.671876,54.9957295 L188.671876,54.9957295 Z M188.671876,49.4011502 C187.811087,49.3577802 187.01063,49.8429505 186.650736,50.6261953 C186.290843,51.4094401 186.44404,52.3329186 187.037556,52.95796 C187.631072,53.5830014 188.545301,53.7836462 189.345965,53.4645842 C190.146629,53.1455221 190.672377,52.3710511 190.673469,51.5090604 C190.687714,50.9640211 190.484794,50.4356632 190.109384,50.040313 C189.733974,49.6449627 189.216854,49.4150343 188.671876,49.4011502 L188.671876,49.4011502 Z" id="Shape" fill="#2B3D6B" fill-rule="nonzero"></path>
                <ellipse id="Oval" fill="#FFFFFF" fill-rule="nonzero" cx="135.5" cy="76" rx="2.5" ry="3"></ellipse>
                <path d="M135.671876,79.9957295 C134.242891,80.0661897 132.914937,79.2595771 132.318578,77.9589024 C131.72222,76.6582276 131.977578,75.1254799 132.963398,74.0884666 C133.949219,73.0514534 135.466933,72.7190555 136.795872,73.2491084 C138.124811,73.7791613 138.997291,75.0648987 138.999027,76.4958031 C139.043531,78.3799796 137.555655,79.9451198 135.671876,79.9957295 L135.671876,79.9957295 Z M135.671876,74.4011502 C134.811087,74.3577802 134.01063,74.8429505 133.650736,75.6261953 C133.290843,76.4094401 133.44404,77.3329186 134.037556,77.95796 C134.631072,78.5830014 135.545301,78.7836462 136.345965,78.4645842 C137.146629,78.1455221 137.672377,77.3710511 137.673469,76.5090604 C137.687714,75.9640211 137.484794,75.4356632 137.109384,75.040313 C136.733974,74.6449627 136.216854,74.4150343 135.671876,74.4011502 L135.671876,74.4011502 Z" id="Shape" fill="#2B3D6B" fill-rule="nonzero"></path>
                <ellipse id="Oval" fill="#FFFFFF" fill-rule="nonzero" cx="92.5" cy="76" rx="2.5" ry="3"></ellipse>
                <path d="M92.6718756,79.9957295 C91.2428907,80.0661897 89.9149372,79.2595771 89.3185785,77.9589024 C88.7222197,76.6582276 88.9775776,75.1254799 89.9633985,74.0884666 C90.9492193,73.0514534 92.4669335,72.7190555 93.7958721,73.2491084 C95.1248107,73.7791613 95.9972915,75.0648987 95.9990271,76.4958031 C96.0435313,78.3799796 94.5556546,79.9451198 92.6718756,79.9957295 Z M92.6718756,74.4011502 C91.8110873,74.3577802 91.0106297,74.8429505 90.6507364,75.6261953 C90.2908431,76.4094401 90.4440404,77.3329186 91.0375565,77.95796 C91.6310725,78.5830014 92.545301,78.7836462 93.3459649,78.4645842 C94.1466289,78.1455221 94.6723771,77.3710511 94.6734687,76.5090604 C94.687714,75.9640211 94.4847937,75.4356632 94.1093838,75.040313 C93.733974,74.6449627 93.2168538,74.4150343 92.6718756,74.4011502 L92.6718756,74.4011502 Z" id="Shape" fill="#2B3D6B" fill-rule="nonzero"></path>
                <ellipse id="Oval" fill="#FFFFFF" fill-rule="nonzero" cx="70.5" cy="76" rx="2.5" ry="3"></ellipse>
                <path d="M70.6718756,79.9957295 C69.2428907,80.0661897 67.9149372,79.2595771 67.3185785,77.9589024 C66.7222197,76.6582276 66.9775776,75.1254799 67.9633985,74.0884666 C68.9492193,73.0514534 70.4669335,72.7190555 71.7958721,73.2491084 C73.1248107,73.7791613 73.9972915,75.0648987 73.9990271,76.4958031 C74.0435313,78.3799796 72.5556546,79.9451198 70.6718756,79.9957295 L70.6718756,79.9957295 Z M70.6718756,74.4011502 C69.8110873,74.3577802 69.0106297,74.8429505 68.6507364,75.6261953 C68.2908431,76.4094401 68.4440404,77.3329186 69.0375565,77.95796 C69.6310725,78.5830014 70.545301,78.7836462 71.3459649,78.4645842 C72.1466289,78.1455221 72.6723771,77.3710511 72.6734687,76.5090604 C72.687714,75.9640211 72.4847937,75.4356632 72.1093838,75.040313 C71.733974,74.6449627 71.2168538,74.4150343 70.6718756,74.4011502 L70.6718756,74.4011502 Z" id="Shape" fill="#2B3D6B" fill-rule="nonzero"></path>
                <ellipse id="Oval" fill="#FFFFFF" fill-rule="nonzero" cx="113.5" cy="76" rx="2.5" ry="3"></ellipse>
                <path d="M113.671876,79.9957295 C112.242891,80.0661897 110.914937,79.2595771 110.318578,77.9589024 C109.72222,76.6582276 109.977578,75.1254799 110.963398,74.0884666 C111.949219,73.0514534 113.466933,72.7190555 114.795872,73.2491084 C116.124811,73.7791613 116.997291,75.0648987 116.999027,76.4958031 C117.043531,78.3799796 115.555655,79.9451198 113.671876,79.9957295 L113.671876,79.9957295 Z M113.671876,74.4011502 C112.811087,74.3577802 112.01063,74.8429505 111.650736,75.6261953 C111.290843,76.4094401 111.44404,77.3329186 112.037556,77.95796 C112.631072,78.5830014 113.545301,78.7836462 114.345965,78.4645842 C115.146629,78.1455221 115.672377,77.3710511 115.673469,76.5090604 C115.687714,75.9640211 115.484794,75.4356632 115.109384,75.040313 C114.733974,74.6449627 114.216854,74.4150343 113.671876,74.4011502 L113.671876,74.4011502 Z" id="Shape" fill="#2B3D6B" fill-rule="nonzero"></path>
                <ellipse id="Oval" fill="#FFFFFF" fill-rule="nonzero" cx="48.5" cy="76" rx="2.5" ry="3"></ellipse>
                <path d="M48.6718756,79.9957295 C47.2428907,80.0661897 45.9149372,79.2595771 45.3185785,77.9589024 C44.7222197,76.6582276 44.9775776,75.1254799 45.9633985,74.0884666 C46.9492193,73.0514534 48.4669335,72.7190555 49.7958721,73.2491084 C51.1248107,73.7791613 51.9972915,75.0648987 51.9990271,76.4958031 C52.0435313,78.3799796 50.5556546,79.9451198 48.6718756,79.9957295 Z M48.6718756,74.4011502 C47.8110873,74.3577802 47.0106297,74.8429505 46.6507364,75.6261953 C46.2908431,76.4094401 46.4440404,77.3329186 47.0375565,77.95796 C47.6310725,78.5830014 48.545301,78.7836462 49.3459649,78.4645842 C50.1466289,78.1455221 50.6723771,77.3710511 50.6734687,76.5090604 C50.687714,75.9640211 50.4847937,75.4356632 50.1093838,75.040313 C49.733974,74.6449627 49.2168538,74.4150343 48.6718756,74.4011502 L48.6718756,74.4011502 Z" id="Shape" fill="#2B3D6B" fill-rule="nonzero"></path>
                <rect id="Rectangle-path" fill="#FFFFFF" fill-rule="nonzero" x="20" y="39" width="5" height="6"></rect>
                <path d="M24.3830732,45 L19.6169268,45 C19.254278,44.972852 18.9799918,44.6503008 19.0011457,44.2758621 L19.0011457,38.7241379 C18.9799918,38.3496992 19.254278,38.027148 19.6169268,38 L24.3830732,38 C24.745722,38.027148 25.0200082,38.3496992 24.9988543,38.7241379 L24.9988543,44.2885662 C25.0130998,44.6581811 24.7407024,44.9728915 24.3830732,45 Z M20.232708,43.5644283 L23.767292,43.5644283 L23.767292,39.4355717 L20.232708,39.4355717 L20.232708,43.5644283 Z" id="Shape" fill="#2B3D6B" fill-rule="nonzero"></path>
                <rect id="Rectangle-path" fill="#FFFFFF" fill-rule="nonzero" x="34" y="39" width="5" height="6"></rect>
                <path d="M38.3830732,45 L33.6169268,45 C33.254278,44.972852 32.9799918,44.6503008 33.0011457,44.2758621 L33.0011457,38.7241379 C32.9799918,38.3496992 33.254278,38.027148 33.6169268,38 L38.3830732,38 C38.745722,38.027148 39.0200082,38.3496992 38.9988543,38.7241379 L38.9988543,44.2885662 C39.0130998,44.6581811 38.7407024,44.9728915 38.3830732,45 L38.3830732,45 Z M34.1834455,43.5644283 L37.7180295,43.5644283 L37.7180295,39.4355717 L34.1834455,39.4355717 L34.1834455,43.5644283 Z" id="Shape" fill="#2B3D6B" fill-rule="nonzero"></path>
                <rect id="Rectangle-path" fill="#FFFFFF" fill-rule="nonzero" x="48" y="39" width="5" height="6"></rect>
                <path d="M52.3953888,45 L47.6169268,45 C47.254278,44.972852 46.9799918,44.6503008 47.0011457,44.2758621 L47.0011457,38.7241379 C46.9799918,38.3496992 47.254278,38.027148 47.6169268,38 L52.3830732,38 C52.745722,38.027148 53.0200082,38.3496992 52.9988543,38.7241379 L52.9988543,44.2885662 C53.0134673,44.6536491 52.7481135,44.9664783 52.3953888,45 Z M48.232708,43.5644283 L51.767292,43.5644283 L51.767292,39.4355717 L48.232708,39.4355717 L48.232708,43.5644283 Z" id="Shape" fill="#2B3D6B" fill-rule="nonzero"></path>
                <path d="M149.345841,55 L79.6541594,55 C79.2796761,54.9665868 79,54.7528193 79,54.5 C79,54.2471807 79.2796761,54.0334132 79.6541594,54 L149.345841,54 C149.720324,54.0334132 150,54.2471807 150,54.5 C150,54.7528193 149.720324,54.9665868 149.345841,55 L149.345841,55 Z" id="Shape" fill="#2B3D6B" fill-rule="nonzero"></path>
                <path d="M172.439499,94.8665088 C163.831724,93.5244931 155.113864,92.9038918 146.38896,93.0120401 C137.662875,92.9162283 128.945007,93.5493255 120.338422,94.9038471 C111.924313,96.225516 103.401659,96.8419524 94.8712036,96.7458696 C86.3351345,96.8305537 77.8079825,96.2016174 69.3907279,94.8665088 C60.787316,93.525229 52.0739276,92.9046302 43.3534469,93.0120401 C34.6317663,92.9164404 25.9183201,93.5495387 17.3161658,94.9038471 C15.8711233,95.1154307 14.4128234,95.3270144 12.8749799,95.526152 C12.3712036,95.5883825 12,95.8373044 12,96.1360108 L12,96.1360108 C12,96.534286 12.1723445,96.8329923 12.8749799,96.7458696 C14.4393379,96.5467321 16.4279287,96.3351484 17.8862285,96.1111186 C26.299915,94.7850847 34.82259,94.1644817 43.3534469,94.25665 C51.8839096,94.1603697 60.4065819,94.7768075 68.8206653,96.0986725 C77.4271991,97.4535864 86.1451044,98.0866863 94.8712036,97.9904795 C103.597289,98.0862912 112.315157,97.453194 120.921742,96.0986725 C129.335851,94.7770036 137.858504,94.1605672 146.38896,94.25665 C154.923051,94.151604 163.450171,94.7597123 171.869436,96.0737803 L175.674273,96.6089625 C176.376908,96.7085313 177,96.7085313 177,96.1733491 C177,95.6381669 176.655311,95.4639215 176.151535,95.401691 L172.439499,94.8665088 Z" id="Shape" fill="#2B3D6B" fill-rule="nonzero"></path>
                <path d="M10.326972,89.9999558 C10.0669179,89.9955976 9.83331969,89.8381625 9.72931946,89.5971638 C6.55473942,82.033896 4.62131041,73.9979323 4.00513599,65.805584 C3.95827072,65.4091002 4.23734376,65.048941 4.6293509,65 C5.01810519,65 5.33325281,65.3185938 5.33325281,65.7115992 C5.94104224,73.6960926 7.82949119,81.5274813 10.9246246,88.898991 C11.0942861,89.2650601 10.9692987,89.7015563 10.6324389,89.9193974 C10.5395991,89.9734424 10.4340961,90.0012659 10.326972,89.9999558 Z" id="Shape" fill="#2B3D6B" fill-rule="nonzero"></path>
                <path d="M199.213566,48 L199.130145,48 C198.722252,47.9294418 198.450707,47.5753873 198.518392,47.2023649 C198.726944,45.3538772 198.713041,42.1380149 197.781508,41.2137711 C196.849974,40.2895272 193.763401,40.4034751 192.804061,40.5554056 C192.609087,40.5766824 192.413154,40.5233783 192.262949,40.4081947 C192.112744,40.2930111 192.021719,40.1262631 192.011563,39.9476836 C191.941455,39.5796853 192.196871,39.2252646 192.595509,39.1373876 C193.04042,39.0740832 196.989009,38.5296656 198.713041,40.1629185 C200.437073,41.7961713 199.950451,46.8098778 199.894837,47.3669563 C199.874875,47.7039555 199.583162,47.975019 199.213566,48 L199.213566,48 Z" id="Shape" fill="#2B3D6B" fill-rule="nonzero"></path>
                <path d="M16.0037593,66.7548892 C15.9349138,67.9192642 16.8198311,68.9213294 17.9864022,69 L55.0135978,69 C56.1801689,68.9213294 57.0650862,67.9192642 56.9962407,66.7548892 L56.9962407,30.2451108 C57.0650862,29.0807358 56.1801689,28.0786706 55.0135978,28 L19.3260258,30.9801173" id="Shape"></path>
                <path d="M130.329635,41 L102.670365,41 C102.300133,41 102,40.7761424 102,40.5 C102,40.2238576 102.300133,40 102.670365,40 L130.329635,40 C130.699867,40 131,40.2238576 131,40.5 C131,40.7761424 130.699867,41 130.329635,41 Z" id="Shape" fill="#2B3D6B" fill-rule="nonzero"></path>
                <circle id="Oval" fill="#73AAD8" fill-rule="nonzero" cx="3.5" cy="38.5" r="2.5"></circle>
                <path d="M37.5,15 C35.5670034,15 34,13.4329966 34,11.5 C34,9.56700338 35.5670034,8 37.5,8 C39.4329966,8 41,9.56700338 41,11.5 C40.9928649,13.4300334 39.4300334,14.9928649 37.5,15 Z M37.5,9.28810409 C36.2855895,9.28810409 35.3011152,10.2725783 35.3011152,11.4869888 C35.3011152,12.7013994 36.2855895,13.6858736 37.5,13.6858736 C38.7144105,13.6858736 39.6988848,12.7013994 39.6988848,11.4869888 C39.6988848,10.9038084 39.4672172,10.3445134 39.0548463,9.93214252 C38.6424754,9.51977164 38.0831805,9.28810409 37.5,9.28810409 Z" id="Shape" fill="#73AAD8" fill-rule="nonzero"></path>
                <path d="M2.9865921,16 C1.33323972,15.9926023 -0.00246248553,14.6489078 3.40879807e-06,12.9955407 C0.00246930312,11.3421736 1.34217363,10.0024693 2.99554072,10.0000034 C4.64890781,9.99753751 5.99260234,11.3332397 6,12.9865921 C6,13.7857976 5.68251686,14.5522697 5.11739326,15.1173933 C4.55226965,15.6825169 3.78579756,16 2.9865921,16 L2.9865921,16 Z M2.9865921,11.3258695 C2.07118009,11.3332521 1.33437451,12.0800202 1.33928635,12.9954488 C1.34419819,13.9108774 2.08897485,14.6496958 3.00441337,14.6472548 C3.91985189,14.6448137 4.66067783,13.9020339 4.6607076,12.9865921 C4.65335253,12.0672382 3.90597545,11.3258401 2.9865921,11.3258695 Z" id="Shape" fill="#73AAD8" fill-rule="nonzero"></path>
                <path d="M19.5910885,6 C19.3566152,5.98535116 19.149796,5.84301306 19.0543776,5.63062222 C18.9589593,5.41823138 18.9907521,5.17097987 19.1368823,4.98898645 L23.9186646,0.183551693 C24.0786831,0.0252478355 24.3119151,-0.0365768586 24.5305044,0.0213663748 C24.7490937,0.0793096082 24.9198314,0.248217814 24.9784022,0.464464905 C25.036973,0.680711996 24.9744787,0.911444895 24.8144602,1.06974875 L20.0326779,5.81277527 C19.9162052,5.9303613 19.7574852,5.99765529 19.5910885,6 L19.5910885,6 Z" id="Shape" fill="#73AAD8" fill-rule="nonzero"></path>
                <path d="M24.3725738,5.95058725 C24.1994217,5.95496777 24.0322283,5.8878427 23.9110388,5.76528943 L19.1834237,1.0587248 C18.9388588,0.816526854 18.9388588,0.423846402 19.1834237,0.181648459 C19.4279887,-0.0605494839 19.8245069,-0.0605494868 20.0690719,0.181648453 L24.8216348,4.94997902 C24.9963444,5.1264445 25.0480212,5.38905531 24.9530051,5.61757523 C24.8579891,5.84609515 24.634573,5.99652872 24.3850477,6 L24.3725738,5.95058725 Z" id="Shape" fill="#73AAD8" fill-rule="nonzero"></path>
                <circle id="Oval" fill="#73AAD8" fill-rule="nonzero" cx="146.5" cy="24.5" r="2.5"></circle>
                <circle id="Oval" fill="#73AAD8" fill-rule="nonzero" cx="180" cy="14" r="2"></circle>
                <path d="M190.5,33 C188.567003,33 187,31.4329966 187,29.5 C187,27.5670034 188.567003,26 190.5,26 C192.432997,26 194,27.5670034 194,29.5 C193.992865,31.4300334 192.430033,32.9928649 190.5,33 Z M190.5,27.2881041 C189.285589,27.2881041 188.301115,28.2725783 188.301115,29.4869888 C188.301115,30.7013994 189.285589,31.6858736 190.5,31.6858736 C191.714411,31.6858736 192.698885,30.7013994 192.698885,29.4869888 C192.691729,28.2776626 191.709347,27.3010941 190.5,27.3011152 L190.5,27.2881041 Z" id="Shape" fill="#73AAD8" fill-rule="nonzero"></path>
                <path d="M163.614952,32.9997939 C163.365427,32.9962866 163.142011,32.8442935 163.046995,32.6134046 C162.951979,32.3825157 163.003656,32.1171825 163.178365,31.9388877 L167.930928,27.1835316 C168.175493,26.9388228 168.572011,26.9388228 168.816576,27.1835316 C169.061141,27.4282403 169.061141,27.8249915 168.816576,28.0697003 L164.064013,32.8250564 C163.943762,32.9411391 163.781989,33.004088 163.614952,32.9997939 Z" id="Shape" fill="#73AAD8" fill-rule="nonzero"></path>
                <path d="M168.422471,33 C168.257959,32.9976794 168.101038,32.9310782 167.985885,32.8147026 L163.183438,28.0587364 C163.025232,27.9020622 162.963446,27.6737045 163.021353,27.4596836 C163.07926,27.2456626 163.248063,27.0784932 163.464176,27.0211464 C163.680289,26.9637997 163.910878,27.0249879 164.069084,27.1816622 L168.821635,31.8882157 C168.996344,32.0646808 169.048021,32.327291 168.953005,32.5558103 C168.857989,32.7843297 168.634574,32.9347629 168.385049,32.9382342 L168.422471,33 Z" id="Shape" fill="#73AAD8" fill-rule="nonzero"></path>
            </g>
        </g>
    </g>
</svg>