<?xml version="1.0" encoding="UTF-8"?>
<svg width="145px" height="116px" viewBox="0 0 145 116" version="1.1" xmlns="http://www.w3.org/2000/svg" xmlns:xlink="http://www.w3.org/1999/xlink">
    <!-- Generator: Sketch 46 (44423) - http://www.bohemiancoding.com/sketch -->
    <title>Ship Bronze@2x</title>
    <desc>Created with Sketch.</desc>
    <defs></defs>
    <g id="Guidelines" stroke="none" stroke-width="1" fill="none" fill-rule="evenodd">
        <g id="Logo-&amp;-Icons" transform="translate(-388.000000, -1621.000000)" fill-rule="nonzero">
            <g id="Ship-Bronze" transform="translate(388.000000, 1621.000000)">
                <path d="M76.7024905,7.72287531 C57.2968848,30.4399388 44.3405168,54.8011527 34.8113918,81.1191371 C34.6967657,81.4303026 34.7370801,81.7774471 34.919966,82.0540621 C35.1028519,82.330677 35.4064728,82.5037346 35.7376737,82.5201385 L77.420359,84.8358432 C77.7066192,84.8517715 77.9867961,84.7490554 78.194929,84.5518769 C78.4030618,84.3546985 78.5207616,84.0804787 78.5203188,83.7937761 L78.5897899,8.40600821 C78.6246329,7.93987507 78.3448194,7.50757067 77.9052927,7.34847818 C77.465766,7.18938569 76.9740763,7.34243433 76.7024905,7.72287531 Z" id="Shape" fill="#7CD2DE"></path>
                <path d="M41.1680013,58.2747098 L39.8596281,58.2747098 C35.4007634,66.8031399 31.5321749,75.6273902 28.2811044,84.6853224 C28.2169736,84.8627053 28.243278,85.0602092 28.351599,85.2146243 C28.4599201,85.3690394 28.6366752,85.4610032 28.825295,85.4610835 L76.6330194,85.4610835 C76.9527515,85.4610835 77.2119456,85.2018894 77.2119456,84.8821573 L77.2814167,5.59242695 C77.2838848,5.34896809 77.1337642,5.12998139 76.9057948,5.04449289 C76.6778255,4.95900438 76.4207297,5.02528492 76.2625066,5.21033567 C64.301118,18.8956789 53.7282287,33.734958 44.699451,49.5097674 L45.8573034,49.5097674 C45.9668491,49.5117934 46.0688459,49.454143 46.1236094,49.3592466 C54.5490799,34.5579337 64.4238581,20.630075 75.6025308,7.78076793 C75.6876917,7.68662725 75.821325,7.65333108 75.9407004,7.6965094 C76.0600757,7.73968772 76.1414884,7.8507665 76.1467214,7.97760283 L76.0772503,84.0021895 C76.0772503,84.0820307 76.0455335,84.1586018 75.9890772,84.2150581 C75.932621,84.2715143 75.8560498,84.3032311 75.7762086,84.3032311 L29.6126346,84.3032311 L29.9599903,83.3537922 C33.1547975,74.7625929 36.8985189,66.3856295 41.1680013,58.2747098" id="Shape" fill="#2B3D6B"></path>
                <path d="M86.2431941,15.6657426 C105.347758,37.9891363 120.480889,61.7830025 130.010014,87.5799533 C130.169439,88.0129114 130.101581,88.4969285 129.829244,88.8693551 C129.556907,89.2417817 129.116241,89.4531821 128.655326,89.4325171 L85.8958384,87.6957385 C85.1664519,87.6651578 84.5875152,87.0709859 84.5758867,86.3410513 L83.76539,16.5920245 C83.7202962,15.9814312 84.0835275,15.4143229 84.6570208,15.1999329 C85.230514,14.9855429 85.8766871,15.1753038 86.2431941,15.6657426 Z" id="Shape" fill="#7CD2DE"></path>
                <path d="M115.038983,49.3360895 C115.316867,49.1739902 115.791587,49.5097674 116.08105,50.077115 L124.324959,65.684965 C124.626,66.2523126 124.649157,66.8428174 124.324959,67.0396523 C124.00076,67.2364872 123.595512,66.9122885 123.29447,66.3449408 L115.073718,50.6444627 C114.772676,50.0886936 114.761098,49.4981888 115.038983,49.3360895 Z" id="Shape" fill="#2B3D6B"></path>
                <path d="M140.3149,112.948499 C132.810622,111.678813 125.208393,111.078229 117.597836,111.153828 C109.976721,111.064695 102.362784,111.653661 94.8460372,112.913763 C87.4935837,114.143988 80.0462351,114.717457 72.5921146,114.627385 C65.1428838,114.72843 57.6994312,114.166587 50.3497706,112.948499 C42.8378736,111.677445 35.2278339,111.076857 27.60955,111.153828 C19.9835221,111.074991 12.3656283,111.675588 4.84617242,112.948499 C3.58411334,113.145334 2.31047573,113.342169 0.967366981,113.527425 C0.52738308,113.585318 0.203184416,113.816888 0.203184416,114.094773 L0.21476294,114.094773 C0.21476294,114.465285 0.365283748,114.74317 0.978945504,114.66212 C2.3452113,114.476864 4.08198986,114.280029 5.35562747,114.071616 C12.7066712,112.825694 20.1540456,112.236724 27.60955,112.31168 C35.0598135,112.222111 42.503273,112.795579 49.8518941,114.025301 C57.3647858,115.285084 64.9748509,115.87405 72.5921146,115.785237 C80.2132294,115.87437 87.8271673,115.285404 95.3439137,114.025301 C102.696367,112.795077 110.143716,112.221608 117.597836,112.31168 C125.051957,112.221608 132.499305,112.795077 139.851759,114.025301 L143.174795,114.523178 C143.788457,114.615806 144.332648,114.615806 144.332648,114.11793 C144.332648,113.620053 144.031606,113.457954 143.591622,113.400061 L140.3149,112.948499 Z" id="Shape" fill="#2B3D6B"></path>
                <path d="M38.597569,107.518171 C39.3682206,107.836897 40.1854715,108.028501 41.0174805,108.085519 C45.7762537,108.421296 49.2613894,108.953908 52.6654753,109.48652 C60.0154824,110.700731 67.4589326,111.258699 74.9078194,111.153828 C82.3580769,111.243213 89.8015201,110.669746 97.1501634,109.440206 C101.353168,108.791809 112.202244,108.131833 117.33153,107.84237 C119.268151,107.748011 121.171247,107.300686 122.947114,106.522418 C130.392105,103.164646 135.880325,99.4363616 138.566543,96.3912099 C139.724395,95.0944152 138.948634,92.790289 137.40869,92.790289 L25.2938453,93.9481414 C23.7191661,93.9481414 22.9781405,96.2638461 24.1359929,97.5490622 C27.0769379,100.883677 29.9599903,103.905672 38.597569,107.518171 Z" id="Shape" fill="#7CD2DE"></path>
                <path d="M129.384773,89.3283104 C119.820913,62.5356065 102.754169,34.3187443 81.3339,9.85332367 C81.175677,9.66827292 80.9185812,9.60199239 80.6906118,9.68748089 C80.4626425,9.7729694 80.3125219,9.9919561 80.3149899,10.235415 L80.3149899,58.9694212 L81.4728423,58.9694212 L81.4728423,11.7869371 C102.105772,35.6271174 118.593589,62.9408549 128.018508,88.9346406 L81.553892,88.9346406 L81.553892,74.9130484 L80.3960396,74.9130484 L80.3960396,89.5135668 C80.3960396,89.8332989 80.6552337,90.092493 80.9749658,90.092493 L128.840583,90.092493 C129.029203,90.0924127 129.205958,90.0004488 129.314279,89.8460338 C129.4226,89.6916187 129.448904,89.4941148 129.384773,89.3167319 L129.384773,89.3283104 Z" id="Shape" fill="#2B3D6B"></path>
                <circle id="Oval" fill="#7CD2DE" cx="130.878403" cy="2.38517588" r="2.38517588"></circle>
                <circle id="Oval" fill="#7CD2DE" cx="33.7461676" cy="28.0084488" r="2.23465508"></circle>
                <circle id="Oval" fill="#7CD2DE" cx="126.617506" cy="40.9879739" r="1.94519198"></circle>
                <path d="M45.8109893,10.359604 C44.1501357,10.359604 42.8037479,9.01321612 42.8037479,7.35236255 C42.8037479,5.69150899 44.1501357,4.34512115 45.8109893,4.34512115 C47.4718429,4.34512115 48.8182307,5.69150899 48.8182307,7.35236255 C48.8182307,9.01321612 47.4718429,10.359604 45.8109893,10.359604 Z M45.8109893,9.41651453 C46.950989,9.41651453 47.8751413,8.49236221 47.8751413,7.35236255 C47.8751413,6.2123629 46.950989,5.28821058 45.8109893,5.28821058 C44.6709896,5.28821058 43.7468373,6.2123629 43.7468373,7.35236255 C43.7468373,8.49236221 44.6709896,9.41651453 45.8109893,9.41651453 Z" id="Oval" fill="#73AAD8"></path>
                <path d="M28.1653192,52.0886034 C27.105562,52.0886034 26.246459,51.2295004 26.246459,50.1697432 C26.246459,49.109986 27.105562,48.250883 28.1653192,48.250883 C29.2250764,48.250883 30.0841793,49.109986 30.0841793,50.1697432 C30.0841793,51.2295004 29.2250764,52.0886034 28.1653192,52.0886034 Z M28.1653192,51.145514 C28.7042225,51.145514 29.1410899,50.7086465 29.1410899,50.1697432 C29.1410899,49.6308399 28.7042225,49.1939725 28.1653192,49.1939725 C27.6264159,49.1939725 27.1895484,49.6308399 27.1895484,50.1697432 C27.1895484,50.7086465 27.6264159,51.145514 28.1653192,51.145514 Z" id="Oval" fill="#73AAD8"></path>
                <path d="M20.025617,24.1959398 C18.6525223,24.1959398 17.5394092,23.0828266 17.5394092,21.7097319 C17.5394092,20.3366373 18.6525223,19.2235241 20.025617,19.2235241 C21.3987117,19.2235241 22.5118248,20.3366373 22.5118248,21.7097319 C22.5118248,23.0828266 21.3987117,24.1959398 20.025617,24.1959398 Z M20.025617,23.2528504 C20.8778578,23.2528504 21.5687354,22.5619727 21.5687354,21.7097319 C21.5687354,20.8574912 20.8778578,20.1666135 20.025617,20.1666135 C19.1733762,20.1666135 18.4824986,20.8574912 18.4824986,21.7097319 C18.4824986,22.5619727 19.1733762,23.2528504 20.025617,23.2528504 Z" id="Oval" fill="#73AAD8"></path>
                <path d="M29.6612934,5.15478777 L25.2614544,9.55462678 C25.0773048,9.73877645 25.0773048,10.037342 25.2614544,10.2214917 C25.4456041,10.4056414 25.7441697,10.4056414 25.9283194,10.2214917 L30.3281584,5.8216527 C30.512308,5.63750304 30.512308,5.33893744 30.3281584,5.15478777 C30.1440087,4.9706381 29.8454431,4.9706381 29.6612934,5.15478777 Z" id="Shape" fill="#73AAD8"></path>
                <path d="M30.3281584,9.55462678 L25.9283194,5.15478777 C25.7441697,4.9706381 25.4456041,4.9706381 25.2614544,5.15478777 C25.0773048,5.33893744 25.0773048,5.63750304 25.2614544,5.8216527 L29.6612934,10.2214917 C29.8454431,10.4056414 30.1440087,10.4056414 30.3281584,10.2214917 C30.512308,10.037342 30.512308,9.73877645 30.3281584,9.55462678 Z" id="Shape" fill="#73AAD8"></path>
                <path d="M135.637176,25.52747 C133.976323,25.52747 132.629935,24.1810822 132.629935,22.5202286 C132.629935,20.859375 133.976323,19.5129872 135.637176,19.5129872 C137.29803,19.5129872 138.644418,20.859375 138.644418,22.5202286 C138.644418,24.1810822 137.29803,25.52747 135.637176,25.52747 Z M135.637176,24.5843806 C136.777176,24.5843806 137.701328,23.6602283 137.701328,22.5202286 C137.701328,21.380229 136.777176,20.4560766 135.637176,20.4560766 C134.497177,20.4560766 133.573024,21.380229 133.573024,22.5202286 C133.573024,23.6602283 134.497177,24.5843806 135.637176,24.5843806 Z" id="Oval" fill="#73AAD8"></path>
                <path d="M119.487042,20.3230923 L115.087203,24.7345098 C114.903296,24.9189013 114.903688,25.2174666 115.08808,25.4013742 C115.272471,25.5852817 115.571037,25.5848893 115.754944,25.4004979 L120.154783,20.9890803 C120.338691,20.8046888 120.338298,20.5061235 120.153907,20.322216 C119.969515,20.1383084 119.67095,20.1387008 119.487042,20.3230923 Z" id="Shape" fill="#73AAD8"></path>
                <path d="M120.154783,24.7345098 L115.754944,20.3230923 C115.571037,20.1387008 115.272471,20.1383084 115.08808,20.322216 C114.903688,20.5061235 114.903296,20.8046888 115.087203,20.9890803 L119.487042,25.4004979 C119.67095,25.5848893 119.969515,25.5852817 120.153907,25.4013742 C120.338298,25.2174666 120.338691,24.9189013 120.154783,24.7345098 Z" id="Shape" fill="#73AAD8"></path>
                <path d="M137.153963,93.6123642 C136.821654,92.7669124 136.012827,92.2048459 135.104564,92.1882057 L37.5902375,92.1882057 L37.5902375,93.3460581 L135.104564,93.3460581 C135.552025,93.3792639 135.940019,93.668003 136.100317,94.0870836 C136.391808,94.7140365 136.297225,95.4526824 135.857168,95.9859615 C133.043587,99.1816341 127.416424,102.817291 120.434575,105.966649 C118.718057,106.741757 116.873146,107.193171 114.992668,107.298179 C110.361259,107.564485 99.0953554,108.23604 94.7649875,108.907594 C87.4434018,110.135503 80.027013,110.708975 72.6036931,110.621215 C65.1803733,110.708975 57.7639845,110.135503 50.4423988,108.907594 C47.0614699,108.38656 43.5647557,107.84237 38.7480898,107.506593 C37.9799056,107.455064 37.2251923,107.279095 36.5134348,106.985559 C28.5242534,103.650944 21.8897593,99.5753039 18.7404009,95.9859615 C18.3003437,95.4526824 18.205761,94.7140365 18.4972519,94.0870836 C18.6575505,93.668003 19.0455436,93.3792639 19.4930049,93.3460581 L23.5454882,93.3460581 L23.5454882,92.1882057 L19.4930049,92.1882057 C18.5847424,92.2048459 17.7759149,92.7669124 17.4436062,93.6123642 C16.9688747,94.6533176 17.135611,95.8745482 17.8720116,96.7501441 C21.1139982,100.420536 27.8990131,104.646697 36.0387153,108.050783 C36.868492,108.392104 37.7484859,108.59548 38.6438831,108.652866 C43.4142349,108.988644 46.887792,109.532834 50.2224068,110.042289 C57.6014894,111.278693 65.0759546,111.856036 72.5573791,111.767489 C80.0556339,111.843427 87.5457246,111.250575 94.9386654,109.995975 C99.2227191,109.335999 110.43073,108.664445 115.06214,108.398139 C117.08622,108.28915 119.072619,107.80629 120.920873,106.973981 C128.053243,103.755151 133.819348,100.026866 136.737136,96.70383 C137.45094,95.835703 137.612356,94.6385402 137.153963,93.6123642 Z" id="Shape" fill="#2B3D6B"></path>
            </g>
        </g>
    </g>
</svg>