<?xml version="1.0" encoding="UTF-8"?>
<svg width="21px" height="16px" viewBox="0 0 21 16" version="1.1" xmlns="http://www.w3.org/2000/svg" xmlns:xlink="http://www.w3.org/1999/xlink">
    <!-- Generator: Sketch 46 (44423) - http://www.bohemiancoding.com/sketch -->
    <title>Users ico</title>
    <desc>Created with Sketch.</desc>
    <defs></defs>
    <g id="Guidelines" stroke="none" stroke-width="1" fill="none" fill-rule="evenodd">
        <g id="Logo-&amp;-Icons" transform="translate(-857.000000, -1266.000000)" fill-rule="nonzero" fill="#3E3E3E">
            <g id="Users-ico" transform="translate(857.000000, 1266.000000)">
                <g id="Profile">
                    <path d="M6,7.66666667 C8.08888889,7.66666667 9.77777778,5.97777778 9.77777778,3.88888889 C9.77777778,1.8 8.08888889,0.111111111 6,0.111111111 C3.91111111,0.111111111 2.22222222,1.8 2.22222222,3.88888889 C2.22222222,5.97777778 3.91111111,7.66666667 6,7.66666667 Z" id="Shape"></path>
                    <path d="M6,8.11111111 C2.68888889,8.11111111 0,10.8 0,14.1111111 L0,15.4444444 C0,15.6888889 0.2,15.8888889 0.444444444,15.8888889 L11.5555556,15.8888889 C11.8,15.8888889 12,15.6888889 12,15.4444444 L12,14.1111111 C12,10.8 9.31111111,8.11111111 6,8.11111111 Z" id="Shape"></path>
                </g>
                <g id="Profile" transform="translate(13.000000, 4.000000)">
                    <path d="M3.5,5 C4.88235294,5 6,3.88235294 6,2.5 C6,1.11764706 4.88235294,0 3.5,0 C2.11764706,0 1,1.11764706 1,2.5 C1,3.88235294 2.11764706,5 3.5,5 Z" id="Shape"></path>
                    <path d="M4,6 C1.79259259,6 0,7.72857143 0,9.85714286 L0,10.7142857 C0,10.8714286 0.133333333,11 0.296296296,11 L7.7037037,11 C7.86666667,11 8,10.8714286 8,10.7142857 L8,9.85714286 C8,7.72857143 6.20740741,6 4,6 Z" id="Shape"></path>
                </g>
            </g>
        </g>
    </g>
</svg>