<?xml version="1.0" encoding="UTF-8"?>
<svg width="25px" height="8px" viewBox="0 0 25 8" version="1.1" xmlns="http://www.w3.org/2000/svg" xmlns:xlink="http://www.w3.org/1999/xlink">
    <!-- Generator: Sketch 46 (44423) - http://www.bohemiancoding.com/sketch -->
    <title>Wave silver</title>
    <desc>Created with Sketch.</desc>
    <defs>
        <linearGradient x1="50%" y1="-34.1762783%" x2="50%" y2="100%" id="linearGradient-1">
            <stop stop-color="#F7F8F8" offset="0%"></stop>
            <stop stop-color="#D1D1D1" offset="100%"></stop>
        </linearGradient>
    </defs>
    <g id="Guidelines" stroke="none" stroke-width="1" fill="none" fill-rule="evenodd">
        <g id="Logo-&amp;-Icons" transform="translate(-820.000000, -1379.000000)" fill="url(#linearGradient-1)">
            <path d="M828.816614,1379.75062 C829.535009,1379.85597 830.207677,1380.04691 830.834639,1380.32346 L834.831505,1382.04198 C835.445405,1382.30535 835.948274,1382.50288 836.340125,1382.63457 C836.993211,1382.8321 837.58098,1382.93086 838.103448,1382.93086 C839.056954,1382.93086 839.948402,1382.55227 840.777821,1381.79506 C841.60724,1381.03786 842.257051,1380.10618 842.727273,1379 L845,1379 C844.268544,1380.86997 843.262807,1382.5753 841.982759,1384.11605 C840.70271,1385.6568 839.089613,1386.42716 837.143417,1386.42716 C836.55564,1386.42716 835.882971,1386.30864 835.125392,1386.0716 C834.681293,1385.92675 834.034748,1385.67654 833.185737,1385.32099 L829.502351,1383.78025 C829.045191,1383.58272 828.56518,1383.43128 828.062304,1383.32593 C827.559428,1383.22058 827.138194,1383.1679 826.798589,1383.1679 C825.701405,1383.1679 824.747914,1383.59588 823.938088,1384.45185 C823.467866,1384.95227 822.919282,1385.80164 822.29232,1387 L820,1387 C820.444098,1385.90699 820.878394,1384.97531 821.3029,1384.20494 C821.727405,1383.43456 822.370685,1382.56214 823.232759,1381.58765 C823.911968,1380.92921 824.604228,1380.44198 825.309561,1380.12593 C826.014894,1379.80987 826.792054,1379.65185 827.641066,1379.65185 C828.019856,1379.65185 828.411701,1379.68477 828.816614,1379.75062 Z" id="Wave-silver"></path>
        </g>
    </g>
</svg>