<?xml version="1.0" encoding="UTF-8"?>
<svg width="25px" height="8px" viewBox="0 0 25 8" version="1.1" xmlns="http://www.w3.org/2000/svg" xmlns:xlink="http://www.w3.org/1999/xlink">
    <!-- Generator: Sketch 46 (44423) - http://www.bohemiancoding.com/sketch -->
    <title>Wave bronze</title>
    <desc>Created with Sketch.</desc>
    <defs>
        <linearGradient x1="50%" y1="13.9489087%" x2="50%" y2="111.930227%" id="linearGradient-1">
            <stop stop-color="#EC8B51" offset="0%"></stop>
            <stop stop-color="#AC3B14" offset="100%"></stop>
        </linearGradient>
    </defs>
    <g id="Guidelines" stroke="none" stroke-width="1" fill="none" fill-rule="evenodd">
        <g id="Logo-&amp;-Icons" transform="translate(-771.000000, -1379.000000)" fill="url(#linearGradient-1)">
            <path d="M779.816614,1379.75062 C780.535009,1379.85597 781.207677,1380.04691 781.834639,1380.32346 L785.831505,1382.04198 C786.445405,1382.30535 786.948274,1382.50288 787.340125,1382.63457 C787.993211,1382.8321 788.58098,1382.93086 789.103448,1382.93086 C790.056954,1382.93086 790.948402,1382.55227 791.777821,1381.79506 C792.60724,1381.03786 793.257051,1380.10618 793.727273,1379 L796,1379 C795.268544,1380.86997 794.262807,1382.5753 792.982759,1384.11605 C791.70271,1385.6568 790.089613,1386.42716 788.143417,1386.42716 C787.55564,1386.42716 786.882971,1386.30864 786.125392,1386.0716 C785.681293,1385.92675 785.034748,1385.67654 784.185737,1385.32099 L780.502351,1383.78025 C780.045191,1383.58272 779.56518,1383.43128 779.062304,1383.32593 C778.559428,1383.22058 778.138194,1383.1679 777.798589,1383.1679 C776.701405,1383.1679 775.747914,1383.59588 774.938088,1384.45185 C774.467866,1384.95227 773.919282,1385.80164 773.29232,1387 L771,1387 C771.444098,1385.90699 771.878394,1384.97531 772.3029,1384.20494 C772.727405,1383.43456 773.370685,1382.56214 774.232759,1381.58765 C774.911968,1380.92921 775.604228,1380.44198 776.309561,1380.12593 C777.014894,1379.80987 777.792054,1379.65185 778.641066,1379.65185 C779.019856,1379.65185 779.411701,1379.68477 779.816614,1379.75062 Z" id="Wave-bronze"></path>
        </g>
    </g>
</svg>