<?xml version="1.0" encoding="UTF-8"?>
<svg width="93px" height="22px" viewBox="0 0 93 22" version="1.1" xmlns="http://www.w3.org/2000/svg" xmlns:xlink="http://www.w3.org/1999/xlink">
    <!-- Generator: Sketch 46.1 (44463) - http://www.bohemiancoding.com/sketch -->
    <title>Bronze</title>
    <desc>Created with Sketch.</desc>
    <defs>
        <linearGradient x1="50%" y1="13.9489087%" x2="50%" y2="111.930227%" id="linearGradient-1">
            <stop stop-color="#EC8B51" offset="0%"></stop>
            <stop stop-color="#C95F2F" offset="100%"></stop>
        </linearGradient>
    </defs>
    <g id="SimCast" stroke="none" stroke-width="1" fill="none" fill-rule="evenodd">
        <g id="SimCast-Admin-Settings-Cancel-Subscription-Accept-Copy" transform="translate(-570.000000, -485.000000)" fill="url(#linearGradient-1)">
            <g id="Bronze" transform="translate(530.000000, 323.000000)">
                <path d="M53.82,172.11 C55.38,173.1 56.4,174.72 56.4,176.85 C56.4,180.57 53.37,183 49.62,183 L40.8,183 L40.8,162 L49.02,162 C52.68,162 55.65,164.37 55.65,168 C55.65,169.74 54.96,171.12 53.82,172.11 Z M49.02,166.5 L45.6,166.5 L45.6,170.22 L49.02,170.22 C50.1,170.22 50.85,169.44 50.85,168.36 C50.85,167.28 50.13,166.5 49.02,166.5 Z M49.62,178.5 C50.82,178.5 51.6,177.66 51.6,176.49 C51.6,175.32 50.82,174.48 49.62,174.48 L45.6,174.48 L45.6,178.5 L49.62,178.5 Z M63.15,170.67 L63.15,168 L58.65,168 L58.65,183 L63.15,183 L63.15,176.22 C63.15,173.25 65.79,172.5 67.65,172.8 L67.65,167.7 C65.76,167.7 63.75,168.66 63.15,170.67 Z M76.5,183.42 C72.09,183.42 68.55,179.97 68.55,175.5 C68.55,171.03 72.09,167.58 76.5,167.58 C80.91,167.58 84.45,171.03 84.45,175.5 C84.45,179.97 80.91,183.42 76.5,183.42 Z M76.5,179.04 C78.45,179.04 79.95,177.63 79.95,175.5 C79.95,173.37 78.45,171.96 76.5,171.96 C74.55,171.96 73.05,173.37 73.05,175.5 C73.05,177.63 74.55,179.04 76.5,179.04 Z M95.79,167.58 C93.81,167.58 92.31,168.3 91.5,169.41 L91.5,168 L87,168 L87,183 L91.5,183 L91.5,174.81 C91.5,172.68 92.64,171.72 94.29,171.72 C95.73,171.72 96.9,172.59 96.9,174.45 L96.9,183 L101.4,183 L101.4,173.79 C101.4,169.74 98.82,167.58 95.79,167.58 Z M109.92,178.8 L115.59,171 L115.59,168 L104.19,168 L104.19,172.2 L109.56,172.2 L103.89,180 L103.89,183 L115.89,183 L115.89,178.8 L109.92,178.8 Z M121.71,177.3 C122.28,178.86 123.66,179.4 125.31,179.4 C126.54,179.4 127.59,178.92 128.19,178.26 L131.79,180.33 C130.32,182.37 128.1,183.42 125.25,183.42 C120.12,183.42 116.94,179.97 116.94,175.5 C116.94,171.03 120.18,167.58 124.92,167.58 C129.3,167.58 132.54,170.97 132.54,175.5 C132.54,176.13 132.48,176.73 132.36,177.3 L121.71,177.3 Z M121.62,173.94 L128.07,173.94 C127.59,172.2 126.24,171.57 124.89,171.57 C123.18,171.57 122.04,172.41 121.62,173.94 Z"></path>
            </g>
        </g>
    </g>
</svg>