<?xml version="1.0" encoding="UTF-8"?>
<svg width="48px" height="48px" viewBox="0 0 48 48" version="1.1" xmlns="http://www.w3.org/2000/svg" xmlns:xlink="http://www.w3.org/1999/xlink">
    <!-- Generator: Sketch 46 (44423) - http://www.bohemiancoding.com/sketch -->
    <title>Exclamation point@2x</title>
    <desc>Created with Sketch.</desc>
    <defs></defs>
    <g id="Guidelines" stroke="none" stroke-width="1" fill="none" fill-rule="evenodd">
        <g id="Logo-&amp;-Icons" transform="translate(-1473.000000, -1132.000000)" fill="#FFFFFF">
            <g id="Exclamation-point" transform="translate(1473.000000, 1132.000000)">
                <path d="M22,11 L25.8999232,11 L25.8999232,11 C26.452208,11 26.8999232,11.4477153 26.8999232,12 L26.8999232,17.5884862 L26.8999232,17.5884862 C26.8999232,17.6298847 26.8973525,17.6712433 26.8922258,17.7123232 L25.4824491,29.0088206 L25.4824491,29.0088206 C25.4199858,29.5093372 24.9945457,29.8849835 24.4901466,29.8849835 L23.4447807,29.8849835 L23.4447807,29.8849835 C22.9415368,29.8849835 22.5166928,29.5110085 22.4528583,29.0118297 L21.0080776,17.7138098 L21.0080776,17.7138098 C21.002698,17.6717418 21,17.6293742 21,17.5869637 L21,12 L21,12 C21,11.4477153 21.4477153,11 22,11 Z M22.1319472,31.983315 L25.7491265,31.983315 L25.7491265,31.983315 C26.3014112,31.983315 26.7491265,32.4310303 26.7491265,32.983315 L26.7491265,36.122449 L26.7491265,36.122449 C26.7491265,36.6747337 26.3014112,37.122449 25.7491265,37.122449 L22.1319472,37.122449 L22.1319472,37.122449 C21.5796624,37.122449 21.1319472,36.6747337 21.1319472,36.122449 L21.1319472,32.983315 L21.1319472,32.983315 C21.1319472,32.4310303 21.5796624,31.983315 22.1319472,31.983315 Z" id="!"></path>
                <path d="M24,48 C10.7349814,48 0,37.2451021 0,24 C0,10.7548979 10.7349814,0 24,0 C37.2650186,0 48,10.7548979 48,24 C48,37.2451021 37.2650186,48 24,48 Z M24,44.0816327 C35.0355104,44.0816327 44,35.1005113 44,24 C44,12.8994887 35.0355104,3.91836735 24,3.91836735 C12.9644896,3.91836735 4,12.8994887 4,24 C4,35.1005113 12.9644896,44.0816327 24,44.0816327 Z" id="Exclamation" fill-rule="nonzero"></path>
            </g>
        </g>
    </g>
</svg>