<?xml version="1.0" encoding="UTF-8"?>
<svg width="67px" height="23px" viewBox="0 0 67 23" version="1.1" xmlns="http://www.w3.org/2000/svg" xmlns:xlink="http://www.w3.org/1999/xlink">
    <!-- Generator: Sketch 46.1 (44463) - http://www.bohemiancoding.com/sketch -->
    <title>Gold</title>
    <desc>Created with Sketch.</desc>
    <defs>
        <linearGradient x1="50%" y1="0%" x2="50%" y2="99.3283642%" id="linearGradient-1">
            <stop stop-color="#F5DC4F" offset="0%"></stop>
            <stop stop-color="#F4AF53" offset="100%"></stop>
        </linearGradient>
    </defs>
    <g id="SimCast" stroke="none" stroke-width="1" fill="none" fill-rule="evenodd">
        <g id="SimCast-Admin-Settings-Cancel-Subscription-Accept-Copy" transform="translate(-1190.000000, -484.000000)" fill="url(#linearGradient-1)">
            <g id="Gold" transform="translate(1124.000000, 334.000000)">
                <path d="M88.59,160.3 L78.06,160.3 L78.06,164.5 L83.67,164.5 C82.92,166.51 81.09,167.74 78.3,167.74 C74.22,167.74 71.7,165.13 71.7,161.56 C71.7,157.87 74.34,155.26 77.88,155.26 C80.25,155.26 82.14,156.34 83.01,157.72 L87.09,155.38 C85.32,152.56 81.93,150.58 77.91,150.58 C71.73,150.58 66.9,155.44 66.9,161.53 C66.9,167.56 71.64,172.42 78.24,172.42 C84.12,172.42 88.59,168.52 88.59,162.1 L88.59,160.3 Z M98.34,172.42 C93.93,172.42 90.39,168.97 90.39,164.5 C90.39,160.03 93.93,156.58 98.34,156.58 C102.75,156.58 106.29,160.03 106.29,164.5 C106.29,168.97 102.75,172.42 98.34,172.42 Z M98.34,168.04 C100.29,168.04 101.79,166.63 101.79,164.5 C101.79,162.37 100.29,160.96 98.34,160.96 C96.39,160.96 94.89,162.37 94.89,164.5 C94.89,166.63 96.39,168.04 98.34,168.04 Z M108.84,172 L113.34,172 L113.34,150.1 L108.84,150.1 L108.84,172 Z M127.53,151 L132.03,151 L132.03,172 L127.53,172 L127.53,170.59 C126.54,171.73 125.07,172.42 123.06,172.42 C119.13,172.42 115.89,168.97 115.89,164.5 C115.89,160.03 119.13,156.58 123.06,156.58 C125.07,156.58 126.54,157.27 127.53,158.41 L127.53,151 Z M123.96,168.16 C126.03,168.16 127.53,166.75 127.53,164.5 C127.53,162.25 126.03,160.84 123.96,160.84 C121.89,160.84 120.39,162.25 120.39,164.5 C120.39,166.75 121.89,168.16 123.96,168.16 Z"></path>
            </g>
        </g>
    </g>
</svg>