<?xml version="1.0" encoding="UTF-8"?>
<svg width="151px" height="32px" viewBox="0 0 151 32" version="1.1" xmlns="http://www.w3.org/2000/svg" xmlns:xlink="http://www.w3.org/1999/xlink">
    <!-- Generator: Sketch 46 (44423) - http://www.bohemiancoding.com/sketch -->
    <title>Logo@2x</title>
    <desc>Created with Sketch.</desc>
    <defs>
        <linearGradient x1="50.3393351%" y1="91.8709212%" x2="49.7860477%" y2="9.12924201%" id="linearGradient-1">
            <stop stop-color="#223F6B" offset="0%"></stop>
            <stop stop-color="#24C6DD" offset="100%"></stop>
        </linearGradient>
        <linearGradient x1="32.4615538%" y1="100%" x2="32.4615529%" y2="0%" id="linearGradient-2">
            <stop stop-color="#223F6B" offset="0%"></stop>
            <stop stop-color="#24C6DD" offset="100%"></stop>
        </linearGradient>
    </defs>
    <g id="Guidelines" stroke="none" stroke-width="1" fill="none" fill-rule="evenodd">
        <g id="Logo-&amp;-Icons" transform="translate(-388.000000, -528.000000)" fill-rule="nonzero">
            <g id="Logo" transform="translate(388.000000, 528.000000)">
                <g id="Symbol">
                    <g id="Layer_2-2" transform="translate(21.951542, 0.000000)" fill="url(#linearGradient-1)">
                        <path d="M4.81084345,11.5976378 L1.40373053,11.8193701 L1.40373053,13.7023622 C7.42069195,16.9070866 12.5739503,21.0576378 13.6165268,21.8440945 C13.6693371,21.8822047 13.7613291,21.8440945 13.8601354,21.7817323 L13.8601354,11.3325984 C13.8610014,11.1004268 13.7701657,10.8776216 13.608009,10.7141732 L11.9521521,9.0303937 C11.7914143,8.86550256 11.572304,8.77313514 11.3439825,8.77401575 L8.02886161,8.77401575 L7.82443483,2.40267717 L9.45133126,2.40267717 C9.61634942,2.42394489 9.77859797,2.34636386 9.86774559,2.2035638 C9.95689321,2.06076374 9.95689321,1.87844886 9.86774559,1.7356488 C9.77859797,1.59284874 9.61634942,1.51526771 9.45133126,1.53653543 L7.79547437,1.53653543 L7.75288546,0.218267717 C7.75288918,0.0983950565 7.65782197,0.000951370375 7.5399409,1.15016844e-10 L6.33723004,1.15016844e-10 C6.22129409,-5.94202759e-05 6.12626242,0.0935070114 6.12258193,0.211338583 L6.08510369,1.35291339 L6.93688192,1.52614173 L4.4292468,1.52614173 C4.26422864,1.50487401 4.10198009,1.58245504 4.01283247,1.7252551 C3.92368485,1.86805516 3.92368485,2.05037004 4.01283247,2.1931701 C4.10198009,2.33597016 4.26422864,2.41355119 4.4292468,2.39228346 L6.90792146,2.39228346 L6.05614323,2.57590551 L5.86364135,8.58346457 L7.05613087,8.75669291 L0.875628022,8.75669291 C0.524367726,8.74870139 0.204323557,8.96084455 0.069751917,9.29087264 C-0.0648197228,9.62090073 0.0136970559,10.0010876 0.267458365,10.248189 L1.32536693,11.323937 L4.81084345,11.5976378 Z" id="Shape"></path>
                    </g>
                    <g id="Layer_5" transform="translate(0.000000, 6.000000)" fill="url(#linearGradient-2)">
                        <path d="M35.9712355,16.5636856 C35.9712355,16.5636856 35.470567,17.1689973 35.2757677,17.0302439 C34.1650697,16.1907859 28.4048191,11.5564228 21.8944202,8.29051491 L18.2444958,2.44552846 C18.1307334,2.26192865 17.953319,2.12826281 17.7472449,2.07089431 C6.22674373,-1.17766938 0.955200259,0.404119241 0.736478196,0.473495935 C0.342923685,0.594561472 0.090173814,0.983021622 0.134992523,1.39794038 L0.541678859,5.44260163 C0.167459079,5.80509485 0.0546805157,6.27512195 0.264858748,6.86482385 C1.49004405,10.3180488 2.6930154,12.7254201 3.97629875,14.8518157 C2.60928586,9.0796748 2.97496181,2.95197832 2.97496181,2.63284553 C2.97496181,2.19924119 2.93224265,1.59219512 4.76916623,11.2754472 C6.0063129,17.795122 9.29227014,20.1834146 11.2846914,21.0558266 C12.6004413,21.4321951 14.1895938,21.4217886 15.9632931,20.48 C17.5843139,19.6228219 19.5169085,19.6293066 21.1323106,20.4973442 C22.6377335,21.3073171 24.7343895,21.7704065 27.1779251,20.4765312 C28.7934697,19.6135368 30.7251055,19.6180828 32.33669,20.4886721 C33.5035306,21.1389182 34.8455863,21.3906823 36.1643261,21.2067209 C36.7094225,20.2909485 37.085351,18.9623848 37.0921861,17.0302439 C37.0938948,16.5099187 35.9712355,16.5636856 35.9712355,16.5636856 Z M20.6897401,10.4672087 C26.9267365,12.201626 33.9890668,17.982439 33.9890668,17.982439 C33.9890668,17.982439 26.7832001,13.9082927 20.6897401,10.4672087 Z" id="Shape"></path>
                    </g>
                </g>
                <g id="Logotype" transform="translate(47.894273, 10.000000)" fill="#223F6B">
                    <path d="M0.549093938,14.4364341 C1.7263057,15.1348604 3.0705783,15.5087518 4.44266913,15.5193798 C6.66486435,15.5193798 7.96272275,14.3562791 7.96272275,12.6747287 C7.96272275,11.1176744 7.06420539,10.2257364 4.79209255,9.36108527 C2.04662286,8.40263566 0.344259522,6.99224806 0.344259522,4.64387597 C0.344259522,2.04651163 2.521701,0.117674419 5.79044516,0.117674419 C7.51174277,0.117674419 8.75968354,0.513333333 9.5101693,0.934573643 L8.91115773,2.68945736 C7.9292599,2.16650579 6.8311949,1.89452072 5.71642936,1.89813953 C3.42021835,1.89813953 2.54579917,3.26248062 2.54579917,4.39658915 C2.54579917,5.95534884 3.56997124,6.72108527 5.89028042,7.61131783 C8.73558537,8.69767442 10.1831967,10.0620155 10.1831967,12.5075969 C10.1831967,15.0793798 8.26050723,17.3049612 4.29291624,17.3049612 C2.66973259,17.3049612 0.898517353,16.835969 -3.55271368e-15,16.2407752 L0.549093938,14.4364341 Z" id="Shape"></path>
                    <path d="M15.5243831,1.72589147 C15.5484813,2.46775194 15.0079939,3.06124031 14.1266895,3.06124031 C13.7699388,3.06607549 13.4267122,2.92614431 13.1767137,2.67394157 C12.9267153,2.42173883 12.7916965,2.07920797 12.8030116,1.72589147 C12.7924395,1.36093533 12.9341222,1.00779055 13.1946941,0.749621319 C13.4552659,0.491452089 13.8116972,0.351075756 14.1800497,0.361550388 C15.0011087,0.36496124 15.5243831,0.958449612 15.5243831,1.72589147 Z M13.0818618,17.0542636 L13.0818618,5.08899225 L15.274795,5.08899225 L15.274795,17.0542636 L13.0818618,17.0542636 Z" id="Shape"></path>
                    <path d="M18.918782,8.3275969 C18.918782,7.09116279 18.8946839,6.07643411 18.8189468,5.08728682 L20.7416362,5.08728682 L20.8414715,7.01612403 L20.9154873,7.01612403 C21.5902359,5.87860465 22.712522,4.8144186 24.702342,4.8144186 C26.3496238,4.8144186 27.5975646,5.80356589 28.1225604,7.21395349 L28.172478,7.21395349 C28.5065925,6.60705805 28.9657876,6.07656068 29.520254,5.65689922 C30.2449203,5.11286822 31.0436024,4.81612403 32.1917079,4.81612403 C33.7890721,4.81612403 36.1610202,5.85472868 36.1610202,10.0091473 L36.1610202,17.0542636 L34.019726,17.0542636 L34.019726,10.2820155 C34.019726,7.98139535 33.1711263,6.59658915 31.399911,6.59658915 C30.1519702,6.59658915 29.1777158,7.5124031 28.8041942,8.57488372 C28.6905386,8.92660855 28.6324756,9.29363465 28.6320645,9.66294574 L28.6320645,17.0542636 L26.4804424,17.0542636 L26.4804424,9.89147287 C26.4804424,7.98651163 25.6318427,6.60170543 23.9587414,6.60170543 C22.5817034,6.60170543 21.5867933,7.68976744 21.2373699,8.77782946 C21.115658,9.11936296 21.0573415,9.4799026 21.0652402,9.8420155 L21.0652402,17.0542636 L18.918782,17.0542636 L18.918782,8.3275969 Z" id="Shape"></path>
                    <path d="M39.734434,8.99612403 C39.734434,7.46124031 39.6845164,6.22651163 39.6345988,5.08899225 L41.6072058,5.08899225 L41.7070411,7.13550388 L41.7569587,7.13550388 C42.6554761,5.67565891 44.0789892,4.81100775 46.049875,4.81100775 C48.9760809,4.81100775 51.1672928,7.26 51.1672928,10.8942636 C51.1672928,15.1970543 48.5216583,17.3237209 45.6763534,17.3237209 C44.0789892,17.3237209 42.6812956,16.6313178 41.9566293,15.4477519 L41.9067116,15.4477519 L41.9067116,21.9522481 L39.734434,21.9522481 L39.734434,8.99612403 Z M41.9067116,12.1869767 C41.9124865,12.4861186 41.9459046,12.7841076 42.0065469,13.0772093 C42.3826185,14.5761426 43.7421884,15.6275892 45.3011105,15.6251163 C47.623141,15.6251163 48.970917,13.7491473 48.970917,11 C48.970917,8.60046512 47.6971568,6.54883721 45.3768476,6.54883721 C43.8793187,6.54883721 42.481625,7.61302326 42.0564645,9.24511628 C41.9683286,9.53429459 41.9180002,9.83348074 41.9067116,10.1353488 L41.9067116,12.1869767 Z" id="Shape"></path>
                    <path d="M64.8671005,10.9744186 C64.8671005,15.4085271 61.7687648,17.3305426 58.8511653,17.3305426 C55.5806998,17.3305426 53.0607201,14.9565891 53.0607201,11.1722481 C53.0607201,7.16620155 55.7063546,4.81612403 59.0508358,4.81612403 C62.5209718,4.81612403 64.8671005,7.31457364 64.8671005,10.9744186 Z M55.2829154,11.0972093 C55.2829154,13.7184496 56.8045424,15.7018605 58.9527219,15.7018605 C61.0492624,15.7018605 62.6225284,13.7474419 62.6225284,11.0528682 C62.6225284,9.02511628 61.5983563,6.44821705 59.0078034,6.44821705 C56.4172505,6.44821705 55.2829154,8.82217054 55.2829154,11.0972093 Z" id="Shape"></path>
                    <path d="M67.6383896,8.82217054 C67.6383896,7.41178295 67.6142914,6.20093023 67.5385543,5.08728682 L69.4612438,5.08728682 L69.5352596,7.43736434 L69.6350948,7.43736434 C70.1841888,5.82914729 71.5078666,4.81612403 72.9795761,4.81612403 C73.1902905,4.81356616 73.4004116,4.83880054 73.6044071,4.89116279 L73.6044071,6.93767442 C73.3585265,6.88443633 73.1073031,6.85925953 72.8556427,6.86263566 C71.3064748,6.86263566 70.2100082,8.02573643 69.9105025,9.65782946 C69.8488235,9.99273623 69.8154294,10.3321543 69.8106672,10.6725581 L69.8106672,17.0542636 L67.6383896,17.0542636 L67.6383896,8.82217054 Z" id="Shape"></path>
                    <path d="M79.0437076,1.65085271 L79.0437076,5.08899225 L82.1885183,5.08899225 L82.1885183,6.74496124 L79.0437076,6.74496124 L79.0437076,13.2 C79.0437076,14.6837209 79.4671468,15.5244961 80.6909894,15.5244961 C81.1197402,15.5306253 81.5474363,15.4807384 81.9630283,15.376124 L82.0628636,17.0082171 C81.4379099,17.2250465 80.7779107,17.3256486 80.116076,17.3049612 C79.0919039,17.3049612 78.2691236,16.9843411 77.7441279,16.3891473 C77.1192968,15.7462016 76.8955282,14.6837209 76.8955282,13.2733333 L76.8955282,6.74496124 L75.0244777,6.74496124 L75.0244777,5.08899225 L76.8972495,5.08899225 L76.8972495,2.21705426 L79.0437076,1.65085271 Z" id="Shape"></path>
                    <path d="M85.7326701,11.4689922 C85.7825877,14.4108527 87.6794577,15.6234109 89.8758334,15.6234109 C91.4490995,15.6234109 92.3975344,15.3522481 93.2203147,15.0060465 L93.5955576,16.5631008 C92.8209736,16.904186 91.4990171,17.3049612 89.5763277,17.3049612 C85.8566035,17.3049612 83.6361296,14.8815504 83.6361296,11.2711628 C83.6361296,7.66077519 85.7825877,4.81612403 89.3026413,4.81612403 C93.2461342,4.81612403 94.2944044,8.25426357 94.2944044,10.4542636 C94.2908719,10.7936949 94.2661527,11.1325848 94.2203886,11.4689922 L85.7326701,11.4689922 Z M92.1720445,9.91023256 C92.1978639,8.52542636 91.5988523,6.37317829 89.127069,6.37317829 C86.9048738,6.37317829 85.9323406,8.40093023 85.7567683,9.91023256 L92.1720445,9.91023256 Z" id="Shape"></path>
                    <path d="M97.0140546,8.82217054 C97.0140546,7.41178295 96.9899565,6.20093023 96.9142194,5.08728682 L98.8369088,5.08728682 L98.9109246,7.43736434 L99.0107599,7.43736434 C99.5598538,5.82914729 100.883532,4.81612403 102.355241,4.81612403 C102.565956,4.81356616 102.776077,4.83880054 102.980072,4.89116279 L102.980072,6.93767442 C102.734192,6.88443633 102.482968,6.85925953 102.231308,6.86263566 C100.68214,6.86263566 99.5856733,8.02573643 99.2861675,9.65782946 C99.2244885,9.99273623 99.1910945,10.3321543 99.1863322,10.6725581 L99.1863322,17.0542636 L97.0140546,17.0542636 L97.0140546,8.82217054 Z" id="Shape"></path>
                </g>
            </g>
        </g>
    </g>
</svg>