<?xml version="1.0" encoding="UTF-8"?>
<svg width="408px" height="405px" viewBox="0 0 408 405" version="1.1" xmlns="http://www.w3.org/2000/svg" xmlns:xlink="http://www.w3.org/1999/xlink">
    <!-- Generator: Sketch 46 (44423) - http://www.bohemiancoding.com/sketch -->
    <title>BG Sign up@8x</title>
    <desc>Created with Sketch.</desc>
    <defs>
        <radialGradient cx="51.2665418%" cy="52.8202583%" fx="51.2665418%" fy="52.8202583%" r="51.4518306%" gradientTransform="translate(0.512665,0.528203),scale(0.813705,1.000000),rotate(-21.050916),translate(-0.512665,-0.528203)" id="radialGradient-1">
            <stop stop-color="#66A9E8" offset="0%"></stop>
            <stop stop-color="#A8DBFB" stop-opacity="0.16" offset="100%"></stop>
        </radialGradient>
        <radialGradient cx="50%" cy="50%" fx="50%" fy="50%" r="69.4751028%" gradientTransform="translate(0.500000,0.500000),scale(0.998422,1.000000),rotate(90.000000),translate(-0.500000,-0.500000)" id="radialGradient-2">
            <stop stop-color="#FFEB79" offset="0%"></stop>
            <stop stop-color="#FFE75D" stop-opacity="0.42" offset="100%"></stop>
        </radialGradient>
    </defs>
    <g id="Guidelines" stroke="none" stroke-width="1" fill="none" fill-rule="evenodd">
        <g id="Logo-&amp;-Icons" transform="translate(-929.000000, -1878.000000)">
            <g id="BG-Sign-up" transform="translate(929.000000, 1878.000000)">
                <path d="M240.841463,373.404279 C326.579271,402.790225 413.01626,335.82545 393.396341,237.081081 C373.776423,138.336712 277.780654,43.5900901 184.384146,63.5788288 C90.9876391,83.5675676 -20.6239837,161.123874 8.20528455,251.472973 C19.2727561,286.157727 15.8130081,341.422297 59.0569106,366.208333 C102.46354,391.08764 160.359756,345.81982 240.841463,373.404279 Z" id="Oval-3" fill="url(#radialGradient-1)" opacity="0.258378623"></path>
                <g id="Group-3" opacity="0.514775815" fill-rule="nonzero" fill="#73AAD8">
                    <ellipse id="Oval" opacity="0.502038043" cx="4.15227521" cy="167.145724" rx="4.15227521" ry="4.14572408"></ellipse>
                    <ellipse id="Oval-Copy-3" opacity="0.502038043" cx="79.1522752" cy="400.145724" rx="4.15227521" ry="4.14572408"></ellipse>
                    <ellipse id="Oval-Copy" cx="134.152275" cy="144.145724" rx="4.15227521" ry="4.14572408"></ellipse>
                    <path d="M42.819221,113.623235 C40.1576387,113.623235 38,111.469001 38,108.811618 C38,106.154235 40.1576387,104 42.819221,104 C45.4808032,104 47.6384419,106.154235 47.6384419,108.811618 C47.6266604,111.464113 45.4759079,113.611472 42.819221,113.623235 Z M42.819221,106.126563 C41.3458451,106.126563 40.1514379,107.319086 40.1514379,108.790137 C40.1514379,110.261188 41.3458451,111.453711 42.819221,111.453711 C44.2925969,111.453711 45.487004,110.261188 45.487004,108.790137 C45.498499,108.074311 45.223198,107.383544 44.7222637,106.8713 C44.2213294,106.359055 43.5362477,106.067757 42.819221,106.062122 L42.819221,106.126563 Z" id="Shape"></path>
                    <path d="M228.819221,398.623235 C226.157639,398.623235 224,396.469001 224,393.811618 C224,391.154235 226.157639,389 228.819221,389 C231.480803,389 233.638442,391.154235 233.638442,393.811618 C233.62666,396.464113 231.475908,398.611472 228.819221,398.623235 Z M228.819221,391.126563 C227.345845,391.126563 226.151438,392.319086 226.151438,393.790137 C226.151438,395.261188 227.345845,396.453711 228.819221,396.453711 C230.292597,396.453711 231.487004,395.261188 231.487004,393.790137 C231.498499,393.074311 231.223198,392.383544 230.722264,391.8713 C230.221329,391.359055 229.536248,391.067757 228.819221,391.062122 L228.819221,391.126563 Z" id="Shape-Copy-3"></path>
                    <path d="M194.819221,83.6232352 C192.157639,83.6232352 190,81.4690006 190,78.8116176 C190,76.1542346 192.157639,74 194.819221,74 C197.480803,74 199.638442,76.1542346 199.638442,78.8116176 C199.62666,81.464113 197.475908,83.6114723 194.819221,83.6232352 Z M194.819221,76.1265631 C193.345845,76.1265631 192.151438,77.3190858 192.151438,78.7901372 C192.151438,80.2611885 193.345845,81.4537112 194.819221,81.4537112 C196.292597,81.4537112 197.487004,80.2611885 197.487004,78.7901372 C197.498499,78.0743115 197.223198,77.3835438 196.722264,76.8712995 C196.221329,76.3590553 195.536248,76.0677572 194.819221,76.0621218 L194.819221,76.1265631 Z" id="Shape-Copy-2"></path>
                    <ellipse id="Oval" cx="403.431962" cy="206.42497" rx="4.43196214" ry="4.42496975"></ellipse>
                    <ellipse id="Oval-Copy-2" opacity="0.49145154" cx="384.431962" cy="4.42496975" rx="4.43196214" ry="4.42496975"></ellipse>
                    <path d="M326.787537,163.556643 C324.446765,163.556643 322.336481,162.148821 321.440706,159.989642 C320.544932,157.830462 321.040074,155.34514 322.69525,153.692575 C324.350426,152.040011 326.839676,151.54565 329.002267,152.440011 C331.164858,153.334372 332.574905,155.441327 332.574905,157.778406 C332.563107,160.964746 329.978913,163.544864 326.787537,163.556643 L326.787537,163.556643 Z M326.787537,154.126732 C324.779468,154.126732 323.151607,155.752025 323.151607,157.756926 C323.151607,159.761826 324.779468,161.387119 326.787537,161.387119 C328.795606,161.387119 330.423467,159.761826 330.423467,157.756926 C330.423467,155.752025 328.795606,154.126732 326.787537,154.126732 Z" id="Shape"></path>
                    <path d="M304.787537,78.5566433 C302.446765,78.5566433 300.336481,77.148821 299.440706,74.9896417 C298.544932,72.8304625 299.040074,70.3451396 300.69525,68.6925754 C302.350426,67.0400111 304.839676,66.5456497 307.002267,67.440011 C309.164858,68.3343723 310.574905,70.4413273 310.574905,72.7784061 C310.563107,75.9647464 307.978913,78.5448637 304.787537,78.5566433 L304.787537,78.5566433 Z M304.787537,69.126732 C302.779468,69.126732 301.151607,70.7520251 301.151607,72.7569257 C301.151607,74.7618262 302.779468,76.3871193 304.787537,76.3871193 C306.795606,76.3871193 308.423467,74.7618262 308.423467,72.7569257 C308.423467,70.7520251 306.795606,69.126732 304.787537,69.126732 Z" id="Shape-Copy-4"></path>
                    <path d="M9.7875372,335.556643 C7.44676533,335.556643 5.33648094,334.148821 4.44070633,331.989642 C3.54493171,329.830462 4.04007436,327.34514 5.69525002,325.692575 C7.35042568,324.040011 9.83967585,323.54565 12.0022671,324.440011 C14.1648583,325.334372 15.5749052,327.441327 15.5749052,329.778406 C15.5631071,332.964746 12.9789126,335.544864 9.7875372,335.556643 L9.7875372,335.556643 Z M9.7875372,326.126732 C7.77946845,326.126732 6.1516071,327.752025 6.1516071,329.756926 C6.1516071,331.761826 7.77946845,333.387119 9.7875372,333.387119 C11.795606,333.387119 13.4234673,331.761826 13.4234673,329.756926 C13.4234673,327.752025 11.795606,326.126732 9.7875372,326.126732 Z" id="Shape-Copy-6"></path>
                    <path d="M390.060638,174.325768 C389.63027,174.319732 389.244933,174.05815 389.081054,173.660786 C388.917175,173.263423 389.006305,172.80678 389.307635,172.499931 L397.504614,164.315885 C397.777479,164.043451 398.175189,163.937053 398.54793,164.036771 C398.920671,164.136489 399.211815,164.427173 399.31169,164.799326 C399.411566,165.171479 399.305,165.568562 399.032135,165.840996 L390.813642,174.025042 C390.61155,174.219532 390.341323,174.327452 390.060638,174.325768 Z" id="Shape" opacity="0.704200634"></path>
                    <path d="M398.266366,174.347249 C397.982625,174.343214 397.711974,174.227403 397.513363,174.025042 L389.316385,165.840996 C389.043519,165.568562 388.936953,165.171479 389.036829,164.799326 C389.136704,164.427173 389.427848,164.136489 389.800589,164.036771 C390.17333,163.937053 390.57104,164.043451 390.843906,164.315885 L399.126942,172.521412 C399.428272,172.82826 399.517401,173.284903 399.353522,173.682267 C399.189644,174.07963 398.804307,174.341213 398.373938,174.347249 L398.266366,174.347249 Z" id="Shape" opacity="0.704200634"></path>
                </g>
                <ellipse id="Oval-5" fill="url(#radialGradient-2)" cx="361.363821" cy="60.7804054" rx="34.8353659" ry="34.7804054"></ellipse>
            </g>
        </g>
    </g>
</svg>