<?xml version="1.0" encoding="UTF-8"?>
<svg width="305px" height="112px" viewBox="0 0 305 112" version="1.1" xmlns="http://www.w3.org/2000/svg" xmlns:xlink="http://www.w3.org/1999/xlink">
    <!-- Generator: Sketch 46 (44423) - http://www.bohemiancoding.com/sketch -->
    <title>Login Ship@8x</title>
    <desc>Created with Sketch.</desc>
    <defs>
        <linearGradient x1="112.5671%" y1="24.4635114%" x2="5.17437381%" y2="96.112591%" id="linearGradient-1">
            <stop stop-color="#A8DBFB" offset="0%"></stop>
            <stop stop-color="#66A9E8" offset="100%"></stop>
        </linearGradient>
    </defs>
    <g id="Guidelines" stroke="none" stroke-width="1" fill="none" fill-rule="evenodd">
        <g id="Logo-&amp;-Icons" transform="translate(-1012.000000, -2632.000000)" fill-rule="nonzero">
            <g id="Login-Ship" transform="translate(1012.000000, 2632.000000)">
                <g id="Ship-3">
                    <path d="M222.424147,62.7407407 L222.424147,33.7037037 C222.527842,32.7048176 222.231367,31.7055628 221.600326,30.9270551 C220.969285,30.1485475 220.055708,29.6549749 219.061751,29.5555556 L28.2715822,29.5555556 C27.2776256,29.6549749 26.3640483,30.1485475 25.7330075,30.9270551 C25.1019667,31.7055628 24.8054916,32.7048176 24.9091865,33.7037037 L24.9091865,62.7407407 C24.8054916,63.7396269 25.1019667,64.7388817 25.7330075,65.5173893 C26.3640483,66.295897 27.2776256,66.7894695 28.2715822,66.8888889 L219.061751,66.8888889 C220.055708,66.7894695 220.969285,66.295897 221.600326,65.5173893 C222.231367,64.7388817 222.527842,63.7396269 222.424147,62.7407407 Z" id="Shape" fill="url(#linearGradient-1)"></path>
                    <path d="M225.191981,28 L24.7158051,28 L24.7158051,30.5773196 L223.794361,30.5773196 C224.56561,30.6741589 225.120749,31.3680049 225.048108,32.1443299 L225.048108,67.5051546 L19.1664338,67.5051546 L19.1664338,59.257732 L17.1111111,59.257732 L17.1111111,70 L227.103431,70 L227.103431,30.371134 C227.200966,29.1951209 226.358733,28.1503391 225.191981,28 Z" id="Shape" fill="#2B3D6B"></path>
                    <path d="M80.0058825,66.8888889 L25.6893787,66.8888889 C23.3465497,66.6714334 21.611446,64.6233936 21.7904729,62.2867925 L23.853386,10.8008386 C23.6743592,8.46423744 25.4094628,6.41619762 27.7522919,6.19874214 L30.1452712,6.19874214 L80.088399,1.55555556 C82.4312281,1.77301104 84.1663318,3.82105085 83.9873049,6.15765199 L83.9873049,62.3073375 C84.1528431,64.6656813 82.3731248,66.7136607 80.0058825,66.8888889 L80.0058825,66.8888889 Z" id="Shape" fill="url(#linearGradient-1)"></path>
                    <path d="M17.1206397,62.6056804 C16.9450726,65.6370356 19.2165459,68.244175 22.2076698,68.4444444 L78.9034413,68.4444444 C81.8945652,68.244175 84.1660385,65.6370356 83.9904714,62.6056804 L83.9904714,5.83876408 C84.1660385,2.80740884 81.8945652,0.200269485 78.9034413,0 L22.2076698,0 C19.2165459,0.200269485 16.9450726,2.80740884 17.1206397,5.83876408 L17.1206397,12.07232 L19.1718615,12.07232 L19.1718615,5.83876408 C19.0664457,4.02834556 20.4214247,2.470293 22.2076698,2.34797275 L78.9034413,2.34797275 C80.6896865,2.470293 82.0446654,4.02834556 81.9392496,5.83876408 L81.9392496,62.6056804 C82.0446654,64.4160989 80.6896865,65.9741514 78.9034413,66.0964717 L22.2076698,66.0964717 C20.4214247,65.9741514 19.0664457,64.4160989 19.1718615,62.6056804" id="Shape" fill="#2B3D6B"></path>
                    <path d="M303.836348,25.5424835 C303.44639,24.2796015 302.306642,23.3962815 300.98588,23.3333333 L256.844939,23.3333333 C255.080786,23.3406756 253.3653,23.9122466 251.94957,24.9643881 C251.470067,25.341391 251.063978,25.8032835 250.751547,26.3270415 L231.190728,56.8628652 C230.884511,57.3607276 230.501038,57.8067506 230.054672,58.1842261 C227.148629,60.5897828 223.500004,61.9172842 219.72689,61.941846 L66.8757119,61.941846 C60.2617559,61.9248069 53.9164864,59.3241215 49.1945486,54.6950075 L48.0791481,53.6214018 C45.8755973,51.446138 42.9137479,50.2101227 39.8169223,50.1734758 L15.1954894,50.1734758 C14.8828867,50.1538005 14.5720495,50.2332812 14.3073001,50.4005847 C8.87488661,54.3027285 16.3728565,86.4902533 23.3544374,102.36723 L27.8366949,104.90672 C40.8962399,102.286747 54.1974081,101.061736 67.5160344,101.252332 C81.1366943,101.061633 94.73811,102.342249 108.083563,105.07189 C121.147976,107.76628 134.465679,109.039995 147.804214,108.870803 C161.126703,109.057067 174.430337,107.804139 187.483553,105.133829 C200.835809,102.403026 214.444196,101.122406 228.071738,101.31427 C241.73445,101.123039 255.377733,102.410607 268.7632,105.154475 L270.271056,104.720904 C295.512156,81.7416127 308.876306,39.0244936 303.836348,25.5424835 Z" id="Shape" fill="url(#linearGradient-1)"></path>
                    <path d="M142.38555,105.760968 C129.042398,105.933601 115.715532,104.776166 102.605933,102.30612 C89.3062186,99.7979524 75.7860572,98.6199845 62.2489028,98.7899422 C48.7124048,98.612282 35.1921521,99.7834092 21.8918729,102.285677 L19.8296844,102.653649 C19.4061984,102.716187 18.9901566,102.501723 18.7985901,102.122134 C12.2614524,90.6127856 3.90958884,61.7474225 6.81727468,52.5890071 C7.1037856,51.2847526 7.9887214,50.1881842 9.2094134,49.6247878 C9.31851377,49.6052493 9.43026319,49.6052493 9.53936356,49.6247878 L35.1929891,49.6247878 C38.0441408,49.6387528 40.7900489,50.6941024 42.9055742,52.5890071 L44.5347032,54.0200095 C49.2184131,58.1552852 55.2757423,60.433452 61.5477587,60.4186346 L214.149711,60.4186346 C217.774348,60.4147187 221.291405,59.1973149 224.130704,56.9637859 C224.322351,56.8129855 224.489301,56.633692 224.625629,56.4322707 L244.525748,27.8122224 C244.801307,27.411056 245.142883,27.0586237 245.536221,26.7696349 C247.188018,25.5525075 249.19036,24.8932419 251.248483,24.8888889 L295.29683,24.8888889 C297.002989,24.9235712 298.5114,25.9963 299.091257,27.5873506 L299.091257,27.5873506 C304.432326,40.7525728 290.512553,81.1068409 264.590843,102.30612 C264.379956,102.483595 264.100193,102.558551 263.827833,102.510548 L262.879226,102.347005 C249.580929,99.8249872 236.060741,98.6333197 222.522196,98.7899422 C208.985699,98.612282 195.465446,99.7834092 182.165167,102.285677 C169.056094,104.761349 155.729348,105.925622 142.38555,105.760968 Z M62.2489028,96.5207812 C75.8889148,96.3403401 89.5127277,97.5183099 102.915261,100.036959 C115.923439,102.48281 129.146641,103.626544 142.38555,103.450922 C155.624453,103.626406 168.847642,102.482673 181.855838,100.036959 C195.258429,97.5187198 208.8822,96.3407536 222.522196,96.5207812 C236.162214,96.3402022 249.78604,97.5181732 263.188555,100.036959 L263.724724,100.036959 C289.398971,78.8172371 301.772102,39.6077709 297.235287,28.4868378 C296.94269,27.684405 296.178124,27.1465193 295.317452,27.137607 L251.248483,27.137607 C249.591697,27.140503 247.979649,27.6707998 246.649802,28.650381 C246.456215,28.7990967 246.288954,28.9787239 246.154877,29.1818961 L226.27538,57.9041589 C226.012542,58.2840486 225.692642,58.6218545 225.326773,58.9058606 C222.153247,61.4029413 218.222039,62.7644002 214.170333,62.7695671 L61.5683806,62.7695671 C54.8142926,62.7800808 48.2937797,60.3197163 43.2561463,55.8598697 L41.6270173,54.4288673 C39.8900825,52.7810637 37.5963205,51.8336252 35.1929891,51.7712914 L9.72496053,51.7712914 C9.22531632,52.1313778 8.87959201,52.663693 8.75573192,53.2636225 C6.34297132,60.8683782 13.6224969,88.0165383 20.1390127,100.282273 L21.5825447,100.036959 C34.9850017,97.5177629 48.6088702,96.3397883 62.2489028,96.5207812 L62.2489028,96.5207812 Z" id="Shape" fill="#2B3D6B"></path>
                    <ellipse id="Oval" fill="#FFFFFF" cx="287" cy="40.4444444" rx="3.88888889" ry="4.66666667"></ellipse>
                    <path d="M287.267362,45.1044681 C285.044497,45.2140729 282.978791,43.9593422 282.051122,41.9360704 C281.123453,39.9127985 281.520676,37.5285243 283.054175,35.9153926 C284.587674,34.3022608 286.948563,33.7851975 289.015801,34.6097242 C291.083039,35.4342509 292.440231,37.4342868 292.442931,39.6601382 C292.51216,42.5910794 290.197685,45.0257419 287.267362,45.1044681 L287.267362,45.1044681 Z M287.267362,36.4017892 C285.928358,36.3343248 284.683202,37.0890341 284.123368,38.3074149 C283.563534,39.5257957 283.801841,40.9623179 284.725088,41.9346045 C285.648335,42.9068911 287.070468,43.2190052 288.315945,42.7226865 C289.561423,42.2263677 290.379253,41.021635 290.380951,39.6807606 C290.403111,38.8329218 290.087457,38.0110316 289.503486,37.3960424 C288.919515,36.7810532 288.115106,36.4233868 287.267362,36.4017892 L287.267362,36.4017892 Z" id="Shape" fill="#2B3D6B"></path>
                    <ellipse id="Oval" fill="#FFFFFF" cx="204.555556" cy="77.7777778" rx="3.88888889" ry="4.66666667"></ellipse>
                    <path d="M204.822918,83.993357 C202.600052,84.1029618 200.534347,82.8482311 199.606678,80.8249593 C198.679008,78.8016874 199.076232,76.4174132 200.609731,74.8042814 C202.14323,73.1911497 204.504119,72.6740864 206.571357,73.4986131 C208.638594,74.3231398 209.995787,76.3231757 209.998487,78.5490271 C210.067715,81.4799683 207.753241,83.9146308 204.822918,83.993357 L204.822918,83.993357 Z M204.822918,75.2906781 C203.483914,75.2232137 202.238757,75.977923 201.678923,77.1963038 C201.119089,78.4146846 201.357396,79.8512068 202.280643,80.8234934 C203.203891,81.79578 204.626024,82.1078941 205.871501,81.6115754 C207.116978,81.1152566 207.934809,79.9105239 207.936507,78.5696495 C207.958666,77.7218107 207.643012,76.8999205 207.059042,76.2849313 C206.475071,75.669942 205.670661,75.3122757 204.822918,75.2906781 L204.822918,75.2906781 Z" id="Shape" fill="#2B3D6B"></path>
                    <ellipse id="Oval" fill="#FFFFFF" cx="137.666667" cy="77.7777778" rx="3.88888889" ry="4.66666667"></ellipse>
                    <path d="M137.934029,83.993357 C135.711163,84.1029618 133.645458,82.8482311 132.717789,80.8249593 C131.79012,78.8016874 132.187343,76.4174132 133.720842,74.8042814 C135.254341,73.1911497 137.61523,72.6740864 139.682468,73.4986131 C141.749706,74.3231398 143.106898,76.3231757 143.109598,78.5490271 C143.178826,81.4799683 140.864352,83.9146308 137.934029,83.993357 Z M137.934029,75.2906781 C136.595025,75.2232137 135.349868,75.977923 134.790034,77.1963038 C134.2302,78.4146846 134.468507,79.8512068 135.391754,80.8234934 C136.315002,81.79578 137.737135,82.1078941 138.982612,81.6115754 C140.228089,81.1152566 141.04592,79.9105239 141.047618,78.5696495 C141.069777,77.7218107 140.754124,76.8999205 140.170153,76.2849313 C139.586182,75.669942 138.781773,75.3122757 137.934029,75.2906781 L137.934029,75.2906781 Z" id="Shape" fill="#2B3D6B"></path>
                    <ellipse id="Oval" fill="#FFFFFF" cx="103.444444" cy="77.7777778" rx="3.88888889" ry="4.66666667"></ellipse>
                    <path d="M103.711806,83.993357 C101.488941,84.1029618 99.4232357,82.8482311 98.4955665,80.8249593 C97.5678974,78.8016874 97.9651208,76.4174132 99.4986198,74.8042814 C101.032119,73.1911497 103.393008,72.6740864 105.460245,73.4986131 C107.527483,74.3231398 108.884676,76.3231757 108.887376,78.5490271 C108.956604,81.4799683 106.642129,83.9146308 103.711806,83.993357 L103.711806,83.993357 Z M103.711806,75.2906781 C102.372802,75.2232137 101.127646,75.977923 100.567812,77.1963038 C100.007978,78.4146846 100.246285,79.8512068 101.169532,80.8234934 C102.092779,81.79578 103.514913,82.1078941 104.76039,81.6115754 C106.005867,81.1152566 106.823698,79.9105239 106.825396,78.5696495 C106.847555,77.7218107 106.531901,76.8999205 105.94793,76.2849313 C105.36396,75.669942 104.55955,75.3122757 103.711806,75.2906781 L103.711806,75.2906781 Z" id="Shape" fill="#2B3D6B"></path>
                    <ellipse id="Oval" fill="#FFFFFF" cx="170.333333" cy="77.7777778" rx="3.88888889" ry="4.66666667"></ellipse>
                    <path d="M170.600695,83.993357 C168.37783,84.1029618 166.312125,82.8482311 165.384455,80.8249593 C164.456786,78.8016874 164.85401,76.4174132 166.387509,74.8042814 C167.921008,73.1911497 170.281896,72.6740864 172.349134,73.4986131 C174.416372,74.3231398 175.773565,76.3231757 175.776264,78.5490271 C175.845493,81.4799683 173.531018,83.9146308 170.600695,83.993357 L170.600695,83.993357 Z M170.600695,75.2906781 C169.261691,75.2232137 168.016535,75.977923 167.456701,77.1963038 C166.896867,78.4146846 167.135174,79.8512068 168.058421,80.8234934 C168.981668,81.79578 170.403801,82.1078941 171.649279,81.6115754 C172.894756,81.1152566 173.712587,79.9105239 173.714285,78.5696495 C173.736444,77.7218107 173.42079,76.8999205 172.836819,76.2849313 C172.252848,75.669942 171.448439,75.3122757 170.600695,75.2906781 L170.600695,75.2906781 Z" id="Shape" fill="#2B3D6B"></path>
                    <ellipse id="Oval" fill="#FFFFFF" cx="69.2222222" cy="77.7777778" rx="3.88888889" ry="4.66666667"></ellipse>
                    <path d="M69.4895843,83.993357 C67.2667188,84.1029618 65.2010134,82.8482311 64.2733443,80.8249593 C63.3456751,78.8016874 63.7428986,76.4174132 65.2763976,74.8042814 C66.8098967,73.1911497 69.1707854,72.6740864 71.2380232,73.4986131 C73.3052611,74.3231398 74.6624534,76.3231757 74.6651533,78.5490271 C74.734382,81.4799683 72.4199072,83.9146308 69.4895843,83.993357 Z M69.4895843,75.2906781 C68.1505802,75.2232137 66.905424,75.977923 66.34559,77.1963038 C65.785756,78.4146846 66.0240629,79.8512068 66.94731,80.8234934 C67.8705572,81.79578 69.2926904,82.1078941 70.5381676,81.6115754 C71.7836449,81.1152566 72.6014756,79.9105239 72.6031736,78.5696495 C72.625333,77.7218107 72.3096791,76.8999205 71.7257082,76.2849313 C71.1417373,75.669942 70.3373281,75.3122757 69.4895843,75.2906781 L69.4895843,75.2906781 Z" id="Shape" fill="#2B3D6B"></path>
                    <rect id="Rectangle-path" fill="#FFFFFF" x="24.8888889" y="20.2222222" width="7.77777778" height="9.33333333"></rect>
                    <path d="M31.7070027,29.5555556 L24.2929973,29.5555556 C23.7288769,29.5133254 23.3022095,29.011579 23.3351155,28.4291188 L23.3351155,19.7931034 C23.3022095,19.2106433 23.7288769,18.7088968 24.2929973,18.6666667 L31.7070027,18.6666667 C32.2711231,18.7088968 32.6977905,19.2106433 32.6648845,19.7931034 L32.6648845,28.4488808 C32.6870442,29.0238373 32.2633148,29.5133868 31.7070027,29.5555556 Z M25.2508791,27.322444 L30.7491209,27.322444 L30.7491209,20.8997782 L25.2508791,20.8997782 L25.2508791,27.322444 Z" id="Shape" fill="#2B3D6B"></path>
                    <rect id="Rectangle-path" fill="#FFFFFF" x="46.6666667" y="20.2222222" width="7.77777778" height="9.33333333"></rect>
                    <path d="M53.4847805,29.5555556 L46.0707751,29.5555556 C45.5066546,29.5133254 45.0799873,29.011579 45.1128933,28.4291188 L45.1128933,19.7931034 C45.0799873,19.2106433 45.5066546,18.7088968 46.0707751,18.6666667 L53.4847805,18.6666667 C54.0489009,18.7088968 54.4755683,19.2106433 54.4426623,19.7931034 L54.4426623,28.4488808 C54.4648219,29.0238373 54.0410926,29.5133868 53.4847805,29.5555556 L53.4847805,29.5555556 Z M46.9520264,27.322444 L52.4502681,27.322444 L52.4502681,20.8997782 L46.9520264,20.8997782 L46.9520264,27.322444 Z" id="Shape" fill="#2B3D6B"></path>
                    <rect id="Rectangle-path" fill="#FFFFFF" x="68.4444444" y="20.2222222" width="7.77777778" height="9.33333333"></rect>
                    <path d="M75.2817159,29.5555556 L67.8485529,29.5555556 C67.2844324,29.5133254 66.8577651,29.011579 66.890671,28.4291188 L66.890671,19.7931034 C66.8577651,19.2106433 67.2844324,18.7088968 67.8485529,18.6666667 L75.2625582,18.6666667 C75.8266787,18.7088968 76.253346,19.2106433 76.2204401,19.7931034 L76.2204401,28.4488808 C76.2431714,29.0167874 75.8303988,29.5034107 75.2817159,29.5555556 Z M68.8064347,27.322444 L74.3046764,27.322444 L74.3046764,20.8997782 L68.8064347,20.8997782 L68.8064347,27.322444 Z" id="Shape" fill="#2B3D6B"></path>
                    <path d="M226.09353,45.1111111 L117.684248,45.1111111 C117.101718,45.059135 116.666667,44.7266077 116.666667,44.3333333 C116.666667,43.9400589 117.101718,43.6075317 117.684248,43.5555556 L226.09353,43.5555556 C226.676059,43.6075317 227.111111,43.9400589 227.111111,44.3333333 C227.111111,44.7266077 226.676059,45.059135 226.09353,45.1111111 L226.09353,45.1111111 Z" id="Shape" fill="#2B3D6B"></path>
                    <path d="M262.016998,107.12568 C248.627126,105.0381 235.06601,104.072721 221.493938,104.240951 C207.920028,104.091911 194.3589,105.076729 180.970879,107.183762 C167.882265,109.239692 154.624804,110.198593 141.355206,110.049131 C128.076876,110.180861 114.812417,109.202516 101.71891,107.12568 C88.335825,105.039245 74.7816651,104.073869 61.2164729,104.240951 C47.6494143,104.092241 34.0951646,105.07706 20.7140357,107.183762 C18.4661917,107.512892 16.1977253,107.842022 13.8055243,108.151792 C13.0218723,108.248595 12.4444444,108.635807 12.4444444,109.100461 L12.4444444,109.100461 C12.4444444,109.72 12.7125359,110.184655 13.8055243,110.049131 C16.2389701,109.739361 19.3323335,109.410231 21.6007999,109.06174 C34.6887566,106.999021 47.9462511,106.033638 61.2164729,106.177011 C74.4860816,106.027242 87.7435719,106.986145 100.832146,109.042379 C114.220088,111.150023 127.781273,112.134845 141.355206,111.98519 C154.929116,112.134231 168.490244,111.149413 181.878265,109.042379 C194.966879,106.98645 208.22434,106.027549 221.493938,106.177011 C234.76919,106.013606 248.033599,106.959553 261.130234,109.003658 L267.048869,109.836164 C268.141857,109.991049 269.111111,109.991049 269.111111,109.158543 C269.111111,108.326037 268.574928,108.054989 267.791276,107.958186 L262.016998,107.12568 Z" id="Shape" fill="#2B3D6B"></path>
                    <path d="M9.84195649,99.5554868 C9.43742782,99.5487074 9.07405284,99.3038084 8.91227472,98.9289215 C3.97403909,87.1638382 0.966482864,74.6634502 0.00798932339,61.9197973 C-0.0649122071,61.3030448 0.3692014,60.7427971 0.978990283,60.6666667 C1.58371918,60.6666667 2.07394881,61.162257 2.07394881,61.7735987 C3.01939904,74.1939218 5.95698629,86.376082 10.7716383,97.8428749 C11.0355562,98.4123157 10.8411313,99.0913098 10.3171272,99.4301737 C10.1727097,99.5142437 10.0085939,99.5575247 9.84195649,99.5554868 Z" id="Shape" fill="#2B3D6B"></path>
                    <path d="M303.665548,34.2222222 L303.535782,34.2222222 C302.901281,34.112465 302.478878,33.5617136 302.584166,32.9814565 C302.90858,30.1060311 302.886953,25.1035788 301.437901,23.6658661 C299.988849,22.2281534 295.187513,22.4054057 293.695206,22.641742 C293.391913,22.6748393 293.087128,22.5919218 292.853476,22.4127474 C292.619824,22.2335729 292.478229,21.974187 292.462431,21.6963967 C292.353375,21.1239549 292.750689,20.5726339 293.370792,20.4359362 C294.062876,20.3374628 300.205125,19.4905909 302.886953,22.0312065 C305.56878,24.571822 304.811812,32.370921 304.725302,33.2374875 C304.694251,33.7617085 304.240474,34.1833629 303.665548,34.2222222 L303.665548,34.2222222 Z" id="Shape" fill="#2B3D6B"></path>
                    <path d="M196.512765,23.3333333 L153.487235,23.3333333 C152.911318,23.3333333 152.444444,22.9851104 152.444444,22.5555556 C152.444444,22.1260008 152.911318,21.7777778 153.487235,21.7777778 L196.512765,21.7777778 C197.088682,21.7777778 197.555556,22.1260008 197.555556,22.5555556 C197.555556,22.9851104 197.088682,23.3333333 196.512765,23.3333333 Z" id="Shape" fill="#2B3D6B"></path>
                </g>
            </g>
        </g>
    </g>
</svg>