<?xml version="1.0" encoding="UTF-8"?>
<svg width="179px" height="92px" viewBox="0 0 179 92" version="1.1" xmlns="http://www.w3.org/2000/svg" xmlns:xlink="http://www.w3.org/1999/xlink">
    <!-- Generator: Sketch 46 (44423) - http://www.bohemiancoding.com/sketch -->
    <title>Ship Silver@2x</title>
    <desc>Created with Sketch.</desc>
    <defs>
        <linearGradient x1="87.0347167%" y1="25.6260259%" x2="50%" y2="100%" id="linearGradient-1">
            <stop stop-color="#C8F5F9" offset="0%"></stop>
            <stop stop-color="#7CD2DE" offset="100%"></stop>
        </linearGradient>
        <linearGradient x1="110.721307%" y1="0%" x2="50%" y2="100%" id="linearGradient-2">
            <stop stop-color="#C8F5F9" offset="0%"></stop>
            <stop stop-color="#7CD2DE" offset="100%"></stop>
        </linearGradient>
    </defs>
    <g id="Guidelines" stroke="none" stroke-width="1" fill="none" fill-rule="evenodd">
        <g id="Logo-&amp;-Icons" transform="translate(-622.000000, -1645.000000)">
            <g id="Ship-Silver" transform="translate(622.000000, 1645.000000)">
                <path d="M41.7835821,45.9537313 C39.4376192,42.5813907 36.6140926,39.567819 33.4014925,37.0074627 C31.2656716,35.1940299 30.2985075,34.3208955 30.7149254,33.4208955 C31.1313433,32.5208955 32.2597015,32.4 36.2223881,32.7223881 C41.7819572,33.0528831 47.0927065,35.1414329 51.3880597,38.6865672 L50.5149254,39.7074627 C46.4224272,36.3416626 41.3649135,34.3657038 36.0746269,34.0656716 C34.7381096,33.8945158 33.3870681,33.867495 32.0447761,33.9850746 C32.7245957,34.7001302 33.4515997,35.3687944 34.2208955,35.9865672 C37.5333352,38.6264162 40.4430613,41.7352527 42.858209,45.2149254 L41.7835821,45.9537313 Z" id="Shape" fill="#2B3D6B" fill-rule="nonzero"></path>
                <path d="M110.774627,35.2746269 C96.938806,28.719403 87.2268657,26.3552239 62.9402985,31.2447761 C60.0656716,31.8358209 57.0970149,37.0880597 54.880597,41.8701493" id="Shape" fill="url(#linearGradient-1)" fill-rule="nonzero"></path>
                <path d="M148.198507,40.2985075 C121.171642,33.058209 106.019403,31.0298507 56.6,40.7820896 C50.0850746,42.1253731 42.6029851,51.2865672 37.6059701,58.5537313 L148.198507,40.2985075 Z" id="Shape" fill="url(#linearGradient-1)" fill-rule="nonzero"></path>
                <path d="M28.1089552,60.7701493 L28.9955224,59.4268657 C34.1537313,51.9179104 41.7164179,42.6895522 48.419403,41.3731343 C96.858209,31.8089552 116.376119,33.4074627 144.356716,40.9029851 L147.40597,41.7223881 L28.1089552,60.7701493 Z M102.607463,36.1343284 C88.5567164,36.1343284 71.9940299,38.1358209 48.661194,42.7432836 C42.7641791,43.9119403 35.9537313,51.9179104 30.9835821,58.9567164 L140.891045,41.4940299 C128.424504,38.0152128 115.550053,36.2127896 102.607463,36.1343284 L102.607463,36.1343284 Z" id="Shape" fill="#2B3D6B" fill-rule="nonzero"></path>
                <circle id="Oval" fill="#73AAD8" fill-rule="nonzero" cx="19.2701493" cy="47.7671642" r="2.59253731"></circle>
                <path d="M41.138806,15.958209 C39.1431621,15.958209 37.5253731,14.34042 37.5253731,12.3447761 C37.5253731,10.3491323 39.1431621,8.73134328 41.138806,8.73134328 C43.1344498,8.73134328 44.7522388,10.3491323 44.7522388,12.3447761 C44.7448724,14.3373607 43.1313906,15.9508426 41.138806,15.958209 L41.138806,15.958209 Z M41.138806,10.061194 C39.8850372,10.061194 38.8686567,11.0775745 38.8686567,12.3313433 C38.8686567,13.5851121 39.8850372,14.6014925 41.138806,14.6014925 C42.3925748,14.6014925 43.4089552,13.5851121 43.4089552,12.3313433 C43.4089552,11.7292623 43.1697795,11.1518409 42.7440439,10.7261054 C42.3183083,10.3003698 41.740887,10.061194 41.138806,10.061194 L41.138806,10.061194 Z" id="Shape" fill="#73AAD8" fill-rule="nonzero"></path>
                <path d="M12.1776119,32.9373134 C10.5158119,32.9373134 9.16865672,31.5901583 9.16865672,29.9283582 C9.16865672,28.2665581 10.5158119,26.919403 12.1776119,26.919403 C13.839412,26.919403 15.1865672,28.2665581 15.1865672,29.9283582 C15.1792112,31.5871018 13.8363555,32.9299575 12.1776119,32.9373134 Z M12.1776119,28.2492537 C11.2576869,28.2492537 10.5119403,28.9950003 10.5119403,29.9149254 C10.5119403,30.8348504 11.2576869,31.580597 12.1776119,31.580597 C13.097537,31.580597 13.8432836,30.8348504 13.8432836,29.9149254 C13.8504607,29.4672823 13.6785722,29.0353092 13.3658061,28.7149762 C13.0530401,28.3946432 12.6252987,28.2124793 12.1776119,28.2089552 L12.1776119,28.2492537 Z" id="Shape" fill="#73AAD8" fill-rule="nonzero"></path>
                <path d="M21.9029851,15.5686567 C21.6342779,15.564882 21.3936869,15.4013008 21.2913666,15.1528087 C21.1890463,14.9043165 21.2446957,14.6187539 21.4328358,14.4268657 L26.5373134,9.30895522 C26.7076811,9.13858753 26.9559975,9.07205137 27.1887241,9.13441027 C27.4214507,9.19676918 27.6032308,9.37854935 27.6655897,9.61127595 C27.7279486,9.84400255 27.6614125,10.0923189 27.4910448,10.2626866 L22.3731343,15.380597 C22.2469553,15.5022214 22.078235,15.5697095 21.9029851,15.5686567 L21.9029851,15.5686567 Z" id="Shape" fill="#73AAD8" fill-rule="nonzero"></path>
                <path d="M27.0208955,15.5686567 C26.8437371,15.5661333 26.6747518,15.4937111 26.5507463,15.3671642 L21.4328358,10.2492537 C21.2624681,10.078886 21.195932,9.83056971 21.2582909,9.59784311 C21.3206498,9.3651165 21.5024299,9.18333633 21.7351565,9.12097743 C21.9678831,9.05861853 22.2161995,9.12515469 22.3865672,9.29552239 L27.5044776,14.4134328 C27.6926177,14.6053211 27.7482672,14.8908837 27.6459468,15.1393758 C27.5436265,15.387868 27.3030356,15.5514492 27.0343284,15.5552239 L27.0208955,15.5686567 Z" id="Shape" fill="#73AAD8" fill-rule="nonzero"></path>
                <circle id="Oval" fill="#73AAD8" fill-rule="nonzero" cx="140.461194" cy="28.880597" r="2.76716418"></circle>
                <circle id="Oval" fill="#73AAD8" fill-rule="nonzero" cx="160.422388" cy="2.25671642" r="2.25671642"></circle>
                <path d="M166.265672,31.2044776 C164.804174,31.2044776 163.486586,30.324093 162.927295,28.9738457 C162.368004,27.6235983 162.677154,26.0693965 163.710589,25.0359619 C164.744023,24.0025274 166.298225,23.6933774 167.648473,24.2526681 C168.99872,24.8119589 169.879104,26.1295476 169.879104,27.5910448 C169.871738,29.5836294 168.258256,31.1971112 166.265672,31.2044776 L166.265672,31.2044776 Z M166.265672,25.3074627 C165.011903,25.3074627 163.995522,26.3238431 163.995522,27.5776119 C163.995522,28.8313808 165.011903,29.8477612 166.265672,29.8477612 C167.51944,29.8477612 168.535821,28.8313808 168.535821,27.5776119 C168.535821,26.3238431 167.51944,25.3074627 166.265672,25.3074627 Z" id="Shape" fill="#73AAD8" fill-rule="nonzero"></path>
                <path d="M146.492537,17.6507463 C146.22383,17.6469716 145.983239,17.4833904 145.880919,17.2348982 C145.778599,16.986406 145.834248,16.7008435 146.022388,16.5089552 L151.140299,11.3910448 C151.310666,11.2206771 151.558983,11.1541409 151.791709,11.2164998 C152.024436,11.2788587 152.206216,11.4606389 152.268575,11.6933655 C152.330934,11.9260921 152.264398,12.1744084 152.09403,12.3447761 L146.962687,17.4626866 C146.836508,17.5843109 146.667787,17.6517991 146.492537,17.6507463 Z" id="Shape" fill="#73AAD8" fill-rule="nonzero"></path>
                <path d="M151.597015,17.6507463 C151.419856,17.6482229 151.250871,17.5758006 151.126866,17.4492537 L146.008955,12.3313433 C145.838588,12.1609756 145.772051,11.9126593 145.83441,11.6799326 C145.896769,11.447206 146.078549,11.2654258 146.311276,11.2030669 C146.544003,11.140708 146.792319,11.2072442 146.962687,11.3776119 L152.134328,16.5089552 C152.322468,16.7008435 152.378118,16.986406 152.275798,17.2348982 C152.173477,17.4833904 151.932886,17.6469716 151.664179,17.6507463 L151.597015,17.6507463 Z" id="Shape" fill="#73AAD8" fill-rule="nonzero"></path>
                <path d="M162.880597,87.8104478 C154.160036,86.3485386 145.326719,85.6652489 136.485075,85.7686567 C127.643431,85.6652489 118.810113,86.3485386 110.089552,87.8104478 C101.564016,89.2368997 92.9284983,89.9022077 84.2850746,89.7985075 C75.6506075,89.900827 67.0241318,89.235523 58.5074627,87.8104478 C49.7913221,86.3493328 40.9625352,85.6660459 32.1253731,85.7686567 C23.2792288,85.6638823 14.44133,86.3471786 5.71641791,87.8104478 C4.25223881,88.038806 2.77462687,88.2671642 1.21641791,88.4820896 C0.705970149,88.5492537 0.329850746,88.8179104 0.329850746,89.1402985 L0.343283582,89.1402985 C0.343283582,89.5701493 0.517910448,89.8925373 1.22985075,89.7985075 C2.81492537,89.5835821 4.82985075,89.3552239 6.30746269,89.1134328 C14.8329727,87.6867692 23.4685097,87.0214597 32.1119403,87.1253731 C40.7553709,87.0214597 49.3909079,87.6867692 57.9164179,89.1134328 C66.6325067,90.5749708 75.4613314,91.2582607 84.2985075,91.1552239 C93.1401514,91.2586317 101.973469,90.575342 110.69403,89.1134328 C119.223986,87.6861863 127.864035,87.0208755 136.51194,87.1253731 C145.159846,87.0208755 153.799894,87.6861863 162.329851,89.1134328 L166.185075,89.6910448 C166.897015,89.7985075 167.528358,89.7985075 167.528358,89.2208955 C167.528358,88.6432836 167.179104,88.4552239 166.668657,88.3880597 L162.880597,87.8104478 Z" id="Shape" fill="#2B3D6B" fill-rule="nonzero"></path>
                <path d="M54.880597,83.8880597 L58.6149254,84.4522388 C61.3014925,84.8820896 64.1492537,85.3119403 67.480597,85.661194 L63.880597,85.1238806 C61.0865672,84.6268657 58.2522388,84.2507463 54.880597,83.8880597 Z" id="Shape"></path>
                <path d="M18.1014925,73.4776119 L15.5492537,78.3402985 C15.0177227,79.3310392 15.0745097,80.533891 15.6970149,81.4701493 C16.3297737,82.4043168 17.4214537,82.9192602 18.5447761,82.8134328 C22.0104478,82.5447761 25.7716418,82.4104478 29.9089552,82.3701493 C28.389826,82.1334411 26.8500404,82.056902 25.3149254,82.141791 C23.9472887,82.2482117 22.6295744,81.6042828 21.8731676,80.4599034 C21.1167607,79.315524 21.0407473,77.8508612 21.6746269,76.6343284 L31.158209,65.1492537 C31.6785942,63.9631522 32.8324347,63.1800025 34.1268657,63.1343284 L170.671642,38.3238806 C170.381463,38.228254 170.077098,38.1828264 169.771642,38.1895522 L26.1746269,61.0253731 C25.0850751,61.0428715 24.1140151,61.7167765 23.7164179,62.7313433 L23.4746269,63.2014925" id="Shape"></path>
                <path d="M175.091045,37.5179104 C176.181158,37.4397012 177.236179,37.9214307 177.891058,38.7964141 C178.545937,39.6713976 178.710708,40.8194324 178.328358,41.8432836 L153.746269,81.4701493 C153.032693,82.6295511 151.7483,83.3128482 150.38806,83.2567164 L147.701493,83.1626866 C148.241333,82.8175926 148.699682,82.3592437 149.044776,81.819403 L173.586567,42.0850746 C174.058789,40.881311 173.886734,39.5200537 173.129851,38.4716418 C172.984486,38.2871661 172.822623,38.1163114 172.646269,37.961194 L175.091045,37.5179104 Z M31.1447761,65.2029851 C31.651227,63.9916119 32.8148411,63.1844201 34.1268657,63.1343284 L170.685075,38.3373134 C171.223634,38.4953779 171.695502,38.8256859 172.028358,39.2776119 C172.503622,39.9185553 172.634146,40.7519003 172.377612,41.5074627 L147.902985,81.1208955 C147.31446,82.0747507 146.255509,82.6350697 145.135821,82.5850746 C142.422388,82.4104478 139.601493,82.4104478 136.51194,82.4104478 C127.63901,82.3040879 118.77421,82.9873787 110.022388,84.4522388 C101.528243,85.876799 92.9241122,86.5421132 84.3119403,86.4402985 C78.691611,86.4810498 73.0731282,86.2209764 67.480597,85.661194 L63.880597,85.1238806 C61.0865672,84.6940299 58.238806,84.2641791 54.8671642,83.9014925 C47.331102,82.8271388 39.7236574,82.3331489 32.1119403,82.4238806 L29.8955224,82.4238806 C28.3763932,82.1871724 26.8366076,82.1106334 25.3014925,82.1955224 C23.9338558,82.301943 22.6161416,81.6580141 21.8597347,80.5136347 C21.1033279,79.3692554 21.0273144,77.9045925 21.661194,76.6880597 L31.1447761,65.2029851 Z" id="Combined-Shape" fill="url(#linearGradient-2)" fill-rule="nonzero"></path>
                <path d="M106.623881,86.319403 C109.955224,85.9701493 112.749254,85.5402985 115.502985,85.1104478 L119.210448,84.5462687 C115.838806,84.9089552 113.01791,85.338806 110.223881,85.7686567 L106.623881,86.319403 Z" id="Shape" fill="#78D2DF" fill-rule="nonzero"></path>
                <path d="M149.044776,81.819403 L173.626866,42.0985075 C174.099088,40.8947439 173.927033,39.5334866 173.170149,38.4850746 C173.024784,38.300599 172.862922,38.1297442 172.686567,37.9746269 C171.894243,37.2163407 170.82709,36.813733 169.731343,36.8597015 L26.0940299,59.6955224 C24.5294904,59.7644471 23.1465655,60.7335422 22.5477612,62.180597 L22.3597015,62.5298507 L23.5149254,63.2014925 L23.7567164,62.7313433 C24.1543136,61.7167765 25.1253736,61.0428715 26.2149254,61.0253731 L169.81194,38.1895522 C170.117396,38.1828264 170.421761,38.228254 170.71194,38.3238806 C171.250499,38.4819451 171.722368,38.8122531 172.055224,39.2641791 C172.530488,39.9051224 172.661012,40.7384674 172.404478,41.4940299 L147.902985,81.1208955 C147.31446,82.0747507 146.255509,82.6350697 145.135821,82.5850746 C142.449254,82.4641791 139.614925,82.4104478 136.51194,82.4104478 C127.63901,82.3040879 118.77421,82.9873787 110.022388,84.4522388 C101.528243,85.876799 92.9241122,86.5421132 84.3119403,86.4402985 C78.7005692,86.4800917 73.0910801,86.2200195 67.5074627,85.661194 C64.1761194,85.3119403 61.3820896,84.8820896 58.641791,84.4522388 L54.9074627,83.8880597 C47.3714005,82.813706 39.7639559,82.3197161 32.1522388,82.4104478 L29.8955224,82.4104478 C25.758209,82.4104478 21.9970149,82.5850746 18.5313433,82.8537313 C17.4080209,82.9595587 16.3163409,82.4446153 15.6835821,81.5104478 C15.0610769,80.5741895 15.0042899,79.3713377 15.5358209,78.380597 L18.0880597,73.5179104 L16.919403,72.8462687 L14.3402985,77.7626866 C13.5936708,79.195242 13.6827827,80.9200494 14.5730666,82.268034 C15.4633504,83.6160186 17.0147176,84.3750715 18.6253731,84.2507463 C22.6552239,83.941791 27.0880597,83.7940299 32.058209,83.7940299 C40.8637153,83.6890097 49.6610995,84.3678063 58.3462687,85.8223881 C66.9071014,87.2569438 75.5786222,87.9267502 84.258209,87.8238806 C91.7217364,87.9137688 99.1811039,87.4287527 106.570149,86.3731343 L110.170149,85.8358209 C112.950746,85.4059701 115.785075,84.9761194 119.156716,84.6134328 C124.905206,84.034051 130.680752,83.7650039 136.458209,83.8074627 C139.534328,83.8074627 142.341791,83.8074627 145.028358,83.9820896 C146.65274,84.0682746 148.195869,83.2658477 149.058209,81.8865672 L149.044776,81.819403 Z" id="Shape" fill="#2B3D6B" fill-rule="nonzero"></path>
                <path d="M59.3268657,30.2776119 L57.4462687,30.6537313 C54.8671642,31.1776119 52.0731343,34.8850746 48.9701493,41.6686567 L50.1925373,42.219403 C52.9731343,36.0402985 55.6462687,32.4 57.7149254,31.9701493 L59.5283582,31.6074627 L59.3268657,30.2776119 Z" id="Shape" fill="#2B3D6B" fill-rule="nonzero"></path>
                <path d="M69.4820896,28.638806 L69.6835821,29.9820896 C85.0910448,28.2089552 93.6477612,30.6134328 105.119403,36.0537313 L105.697015,34.8447761 C93.9567164,29.2835821 85.2253731,26.758209 69.4820896,28.638806 Z" id="Shape" fill="#2B3D6B" fill-rule="nonzero"></path>
                <path d="M31.6552239,30.1298507 C37.5222253,29.4518902 43.4580108,30.5417547 48.7014925,33.2597015" id="Shape" stroke="#2B3D6B" stroke-linecap="round"></path>
                <path d="M75.4328358,25.4283582 C75.4328358,25.4283582 84.1104478,25.1731343 88.3552239,26.1268657" id="Shape" stroke="#2B3D6B" stroke-linecap="round"></path>
            </g>
        </g>
    </g>
</svg>