<?xml version="1.0" encoding="UTF-8"?>
<svg width="286px" height="107px" viewBox="0 0 286 107" version="1.1" xmlns="http://www.w3.org/2000/svg" xmlns:xlink="http://www.w3.org/1999/xlink">
    <!-- Generator: Sketch 46 (44423) - http://www.bohemiancoding.com/sketch -->
    <title>Ship Sign Up@8x</title>
    <desc>Created with Sketch.</desc>
    <defs>
        <linearGradient x1="112.5671%" y1="24.4635114%" x2="5.17437381%" y2="96.112591%" id="linearGradient-1">
            <stop stop-color="#A8DBFB" offset="0%"></stop>
            <stop stop-color="#66A9E8" offset="100%"></stop>
        </linearGradient>
    </defs>
    <g id="Guidelines" stroke="none" stroke-width="1" fill="none" fill-rule="evenodd">
        <g id="Logo-&amp;-Icons" transform="translate(-1432.000000, -2059.000000)">
            <g id="Ship-Sign-Up" transform="translate(1432.000000, 2060.000000)">
                <path d="M66.9216721,33.4845704 C63.1643169,28.0918635 58.6420832,23.2728638 53.4966994,19.1786002 C50.0759131,16.2787414 48.5268778,14.8825131 49.1938236,13.4433239 C49.8607693,12.0041347 51.6679772,11.8108108 58.0147191,12.3263413 C66.9190697,12.8548356 75.4249039,16.1946337 82.3044533,21.8636547 L80.9060187,23.4961678 C74.3513671,18.1139199 66.2511216,14.9541659 57.7780609,14.4743848 C55.63746,14.2006897 53.4735969,14.1574808 51.3237471,14.3455022 C52.4125639,15.488947 53.5769524,16.5582073 54.8090766,17.5460871 C60.1143662,21.7674674 64.7746592,26.738805 68.6428225,32.3031464 L66.9216721,33.4845704 Z" id="Shape" fill="#2B3D6B" fill-rule="nonzero"></path>
                <path d="M177.419524,16.407624 C155.259714,5.92517144 139.704817,2.14461476 100.80682,9.96349334 C96.2027424,10.9086325 91.4480646,19.3074829 87.898192,26.954518" id="Shape" fill="url(#linearGradient-1)" fill-rule="nonzero"></path>
                <path d="M237.358585,24.441307 C194.071654,12.8633522 169.803434,9.61980637 90.6520325,25.2146027 C80.2175585,27.3626462 68.2340493,42.0123033 60.2307002,53.633219 L237.358585,24.441307 Z" id="Shape" fill="url(#linearGradient-1)" fill-rule="nonzero"></path>
                <path d="M45.020034,57.1774909 L46.439983,55.0294474 C54.7015047,43.0218838 66.8141002,28.2648245 77.5497755,26.1597418 C155.130627,10.8656716 186.391021,13.4218435 231.205473,25.4079266 L236.089237,26.7182332 L45.020034,57.1774909 Z M164.338782,17.7823719 C141.834741,17.7823719 115.307511,20.9829568 77.9370343,28.3507463 C68.4922218,30.2195442 57.5844315,43.0218838 49.6241112,54.2776321 L225.654763,26.3530658 C205.688027,20.7900926 185.067971,17.9078392 164.338782,17.7823719 L164.338782,17.7823719 Z" id="Shape" fill="#2B3D6B" fill-rule="nonzero"></path>
                <path d="M260.873802,100.417608 C246.906725,98.0798703 232.759053,96.9872223 218.598046,97.1525817 C204.437039,96.9872223 190.289368,98.0798703 176.322291,100.417608 C162.667571,102.698646 148.836701,103.762539 134.993168,103.596712 C121.163981,103.760331 107.347593,102.696444 93.7070744,100.417608 C79.7470769,98.0811403 65.6066621,96.9884968 51.4528334,97.1525817 C37.2846185,96.985037 23.1296098,98.0776955 9.15556365,100.417608 C6.8104963,100.782775 4.44391457,101.147943 1.94824657,101.49163 C1.13070016,101.599032 0.528297537,102.028641 0.528297537,102.544171 L0.549811916,102.544171 C0.549811916,103.231545 0.829498847,103.747075 1.96976095,103.596712 C4.50845771,103.253025 7.73561461,102.887858 10.1021963,102.50121 C23.756875,100.219834 37.5877757,99.1559379 51.431319,99.3221057 C65.2748623,99.1559379 79.105763,100.219834 92.7604417,102.50121 C106.720356,104.838354 120.860832,105.931003 135.014683,105.766236 C149.17569,105.931596 163.323361,104.838948 177.290438,102.50121 C190.952238,100.218901 204.790365,99.1550037 218.641075,99.3221057 C232.491785,99.1550037 246.329912,100.218901 259.991712,102.50121 L266.166339,103.424869 C267.306601,103.596712 268.317777,103.596712 268.317777,102.673054 C268.317777,101.749395 267.758403,101.448669 266.940857,101.341267 L260.873802,100.417608 Z" id="Shape" fill="#2B3D6B" fill-rule="nonzero"></path>
                <path d="M87.898192,94.1453207 L93.8791894,95.047499 C98.1820653,95.7348729 102.743114,96.4222469 108.07868,96.9807382 L102.312826,96.1215208 C97.8378352,95.3267447 93.2983012,94.7252925 87.898192,94.1453207 Z" id="Shape"></path>
                <path d="M28.9918214,77.4979831 L24.9040893,85.2739008 C24.0527754,86.8581932 24.1437269,88.7816726 25.1407475,90.2788423 C26.1541904,91.7726687 27.9026535,92.5961143 29.7017959,92.4268858 C35.2525058,91.9972771 41.276532,91.7824728 47.9029608,91.7180315 C45.4698839,91.3395116 43.0037233,91.2171181 40.5450431,91.3528641 C38.3546006,91.5230412 36.2441151,90.4933351 35.0326342,88.663359 C33.8211534,86.833383 33.6994082,84.491242 34.7146463,82.5458854 L49.9037981,64.1801129 C50.7372606,62.283419 52.5852816,61.0310851 54.6584759,60.9580476 L273.352142,21.2836829 C272.887383,21.1307665 272.399904,21.0581233 271.910678,21.0688786 L41.9219634,57.5856192 C40.1769088,57.6136008 38.6216339,58.6912417 37.9848319,60.3136345 L37.5975731,61.0654498" id="Shape"></path>
                <path d="M280.430373,19.9948568 C282.176325,19.8697925 283.866075,20.6401256 284.914946,22.0393109 C285.963817,23.4384961 286.227719,25.2743176 285.615338,26.9115571 L246.244024,90.2788423 C245.101142,92.1328407 243.044025,93.2255004 240.865429,93.1357402 L236.562553,92.9853772 C237.427176,92.4335377 238.16128,91.7005923 238.713991,90.8373336 L278.020762,27.2982049 C278.777085,25.3732676 278.501518,23.1964823 277.289273,21.5199677 C277.056453,21.2249729 276.797209,20.9517592 276.514755,20.7037112 L280.430373,19.9948568 Z M49.8822837,64.2660347 C50.6934286,62.3289289 52.5571033,61.0381492 54.6584759,60.9580476 L273.373656,21.3051634 C274.236226,21.5579242 274.991983,22.0861193 275.525094,22.8087939 C276.28629,23.8337258 276.49534,25.166327 276.084468,26.3745462 L236.885269,89.7203509 C235.942672,91.24566 234.246628,92.1416655 232.453307,92.0617184 C228.107402,91.7824728 223.589382,91.7824728 218.641075,91.7824728 C204.429959,91.6123928 190.231865,92.7050426 176.214719,95.047499 C162.610275,97.3255119 148.829676,98.3894153 135.036197,98.2266035 C126.034531,98.2917688 117.035823,97.8758856 108.07868,96.9807382 L102.312826,96.1215208 C97.8378352,95.4341468 93.2767868,94.7467729 87.8766776,94.1668011 C75.8067243,92.4488031 63.6224431,91.6588643 51.431319,91.8039532 L47.8814464,91.8039532 C45.4483696,91.4254334 42.9822089,91.3030398 40.5235287,91.4387858 C38.3330862,91.6089629 36.2226008,90.5792568 35.0111199,88.7492808 C33.799639,86.9193048 33.6778938,84.5771637 34.6931319,82.6318072 L49.8822837,64.2660347 Z" id="Combined-Shape" fill="url(#linearGradient-1)" fill-rule="nonzero"></path>
                <path d="M170.771581,98.0332795 C176.107147,97.4747882 180.582138,96.7874143 184.992586,96.1000403 L190.930555,95.197862 C185.530445,95.7778338 181.012426,96.4652077 176.537435,97.1525817 L170.771581,98.0332795 Z" id="Shape" fill="#78D2DF" fill-rule="nonzero"></path>
                <path d="M238.713991,90.8373336 L278.085305,27.3196854 C278.841628,25.3947481 278.566061,23.2179628 277.353816,21.5414482 C277.120996,21.2464533 276.861753,20.9732396 276.579299,20.7251916 C275.310292,19.5126168 273.601112,18.8688072 271.846135,18.9423154 L41.7928771,55.4590561 C39.28707,55.5692735 37.0721416,57.1189526 36.1130809,59.4329367 L35.8118796,59.991428 L37.6621162,61.0654498 L38.0493751,60.3136345 C38.6861771,58.6912417 40.241452,57.6136008 41.9865065,57.5856192 L271.975221,21.0688786 C272.464447,21.0581233 272.951926,21.1307665 273.416685,21.2836829 C274.279255,21.5364437 275.035012,22.0646389 275.568123,22.7873134 C276.329318,23.8122453 276.538369,25.1448466 276.127497,26.3530658 L236.885269,89.7203509 C235.942672,91.24566 234.246628,92.1416655 232.453307,92.0617184 C228.150431,91.8683945 223.610897,91.7824728 218.641075,91.7824728 C204.429959,91.6123928 190.231865,92.7050426 176.214719,95.047499 C162.610275,97.3255119 148.829676,98.3894153 135.036197,98.2266035 C126.048879,98.2902368 117.064575,97.8743555 108.121709,96.9807382 C102.786142,96.4222469 98.3111516,95.7348729 93.9222182,95.047499 L87.9412207,94.1453207 C75.8712675,92.4273227 63.6869863,91.6373838 51.4958622,91.7824728 L47.8814464,91.7824728 C41.2550176,91.7824728 35.2309914,92.0617184 29.6802815,92.4913271 C27.8811391,92.6605556 26.132676,91.8371101 25.1192331,90.3432836 C24.1222125,88.8461139 24.031261,86.9226345 24.8825749,85.3383421 L28.970307,77.5624244 L27.098556,76.4884026 L22.9677952,84.350242 C21.7719768,86.6410401 21.9147008,89.399178 23.3406026,91.5547391 C24.7665043,93.7103001 27.2512144,94.9241008 29.8308822,94.7252925 C36.285196,94.2312424 43.3849411,93.9949576 51.3452615,93.9949576 C65.4483895,93.82702 79.538509,94.9124831 93.4489018,97.2385034 C107.160154,99.5325001 121.048688,100.603587 134.95014,100.439088 C146.903919,100.582828 158.851036,99.8072397 170.685524,98.1192013 L176.451377,97.2599839 C180.904854,96.5726099 185.444388,95.885236 190.844497,95.3052642 C200.051428,94.3787753 209.301691,93.9485423 218.555018,94.0164381 C223.48181,94.0164381 227.978316,94.0164381 232.281192,94.2956837 C234.882844,94.4335022 237.354359,93.150342 238.735505,90.9447358 L238.713991,90.8373336 Z" id="Shape" fill="#2B3D6B" fill-rule="nonzero"></path>
                <path d="M95.0194515,8.41690198 L92.0074384,9.01835418 C87.8766776,9.85609117 83.4016867,15.7846914 78.4318651,26.6323114 L80.3896736,27.5130093 C84.8431501,17.6320089 89.1245116,11.8108108 92.437726,11.1234369 L95.3421672,10.5434651 L95.0194515,8.41690198 Z" id="Shape" fill="#2B3D6B" fill-rule="nonzero"></path>
                <path d="M111.284322,5.79628883 L111.607038,7.94433239 C136.284031,5.10891489 149.988691,8.95391287 168.361971,17.6534893 L169.287089,15.7202501 C150.483521,6.82734974 136.499175,2.78902783 111.284322,5.79628883 Z" id="Shape" fill="#2B3D6B" fill-rule="nonzero"></path>
                <path d="M50.6998301,8.18061718 C60.0965722,7.09649103 69.6034807,8.83929235 78.0015775,13.1855587" id="Shape" stroke="#2B3D6B" stroke-width="1.6" stroke-linecap="round"></path>
                <path d="M120.815192,0.662464704 C120.815192,0.662464704 134.713481,0.254336426 141.512025,1.77944736" id="Shape" stroke="#2B3D6B" stroke-width="1.6" stroke-linecap="round"></path>
            </g>
        </g>
    </g>
</svg>