<?xml version="1.0" encoding="UTF-8"?>
<svg width="77px" height="23px" viewBox="0 0 77 23" version="1.1" xmlns="http://www.w3.org/2000/svg" xmlns:xlink="http://www.w3.org/1999/xlink">
    <!-- Generator: Sketch 46.1 (44463) - http://www.bohemiancoding.com/sketch -->
    <title>Silver</title>
    <desc>Created with Sketch.</desc>
    <defs>
        <linearGradient x1="50%" y1="-34.1762783%" x2="50%" y2="100%" id="linearGradient-1">
            <stop stop-color="#F7F8F8" offset="0%"></stop>
            <stop stop-color="#C9C9C9" offset="100%"></stop>
        </linearGradient>
    </defs>
    <g id="SimCast" stroke="none" stroke-width="1" fill="none" fill-rule="evenodd">
        <g id="SimCast-Admin-Settings-Cancel-Subscription-Accept-Copy" transform="translate(-872.000000, -484.000000)" fill="url(#linearGradient-1)">
            <g id="Silver" transform="translate(822.000000, 341.000000)">
                <path d="M59.15,165.42 C63.71,165.42 66.95,163.02 66.95,158.97 C66.95,154.53 63.38,153.42 60.2,152.46 C56.93,151.47 56.42,150.81 56.42,149.85 C56.42,149.01 57.17,148.26 58.67,148.26 C60.59,148.26 61.58,149.19 62.3,150.69 L66.35,148.32 C64.82,145.23 62.12,143.58 58.67,143.58 C55.04,143.58 51.62,145.92 51.62,149.97 C51.62,153.99 54.68,155.49 57.8,156.36 C60.95,157.23 62.15,157.74 62.15,159.03 C62.15,159.84 61.58,160.74 59.3,160.74 C56.93,160.74 55.64,159.57 54.89,157.83 L50.75,160.23 C51.92,163.32 54.74,165.42 59.15,165.42 Z M71.45,148.68 C72.92,148.68 74.15,147.45 74.15,145.98 C74.15,144.51 72.92,143.28 71.45,143.28 C69.98,143.28 68.75,144.51 68.75,145.98 C68.75,147.45 69.98,148.68 71.45,148.68 Z M69.2,165 L73.7,165 L73.7,150 L69.2,150 L69.2,165 Z M77,165 L81.5,165 L81.5,143.1 L77,143.1 L77,165 Z M94.37,150 L91.25,159.51 L88.13,150 L83.15,150 L88.7,165 L93.8,165 L99.35,150 L94.37,150 Z M104.42,159.3 C104.99,160.86 106.37,161.4 108.02,161.4 C109.25,161.4 110.3,160.92 110.9,160.26 L114.5,162.33 C113.03,164.37 110.81,165.42 107.96,165.42 C102.83,165.42 99.65,161.97 99.65,157.5 C99.65,153.03 102.89,149.58 107.63,149.58 C112.01,149.58 115.25,152.97 115.25,157.5 C115.25,158.13 115.19,158.73 115.07,159.3 L104.42,159.3 Z M104.33,155.94 L110.78,155.94 C110.3,154.2 108.95,153.57 107.6,153.57 C105.89,153.57 104.75,154.41 104.33,155.94 Z M122.3,152.67 L122.3,150 L117.8,150 L117.8,165 L122.3,165 L122.3,158.22 C122.3,155.25 124.94,154.5 126.8,154.8 L126.8,149.7 C124.91,149.7 122.9,150.66 122.3,152.67 Z"></path>
            </g>
        </g>
    </g>
</svg>