<?xml version="1.0" encoding="UTF-8"?>
<svg width="389px" height="300px" viewBox="0 0 389 300" version="1.1" xmlns="http://www.w3.org/2000/svg" xmlns:xlink="http://www.w3.org/1999/xlink">
    <!-- Generator: Sketch 46.1 (44463) - http://www.bohemiancoding.com/sketch -->
    <title>Speedometer</title>
    <desc>Created with Sketch.</desc>
    <defs>
        <linearGradient x1="112.5671%" y1="24.4635114%" x2="5.17437381%" y2="96.112591%" id="linearGradient-1">
            <stop stop-color="#A8DBFB" offset="0%"></stop>
            <stop stop-color="#66A9E8" offset="100%"></stop>
        </linearGradient>
    </defs>
    <g id="Symbols" stroke="none" stroke-width="1" fill="none" fill-rule="evenodd">
        <g id="Speedometer">
            <g id="Speed_2" fill-rule="nonzero">
                <path d="M27.86931,208.283654 C27.86931,119.729574 99.4295545,47.9423077 187.70359,47.9423077 C275.977625,47.9423077 347.537869,119.729574 347.537869,208.283654 C347.537869,360 316.957001,275.610577 182.858384,275.610577 C48.7597668,275.610577 27.86931,360 27.86931,208.283654 Z" id="Shape" fill="url(#linearGradient-1)"></path>
                <path d="M321.370883,293.0625 C321.114828,293.060955 320.878922,292.922893 320.751562,292.70005 C320.624202,292.477206 320.624617,292.203224 320.752652,291.980769 C342.842602,253.567151 348.193398,207.724614 335.547063,165.230769 C335.472583,164.973126 335.540777,164.695193 335.725957,164.501664 C335.911137,164.308136 336.18517,164.228414 336.44483,164.29253 C336.70449,164.356645 336.910329,164.554857 336.98481,164.8125 C349.746847,207.687773 344.34921,253.942764 322.061001,292.701923 C321.921291,292.947415 321.651487,293.088383 321.370883,293.0625 Z" id="Shape" fill="#2B3D6B"></path>
                <path d="M26.0002396,171.807692 L25.82771,171.807692 C25.6425953,171.760168 25.4839583,171.640665 25.3868409,171.475583 C25.2897235,171.310501 25.2621176,171.113424 25.3101213,170.927885 C41.16373,109.34731 91.4108792,62.7307882 153.846352,51.679088 C216.281826,40.6273878 279.398396,67.1774033 315.303592,119.596154 C315.505301,119.922184 315.417187,120.349573 315.103108,120.568589 C314.789029,120.787605 314.358989,120.721539 314.12464,120.418269 C278.544528,68.4536751 215.985281,42.1284729 154.097714,53.0782448 C92.2101468,64.0280168 42.4028525,110.23424 26.6903579,171.274038 C26.6062414,171.587449 26.3237793,171.805871 26.0002396,171.807692 Z" id="Shape" fill="#2B3D6B"></path>
                <path d="M41.8298287,291.836538 C41.5694182,291.840175 41.3274128,291.702236 41.1972202,291.475962 C29.4377034,270.775942 22.4240657,247.707295 20.6662,223.947115 C20.3498958,219.822115 20.1917437,215.625 20.1917437,211.471154 C20.1917437,211.072872 20.5135942,210.75 20.9106169,210.75 C21.3076397,210.75 21.6294902,211.072872 21.6294902,211.471154 C21.6294902,215.596154 21.7876423,219.75 22.0895691,223.846154 C23.8311762,247.392911 30.7809373,270.254532 42.4336822,290.769231 C42.6275846,291.115814 42.5054138,291.554444 42.1605104,291.75 C42.059034,291.805636 41.9454654,291.835356 41.8298287,291.836538 Z" id="Shape" fill="#2B3D6B"></path>
                <path d="M116.434495,50.1490385 C116.037472,50.2286949 115.651252,49.9703976 115.571847,49.5721154 C115.492443,49.1738331 115.749923,48.7863873 116.146946,48.7067308 C136.854522,39.4268058 159.287153,34.65372 181.966981,34.7019231 C182.364004,34.7019231 182.685854,35.0247947 182.685854,35.4230769 C182.685854,35.8213592 182.364004,36.1442308 181.966981,36.1442308 C159.490631,36.095518 137.259008,40.824341 116.736422,50.0192308 C116.647382,50.0857621 116.543927,50.1302403 116.434495,50.1490385 Z" id="Shape" fill="#2B3D6B"></path>
                <path d="M329.048449,117.115385 C328.804038,117.114976 328.576577,116.990019 328.444595,116.783654 C316.370891,97.730849 300.405555,81.4641535 281.602814,69.0576923 C281.313737,68.8241017 281.249479,68.4081314 281.454519,68.097725 C281.65956,67.7873185 282.066469,67.6845582 282.393575,67.8605769 C301.325885,80.3875302 317.39806,96.7957977 329.55166,116.004808 C329.693486,116.226563 329.703471,116.508257 329.577706,116.739558 C329.451941,116.970859 329.210445,117.114946 328.947807,117.115385 L329.048449,117.115385 Z" id="Shape" fill="#2B3D6B"></path>
                <path d="M255.59398,254.927885 C255.337925,254.92634 255.102019,254.788278 254.974659,254.565434 C254.8473,254.34259 254.847715,254.068608 254.975749,253.846154 C267.108118,232.759898 269.626817,207.461478 261.891309,184.384615 C261.764262,184.006247 261.967028,183.5962 262.3442,183.46875 C262.721371,183.3413 263.130121,183.544709 263.257169,183.923077 C271.131785,207.402917 268.565664,233.145538 256.212211,254.596154 C256.077498,254.806881 255.843484,254.932448 255.59398,254.927885 Z" id="Shape" fill="#2B3D6B"></path>
                <path d="M108.23934,254.798077 C107.98406,254.796531 107.748747,254.659287 107.621109,254.4375 C86.4849993,217.672245 95.2216962,170.938627 128.200798,144.354325 C161.1799,117.770023 208.554207,119.27282 239.793146,147.894231 C240.001321,148.061936 240.099697,148.331567 240.048627,148.59446 C239.997558,148.857353 239.805457,149.070197 239.549742,149.147215 C239.294028,149.224233 239.016827,149.152736 238.829855,148.961538 C208.104667,120.874138 161.563979,119.423581 129.159956,145.543402 C96.7559326,171.663223 88.1462975,217.568646 108.871948,253.716346 C109.06826,254.059163 108.952827,254.496627 108.613154,254.697115 C108.500392,254.765127 108.370898,254.800101 108.23934,254.798077 Z" id="Shape" fill="#2B3D6B"></path>
                <ellipse id="Oval" fill="#FFFFFF" cx="181.952604" cy="211.456731" rx="9.99233824" ry="10.0240385"></ellipse>
                <path d="M181.952604,222.201923 C176.036965,222.201923 171.241392,217.391137 171.241392,211.456731 C171.241392,205.522325 176.036965,200.711538 181.952604,200.711538 C187.868242,200.711538 192.663815,205.522325 192.663815,211.456731 C192.663815,217.391137 187.868242,222.201923 181.952604,222.201923 Z M181.952604,202.168269 C176.83101,202.168269 172.679139,206.333313 172.679139,211.471154 C172.679139,216.608995 176.83101,220.774038 181.952604,220.774038 C187.074197,220.774038 191.226068,216.608995 191.226068,211.471154 C191.226068,206.333313 187.074197,202.168269 181.952604,202.168269 Z" id="Shape" fill="#2B3D6B"></path>
                <path d="M181.952604,60.9951923 L181.952604,78.3028846" id="Shape" fill="#78D2DF"></path>
                <path d="M181.952604,79.0240385 C181.555581,79.0240385 181.23373,78.7011669 181.23373,78.3028846 L181.23373,60.9951923 C181.23373,60.59691 181.555581,60.2740385 181.952604,60.2740385 C182.349626,60.2740385 182.671477,60.59691 182.671477,60.9951923 L182.671477,78.3028846 C182.671477,78.7011669 182.349626,79.0240385 181.952604,79.0240385 Z" id="Shape" fill="#2B3D6B"></path>
                <path d="M106.959746,81.1442308 L115.586225,96.1442308" id="Shape" fill="#78D2DF"></path>
                <path d="M115.586225,96.8653846 C115.330945,96.8638389 115.095631,96.7265946 114.967994,96.5048077 L106.341515,81.5192308 C106.207964,81.2873517 106.207872,81.0016119 106.341275,80.7696469 C106.474678,80.537682 106.721307,80.3947328 106.988261,80.3946469 C107.255215,80.3945611 107.501936,80.5373516 107.635486,80.7692308 L116.261965,95.7548077 C116.39,95.9772622 116.390415,96.2512443 116.263055,96.4740881 C116.135695,96.6969319 115.899789,96.8349934 115.643734,96.8365385 L115.586225,96.8653846 Z" id="Shape" fill="#2B3D6B"></path>
                <path d="M52.0665838,136.225962 L67.00477,144.879808" id="Shape" fill="#78D2DF"></path>
                <path d="M67.00477,145.600962 C66.8781864,145.599643 66.7541944,145.564815 66.6453334,145.5 L51.7071472,136.846154 C51.3617374,136.647013 51.2426527,136.204679 51.4411641,135.858173 C51.6396754,135.511668 52.0806107,135.392205 52.4260204,135.591346 L67.3785841,144.230769 C67.6558864,144.395794 67.7897397,144.725853 67.7060379,145.038211 C67.622336,145.35057 67.3415557,145.568814 67.0191475,145.572115 L67.00477,145.600962 Z" id="Shape" fill="#2B3D6B"></path>
                <path d="M296.138431,277.586538 L311.853001,286.6875" id="Shape" fill="#78D2DF"></path>
                <path d="M311.795491,287.408654 C311.668907,287.407335 311.544915,287.372507 311.436054,287.307692 L295.721485,278.206731 C295.498044,278.077909 295.360084,277.83929 295.359574,277.58076 C295.359063,277.32223 295.49608,277.083065 295.71901,276.953356 C295.941941,276.823648 296.216917,276.823101 296.440358,276.951923 L312.154927,286.052885 C312.43223,286.21791 312.566083,286.547968 312.482381,286.860327 C312.398679,287.172686 312.117899,287.39093 311.795491,287.394231 L311.795491,287.408654 Z" id="Shape" fill="#2B3D6B"></path>
                <path d="M31.9668876,211.456731 L49.2198457,211.456731" id="Shape" fill="#78D2DF"></path>
                <path d="M49.2198457,212.177885 L31.9668876,212.177885 C31.5698649,212.177885 31.2480143,211.855013 31.2480143,211.456731 C31.2480143,211.058448 31.5698649,210.735577 31.9668876,210.735577 L49.2198457,210.735577 C49.6168685,210.735577 49.938719,211.058448 49.938719,211.456731 C49.938719,211.855013 49.6168685,212.177885 49.2198457,212.177885 Z" id="Shape" fill="#2B3D6B"></path>
                <path d="M314.699739,211.456731 L331.952697,211.456731" id="Shape" fill="#78D2DF"></path>
                <path d="M331.923942,212.177885 L314.670984,212.177885 C314.273961,212.177885 313.952111,211.855013 313.952111,211.456731 C313.952111,211.058448 314.273961,210.735577 314.670984,210.735577 L331.923942,210.735577 C332.320965,210.735577 332.642815,211.058448 332.642815,211.456731 C332.642815,211.855013 332.320965,212.177885 331.923942,212.177885 Z" id="Shape" fill="#2B3D6B"></path>
                <path d="M52.0665838,286.6875 L67.00477,278.033654" id="Shape" fill="#78D2DF"></path>
                <path d="M52.0665838,287.408654 C51.7441756,287.405353 51.4633953,287.187109 51.3796934,286.87475 C51.2959916,286.562391 51.4298449,286.232333 51.7071472,286.067308 L66.6453334,277.413462 C66.9907432,277.21432 67.4316784,277.333783 67.6301898,277.680288 C67.8287011,278.026794 67.7096165,278.469128 67.3642067,278.668269 L52.4260204,287.322115 C52.3160221,287.382541 52.1919385,287.412416 52.0665838,287.408654 L52.0665838,287.408654 Z" id="Shape" fill="#2B3D6B"></path>
                <path d="M296.914814,144.879808 L311.853001,136.225962" id="Shape" fill="#78D2DF"></path>
                <path d="M296.914814,145.600962 C296.592406,145.59766 296.311626,145.379416 296.227924,145.067058 C296.144222,144.754699 296.278076,144.42464 296.555378,144.259615 L311.493564,135.605769 C311.838974,135.406628 312.279909,135.526091 312.47842,135.872596 C312.676932,136.219102 312.557847,136.661436 312.212437,136.860577 L297.274251,145.514423 C297.164006,145.574206 297.040098,145.604038 296.914814,145.600962 L296.914814,145.600962 Z" id="Shape" fill="#2B3D6B"></path>
                <path d="M248.33336,96.1442308 L256.959839,81.1442308" id="Shape" fill="#78D2DF"></path>
                <path d="M248.33336,96.8653846 C248.077305,96.8638395 247.841399,96.7257781 247.714039,96.5029343 C247.58668,96.2800905 247.587095,96.0061084 247.715129,95.7836538 L256.341608,80.7980769 C256.470022,80.5739271 256.707886,80.4355296 256.965599,80.4350176 C257.223312,80.4345056 257.46172,80.5719567 257.591019,80.7955946 C257.720317,81.0192324 257.720862,81.295081 257.592447,81.5192308 L248.965968,96.5048077 C248.835776,96.7310817 248.59377,96.869021 248.33336,96.8653846 Z" id="Shape" fill="#2B3D6B"></path>
                <path d="M174.706361,73.4423077 C174.32559,73.4429958 174.010334,73.1457143 173.987488,72.7644231 L173.383634,61.2259615 C173.371845,61.0346149 173.43649,60.8464343 173.563286,60.702998 C173.690082,60.5595616 173.868592,60.472676 174.059375,60.4615385 C174.250117,60.449712 174.437702,60.5145621 174.580685,60.6417604 C174.723668,60.7689587 174.810278,60.9480351 174.821381,61.1394231 L175.425234,72.6778846 C175.437023,72.8692312 175.372378,73.0574118 175.245582,73.2008482 C175.118786,73.3442845 174.940276,73.4311701 174.749493,73.4423077 L174.706361,73.4423077 Z" id="Shape" fill="#FFFFFF"></path>
                <path d="M167.474496,74.0192308 C167.103933,74.0210937 166.792675,73.740073 166.755623,73.3701923 L165.547916,61.8317308 C165.508214,61.4334485 165.797879,61.0782898 166.194902,61.0384616 C166.591924,60.9986334 166.94596,61.2892178 166.985662,61.6875 L168.193369,73.2259615 C168.235441,73.6197939 167.953008,73.9739553 167.560761,74.0192308 L167.474496,74.0192308 Z" id="Shape" fill="#FFFFFF"></path>
                <path d="M160.271386,75 C159.920698,74.9974947 159.622993,74.741509 159.56689,74.3942308 L157.769707,63 C157.706184,62.6017177 157.976538,62.2271867 158.373561,62.1634615 C158.770583,62.0997364 159.14393,62.3709485 159.207454,62.7692308 L161.004637,74.1634615 C161.033492,74.3528489 160.986039,74.5459708 160.872749,74.7002089 C160.75946,74.8544469 160.589646,74.9571225 160.400783,74.9855769 L160.271386,75 Z" id="Shape" fill="#FFFFFF"></path>
                <path d="M153.140163,76.2836538 C152.798506,76.2837238 152.503999,76.0425478 152.435668,75.7067308 L150.049008,64.4134615 C149.995074,64.1558181 150.082254,63.8888809 150.277707,63.7132028 C150.47316,63.5375246 150.747193,63.4797951 150.99658,63.5617605 C151.245967,63.6437258 151.432821,63.8529334 151.486755,64.1105769 L153.873414,75.4038462 C153.911585,75.5912866 153.873948,75.7862614 153.768786,75.9458574 C153.663624,76.1054535 153.499556,76.2165905 153.312693,76.2548077 L153.140163,76.2836538 Z" id="Shape" fill="#FFFFFF"></path>
                <path d="M146.095206,77.9855769 C145.771666,77.9837552 145.489204,77.7653332 145.405087,77.4519231 L142.414574,66.3461538 C142.347799,66.0885104 142.423112,65.8147007 142.612145,65.6278662 C142.801177,65.4410318 143.07521,65.3695572 143.331018,65.4403662 C143.586826,65.5111753 143.785546,65.7135104 143.852321,65.9711538 L146.828456,77.1201923 C146.929397,77.5022446 146.704977,77.8946185 146.325245,78 L146.095206,77.9855769 Z" id="Shape" fill="#FFFFFF"></path>
                <path d="M139.136512,80.0480769 C138.820961,80.0499937 138.541055,79.8452483 138.446394,79.5432692 L134.95267,68.5817308 C134.829593,68.1834485 135.05167,67.7604867 135.448693,67.6370192 C135.845715,67.5135517 136.26734,67.7363331 136.390417,68.1346154 L139.94165,79.1105769 C140.064428,79.4889218 139.858548,79.8955343 139.481572,80.0192308 L139.136512,80.0480769 Z" id="Shape" fill="#FFFFFF"></path>
                <path d="M132.292839,82.4855769 C131.993828,82.4876881 131.724738,82.3038965 131.617098,82.0240385 L127.490766,71.25 C127.381311,70.8887859 127.568092,70.5040229 127.919055,70.3677353 C128.270017,70.2314478 128.666359,70.3897699 128.82787,70.7307692 L132.954202,81.5048077 C133.039846,81.7274435 133.010156,81.9781649 132.8749,82.1744752 C132.739644,82.3707856 132.516339,82.4872611 132.278462,82.4855769 L132.292839,82.4855769 Z" id="Shape" fill="#FFFFFF"></path>
                <path d="M125.59294,85.2692308 C125.306192,85.2702325 125.046275,85.1001842 124.931577,84.8365385 L120.258901,74.2932692 C120.134229,74.0559385 120.151184,73.7687999 120.302913,73.5478938 C120.454643,73.3269877 120.716067,73.2088298 120.981536,73.2411709 C121.247005,73.273512 121.472638,73.4510061 121.56725,73.7019231 L126.239926,84.2451923 C126.401891,84.6076538 126.241187,85.0332601 125.88049,85.1971154 C125.790822,85.2413379 125.692803,85.2659203 125.59294,85.2692308 L125.59294,85.2692308 Z" id="Shape" fill="#FFFFFF"></path>
                <path d="M119.036816,88.3990385 C118.765122,88.4023212 118.514799,88.2516508 118.38983,88.0096154 L113.17081,77.7259615 C113.031881,77.4943408 113.033741,77.204228 113.17563,76.9744195 C113.317519,76.744611 113.575606,76.6137036 113.844208,76.6353017 C114.112811,76.6568998 114.346817,76.827376 114.450405,77.0769231 L119.669425,87.3605769 C119.784421,87.583234 119.77586,87.849833 119.646818,88.0646043 C119.517777,88.2793755 119.286783,88.4114798 119.036816,88.4134615 L119.036816,88.3990385 Z" id="Shape" fill="#FFFFFF"></path>
                <path d="M106.485289,95.6826923 C106.240878,95.6822838 106.013418,95.557327 105.881436,95.3509615 L99.6128609,85.6730769 C99.4574308,85.456633 99.4338007,85.1717953 99.5514271,84.9325546 C99.6690536,84.693314 99.908721,84.5387533 100.174515,84.5307272 C100.44031,84.5227011 100.68881,84.6625207 100.820568,84.8942308 L107.089143,94.5721154 C107.230968,94.7938703 107.240954,95.0755646 107.115189,95.3068655 C106.989423,95.5381664 106.747928,95.6822539 106.485289,95.6826923 L106.485289,95.6826923 Z" id="Shape" fill="#FFFFFF"></path>
                <path d="M100.446754,99.8076923 C100.217923,99.804319 100.004367,99.6918461 99.8716553,99.5048077 L93.1142467,90.1730769 C92.9627177,89.9643857 92.9336826,89.6904509 93.0380785,89.4544611 C93.1424743,89.2184713 93.364441,89.056279 93.6203658,89.0289804 C93.8762906,89.0016817 94.1272924,89.1134242 94.2788213,89.3221154 L101.03623,98.6538462 C101.191247,98.8722004 101.212737,99.1587942 101.092026,99.397955 C100.971315,99.6371157 100.728326,99.7893712 100.461131,99.7932692 L100.446754,99.8076923 Z" id="Shape" fill="#FFFFFF"></path>
                <path d="M94.6957678,104.235577 C94.4770348,104.234565 94.2706603,104.133705 94.1350467,103.961538 L86.9463141,94.9903846 C86.6961898,94.6797244 86.7444674,94.2244755 87.0541451,93.9735577 C87.3638229,93.7226399 87.8176321,93.7710706 88.0677564,94.0817308 L95.256489,103.052885 C95.426971,103.269306 95.4594564,103.564324 95.3401717,103.812855 C95.220887,104.061387 94.9707313,104.219887 94.6957678,104.221154 L94.6957678,104.235577 Z" id="Shape" fill="#FFFFFF"></path>
                <path d="M89.2323311,108.966346 C89.0283631,108.964029 88.8349793,108.874896 88.7003649,108.721154 L81.0084211,100.139423 C80.7701704,99.8417998 80.8043743,99.4094821 81.0864416,99.1532866 C81.3685089,98.8970911 81.8007282,98.9057671 82.0723535,99.1730769 L89.7642973,107.754808 C89.9496957,107.966477 89.9952232,108.267081 89.8808603,108.524439 C89.7664974,108.781797 89.5131934,108.948764 89.2323311,108.951923 L89.2323311,108.966346 Z" id="Shape" fill="#FFFFFF"></path>
                <path d="M83.9701789,113.942308 C83.7805622,113.939598 83.5996935,113.861837 83.4669676,113.725962 L75.3293223,105.5625 C75.0474362,105.27972 75.0474362,104.821242 75.3293224,104.538462 C75.6112085,104.255681 76.0682362,104.255681 76.3501224,104.538462 L84.4877676,112.701923 C84.6891382,112.907957 84.748701,113.214571 84.6391853,113.481381 C84.5296696,113.748192 84.2721597,113.923832 83.9845563,113.927885 L83.9701789,113.942308 Z" id="Shape" fill="#FFFFFF"></path>
                <path d="M78.966821,119.25 C78.7911426,119.247762 78.622363,119.181063 78.4923647,119.0625 L69.9377729,111.346154 C69.7295979,111.178448 69.6312219,110.908818 69.6822912,110.645925 C69.7333605,110.383032 69.9254615,110.170188 70.1811762,110.093169 C70.4368909,110.016151 70.7140911,110.087648 70.9010631,110.278846 L79.4556548,117.995192 C79.6742574,118.19447 79.7490994,118.507609 79.6443425,118.784663 C79.5395855,119.061716 79.276553,119.24629 78.9811985,119.25 L78.966821,119.25 Z" id="Shape" fill="#FFFFFF"></path>
                <path d="M74.2510125,124.788462 C74.0888604,124.787518 73.9317891,124.731606 73.805311,124.629808 L64.8625277,117.418269 C64.5528501,117.167351 64.5045725,116.712103 64.7546968,116.401442 C65.0048211,116.090782 65.4586303,116.042351 65.768308,116.293269 L74.7110913,123.504808 C74.9484952,123.695866 75.0402335,124.016197 74.9401206,124.30453 C74.8400076,124.592863 74.5697424,124.786703 74.2653899,124.788462 L74.2510125,124.788462 Z" id="Shape" fill="#FFFFFF"></path>
                <path d="M69.8371307,130.557692 C69.6863427,130.555621 69.5401963,130.505066 69.4201842,130.413462 L60.1179643,123.634615 C59.909933,123.482606 59.798544,123.230808 59.8257562,122.974071 C59.8529685,122.717334 60.014648,122.494663 60.2498915,122.389936 C60.485135,122.285209 60.7582035,122.314337 60.9662347,122.466346 L70.2540772,129.259615 C70.4996235,129.444234 70.601281,129.764856 70.5071695,130.057852 C70.413058,130.350849 70.143929,130.551616 69.8371307,130.557692 L69.8371307,130.557692 Z" id="Shape" fill="#FFFFFF"></path>
                <path d="M65.7251757,136.557692 C65.5874312,136.557334 65.4526893,136.517284 65.3369841,136.442308 L55.689705,130.153846 C55.4587277,130.02167 55.3193503,129.772381 55.327351,129.505744 C55.3353518,129.239106 55.4894236,128.998679 55.7279077,128.880679 C55.9663917,128.762679 56.2503287,128.786385 56.4660881,128.942308 L66.1133672,135.230769 C66.3807974,135.404058 66.5027545,135.733166 66.4131015,136.039619 C66.3234486,136.346072 66.0435427,136.556868 65.7251757,136.557692 L65.7251757,136.557692 Z" id="Shape" fill="#FFFFFF"></path>
                <path d="M58.4789332,149.163462 C58.364556,149.166163 58.2511879,149.14144 58.1482515,149.091346 L47.8971189,143.855769 C47.5744938,143.661024 47.456326,143.24954 47.626223,142.912455 C47.7961199,142.575371 48.1965101,142.426911 48.5441049,142.572115 L58.7521051,147.793269 C59.0568756,147.941079 59.2175543,148.282164 59.1378984,148.612221 C59.0582425,148.942278 58.7598385,149.171864 58.4214234,149.163462 L58.4789332,149.163462 Z" id="Shape" fill="#FFFFFF"></path>
                <path d="M315.691784,280.629808 C315.577353,280.633079 315.463852,280.608326 315.361102,280.557692 L305.10997,275.322115 C304.787344,275.12737 304.669177,274.715886 304.839074,274.378801 C305.008971,274.041717 305.409361,273.893257 305.756955,274.038462 L316.008088,279.274038 C316.312859,279.421849 316.473537,279.762933 316.393881,280.09299 C316.314225,280.423048 316.015822,280.652633 315.677406,280.644231 L315.691784,280.629808 Z" id="Shape" fill="#FFFFFF"></path>
                <path d="M55.3590233,155.769231 C55.2641929,155.789063 55.1663044,155.789063 55.071474,155.769231 L44.561547,151.081731 C44.2255336,150.904098 44.0852461,150.494894 44.2412668,150.147506 C44.3972874,149.800117 44.7957742,149.634427 45.1510231,149.769231 L55.6465726,154.326923 C56.0435953,154.40658 56.3010757,154.794025 56.2216712,155.192308 C56.1422666,155.59059 55.756046,155.848887 55.3590233,155.769231 Z" id="Shape" fill="#FFFFFF"></path>
                <path d="M319.070488,273.519231 C318.975617,273.538658 318.87781,273.538658 318.782939,273.519231 L308.273012,268.831731 C307.936998,268.654098 307.796711,268.244894 307.952732,267.897506 C308.108752,267.550117 308.507239,267.384427 308.862488,267.519231 L319.372415,272.206731 C319.769438,272.286387 320.026918,272.673833 319.947514,273.072115 C319.868109,273.470398 319.481888,273.728695 319.084866,273.649038 L319.070488,273.519231 Z" id="Shape" fill="#FFFFFF"></path>
                <path d="M52.5697951,162.447115 C52.4842406,162.462821 52.3965552,162.462821 52.3110007,162.447115 L41.5710343,158.307692 C41.2311133,158.145669 41.0732919,157.74807 41.2091485,157.395994 C41.345005,157.043917 41.7285513,156.856545 42.088623,156.966346 L52.8285895,161.105769 C53.2256122,161.17746 53.4895296,161.558448 53.4180655,161.956731 C53.3466014,162.355013 52.9668178,162.619768 52.5697951,162.548077 L52.5697951,162.447115 Z" id="Shape" fill="#FFFFFF"></path>
                <path d="M322.075378,266.235577 C321.989824,266.251282 321.902138,266.251282 321.816584,266.235577 L311.076618,262.096154 C310.81869,262.0175 310.626308,261.800693 310.578308,261.534578 C310.530308,261.268463 310.634759,260.997775 310.848858,260.83344 C311.062957,260.669104 311.350713,260.638747 311.594206,260.754808 L322.334173,264.894231 C322.591001,264.940607 322.803658,265.120911 322.892037,265.367224 C322.980415,265.613538 322.931089,265.88844 322.762639,266.088378 C322.594189,266.288316 322.332207,266.382914 322.075378,266.336538 L322.075378,266.235577 Z" id="Shape" fill="#FFFFFF"></path>
                <path d="M50.125626,169.3125 L49.909964,169.3125 L38.9687131,165.75 C38.5716904,165.626532 38.3496136,165.203571 38.4726907,164.805288 C38.5957677,164.407006 39.0173918,164.184225 39.4144145,164.307692 L50.3556655,167.870192 C50.7526882,167.929935 51.0262611,168.301237 50.9667077,168.699519 C50.9071543,169.097801 50.5370262,169.372242 50.1400035,169.3125 L50.125626,169.3125 Z" id="Shape" fill="#FFFFFF"></path>
                <path d="M324.735209,258.807692 L324.519547,258.807692 L313.578296,255.245192 C313.181274,255.121725 312.959197,254.698763 313.082274,254.300481 C313.205351,253.902199 313.626975,253.679417 314.023998,253.802885 L324.965249,257.365385 C325.222078,257.404031 325.438845,257.577193 325.533896,257.819642 C325.628947,258.062091 325.587842,258.336993 325.426065,258.540796 C325.264288,258.744599 325.006416,258.846339 324.749587,258.807692 L324.735209,258.807692 Z" id="Shape" fill="#FFFFFF"></path>
                <path d="M48.0984034,176.293269 L47.9114964,176.293269 L36.7977159,173.307692 C36.5408872,173.240705 36.3391919,173.041355 36.2686068,172.784736 C36.1980217,172.528116 36.2692703,172.253214 36.4555139,172.063582 C36.6417575,171.87395 36.9147013,171.798397 37.17153,171.865385 L48.2853105,174.850962 C48.6823332,174.902738 48.9623432,175.267583 48.9107302,175.665865 C48.8591173,176.064148 48.4954262,176.345046 48.0984034,176.293269 L48.0984034,176.293269 Z" id="Shape" fill="#FFFFFF"></path>
                <path d="M326.934962,251.25 L326.748055,251.25 L315.634274,248.264423 C315.254542,248.159042 315.030122,247.766668 315.131063,247.384615 C315.242516,247.008714 315.628345,246.786635 316.008088,246.879808 L327.121869,249.865385 C327.378697,249.898878 327.598205,250.067279 327.697704,250.307151 C327.797204,250.547024 327.76158,250.821926 327.604251,251.028305 C327.446922,251.234684 327.19179,251.341186 326.934962,251.307692 L326.934962,251.25 Z" id="Shape" fill="#FFFFFF"></path>
                <path d="M46.4018626,183.375 L46.2580879,183.375 L35.0005327,180.980769 C34.743704,180.926664 34.535158,180.739218 34.4534519,180.489039 C34.3717457,180.238861 34.4292927,179.963959 34.6044153,179.767886 C34.7795378,179.571812 35.0456308,179.484356 35.3024595,179.538462 L46.5600147,181.932692 C46.9570374,181.972521 47.2467028,182.327679 47.2070005,182.725962 C47.1672983,183.124244 46.8132627,183.414828 46.41624,183.375 L46.4018626,183.375 Z" id="Shape" fill="#FFFFFF"></path>
                <path d="M328.7609,243.576923 L328.617125,243.576923 L317.35957,241.182692 C317.172707,241.144475 317.008639,241.033338 316.903477,240.873742 C316.798315,240.714146 316.760678,240.519171 316.798849,240.331731 C316.88504,239.94606 317.259638,239.697658 317.647119,239.769231 L328.904674,242.163462 C329.301697,242.20329 329.591362,242.558449 329.55166,242.956731 C329.511958,243.355013 329.157922,243.645597 328.7609,243.605769 L328.7609,243.576923 Z" id="Shape" fill="#FFFFFF"></path>
                <path d="M45.0791358,190.528846 L44.964116,190.528846 L33.6059186,188.725962 C33.2088959,188.662236 32.9385415,188.287705 33.0020651,187.889423 C33.0655887,187.491141 33.4389353,187.219929 33.8359581,187.283654 L45.1941555,189.086538 C45.5911782,189.118401 45.8872807,189.467102 45.8555189,189.865385 C45.8237571,190.263667 45.4761585,190.560709 45.0791358,190.528846 L45.0791358,190.528846 Z" id="Shape" fill="#FFFFFF"></path>
                <path d="M330.198646,235.831731 L330.083626,235.831731 L318.725429,234.028846 C318.4686,233.987623 318.253203,233.812081 318.160376,233.568343 C318.067549,233.324606 318.111394,233.049704 318.275396,232.847189 C318.439398,232.644675 318.69864,232.545315 318.955468,232.586538 L330.313666,234.389423 C330.710689,234.421286 331.006791,234.769987 330.975029,235.168269 C330.943267,235.566552 330.595669,235.863593 330.198646,235.831731 L330.198646,235.831731 Z" id="Shape" fill="#FFFFFF"></path>
                <path d="M44.1302231,197.740385 L44.0583357,197.740385 L32.5563637,196.528846 C32.159341,196.489018 31.8696755,196.133859 31.9093778,195.735577 C31.9490801,195.337295 32.3031156,195.04671 32.7001383,195.086538 L44.2021104,196.298077 C44.5991331,196.317991 44.904891,196.657006 44.8850399,197.055288 C44.8651888,197.453571 44.5272458,197.760299 44.1302231,197.740385 L44.1302231,197.740385 Z" id="Shape" fill="#FFFFFF"></path>
                <path d="M331.219446,228.014423 L331.147559,228.014423 L319.645587,226.802885 C319.25334,226.757609 318.970907,226.403448 319.012978,226.009615 C319.030914,225.818967 319.125203,225.643782 319.274262,225.524156 C319.423322,225.40453 319.614392,225.350704 319.803739,225.375 L331.305711,226.586538 C331.702734,226.606453 332.008492,226.945468 331.98864,227.34375 C331.968789,227.742032 331.630846,228.04876 331.233824,228.028846 L331.219446,228.014423 Z" id="Shape" fill="#FFFFFF"></path>
                <path d="M43.5695019,204.995192 L43.5695019,204.995192 L32.0675299,204.389423 C31.8767472,204.378286 31.698237,204.2914 31.571441,204.147964 C31.444645,204.004527 31.3799999,203.816347 31.391789,203.625 C31.3989867,203.432182 31.4844592,203.250701 31.6283674,203.122679 C31.7722757,202.994658 31.9621052,202.931229 32.1537946,202.947115 L43.6557667,203.552885 C44.0527895,203.552885 44.37464,203.875756 44.37464,204.274038 C44.37464,204.672321 44.0527895,204.995192 43.6557667,204.995192 L43.5695019,204.995192 Z" id="Shape" fill="#FFFFFF"></path>
                <path d="M331.837677,220.153846 L331.837677,220.153846 L320.335705,219.548077 C319.938682,219.528163 319.632924,219.189148 319.652776,218.790865 C319.672627,218.392583 320.01057,218.085855 320.407592,218.105769 L331.909564,218.711538 C332.306587,218.711538 332.628438,219.03441 332.628438,219.432692 C332.628438,219.830975 332.306587,220.153846 331.909564,220.153846 L331.837677,220.153846 Z" id="Shape" fill="#FFFFFF"></path>
                <path d="M32.0819073,220.153846 C31.6848846,220.153846 31.3630341,219.830975 31.3630341,219.432692 C31.3630341,219.03441 31.6848846,218.711538 32.0819073,218.711538 L43.5838794,218.105769 C43.776531,218.085504 43.9688032,218.147396 44.113733,218.276326 C44.2586628,218.405256 44.3429057,218.589354 44.3458851,218.783654 C44.3576741,218.975 44.2930291,219.163181 44.166233,219.306617 C44.039437,219.450054 43.8609269,219.536939 43.6701442,219.548077 L32.1681721,220.153846 L32.0819073,220.153846 Z" id="Shape" fill="#FFFFFF"></path>
                <path d="M320.42197,204.995192 C320.024947,204.995192 319.703097,204.672321 319.703097,204.274038 C319.703097,203.875756 320.024947,203.552885 320.42197,203.552885 L331.923942,202.947115 C332.318459,202.930389 332.65533,203.230071 332.685948,203.625 C332.697737,203.816347 332.633092,204.004527 332.506296,204.147964 C332.3795,204.2914 332.200989,204.378286 332.010207,204.389423 L320.508235,204.995192 L320.42197,204.995192 Z" id="Shape" fill="#FFFFFF"></path>
                <path d="M32.6857609,228.014423 C32.2887381,228.034337 31.9507951,227.727609 31.9309439,227.329327 C31.9110928,226.931045 32.2168508,226.592029 32.6138735,226.572115 L44.1158456,225.360577 C44.3726743,225.334813 44.6236955,225.448456 44.7743518,225.6587 C44.9250082,225.868944 44.9524115,226.143846 44.8462392,226.379854 C44.7400668,226.615862 44.516449,226.77712 44.2596203,226.802885 L32.7576482,228.014423 L32.6857609,228.014423 Z" id="Shape" fill="#FFFFFF"></path>
                <path d="M319.789361,197.740385 C319.392339,197.760299 319.054396,197.453571 319.034545,197.055288 C319.014693,196.657006 319.320451,196.317991 319.717474,196.298077 L331.219446,195.086538 C331.476275,195.060774 331.727296,195.174418 331.877952,195.384662 C332.028609,195.594905 332.056012,195.869808 331.94984,196.105815 C331.843667,196.341823 331.62005,196.503082 331.363221,196.528846 L319.861249,197.740385 L319.789361,197.740385 Z" id="Shape" fill="#FFFFFF"></path>
                <path d="M33.7209383,235.831731 C33.3239157,235.863593 32.9763172,235.566551 32.9445554,235.168269 C32.9127936,234.769987 33.208896,234.421286 33.6059186,234.389423 L44.964116,232.586538 C45.3611387,232.522813 45.7344852,232.794026 45.7980089,233.192308 C45.8615325,233.59059 45.5911782,233.965121 45.1941555,234.028846 L33.8359581,235.831731 L33.7209383,235.831731 Z" id="Shape" fill="#FFFFFF"></path>
                <path d="M318.840449,190.528846 C318.443426,190.560709 318.095827,190.263667 318.064066,189.865385 C318.032304,189.467102 318.328406,189.118401 318.725429,189.086538 L330.083626,187.283654 C330.480649,187.219929 330.853996,187.491141 330.917519,187.889423 C330.981043,188.287705 330.710689,188.662236 330.313666,188.725962 L318.955468,190.528846 L318.840449,190.528846 Z" id="Shape" fill="#FFFFFF"></path>
                <path d="M35.1443074,243.576923 C34.7472847,243.616751 34.3932491,243.326167 34.3535469,242.927885 C34.3138446,242.529602 34.60351,242.174444 35.0005327,242.134615 L46.2580879,239.740385 C46.6551106,239.656745 47.0445497,239.911814 47.1279245,240.310096 C47.2112992,240.708378 46.9570374,241.099053 46.5600147,241.182692 L35.3024595,243.576923 L35.1443074,243.576923 Z" id="Shape" fill="#FFFFFF"></path>
                <path d="M317.546477,183.375 C317.149454,183.414828 316.795419,183.124244 316.755716,182.725962 C316.716014,182.327679 317.00568,181.972521 317.402702,181.932692 L328.660257,179.538462 C329.047738,179.466889 329.422337,179.715291 329.508528,180.100962 C329.546699,180.288402 329.509062,180.483377 329.4039,180.642973 C329.298737,180.802569 329.13467,180.913706 328.947807,180.951923 L317.690252,183.346154 L317.546477,183.375 Z" id="Shape" fill="#FFFFFF"></path>
                <path d="M36.9846229,251.25 C36.5876002,251.301777 36.2239091,251.020878 36.1722961,250.622596 C36.1206832,250.224314 36.4006931,249.859469 36.7977159,249.807692 L47.9114964,246.822115 C48.3085191,246.718562 48.7140508,246.957487 48.8172767,247.355769 C48.9205026,247.754052 48.6823332,248.16087 48.2853105,248.264423 L37.1859074,251.221154 L36.9846229,251.25 Z" id="Shape" fill="#FFFFFF"></path>
                <path d="M315.821181,176.293269 C315.424158,176.345046 315.060467,176.064148 315.008854,175.665865 C314.957241,175.267583 315.237251,174.902738 315.634274,174.850962 L326.748055,171.865385 C327.004883,171.798397 327.277827,171.87395 327.464071,172.063582 C327.650314,172.253214 327.721563,172.528116 327.650978,172.784736 C327.580393,173.041355 327.378697,173.240705 327.121869,173.307692 L316.008088,176.293269 L315.821181,176.293269 Z" id="Shape" fill="#FFFFFF"></path>
                <path d="M39.21313,258.807692 C38.8161073,258.867435 38.4459792,258.592994 38.3864258,258.194712 C38.3268724,257.796429 38.6004453,257.425127 38.997468,257.365385 L49.938719,253.846154 C50.3357417,253.722686 50.7573659,253.945468 50.8804429,254.34375 C51.00352,254.742032 50.7814431,255.164994 50.3844204,255.288462 L39.4431695,258.850962 L39.21313,258.807692 Z" id="Shape" fill="#FFFFFF"></path>
                <path d="M313.765204,169.3125 C313.368181,169.372242 312.998053,169.097801 312.938499,168.699519 C312.878946,168.301237 313.152519,167.929935 313.549542,167.870192 L324.490793,164.307692 C324.747621,164.227823 325.027416,164.291471 325.22478,164.474663 C325.422145,164.657854 325.507095,164.932756 325.447631,165.195816 C325.388167,165.458877 325.193323,165.670131 324.936494,165.75 L313.995243,169.3125 L313.765204,169.3125 Z" id="Shape" fill="#FFFFFF"></path>
                <path d="M41.8442061,266.235577 C41.4471834,266.307268 41.0673998,266.042513 40.9959357,265.644231 C40.9244716,265.245948 41.188389,264.86496 41.5854118,264.793269 L52.3253782,260.653846 C52.6854499,260.544045 53.0689962,260.731417 53.2048528,261.083494 C53.3407093,261.43557 53.1828879,261.833169 52.8429669,261.995192 L42.1030005,266.134615 C42.0240961,266.184822 41.9361918,266.219115 41.8442061,266.235577 Z" id="Shape" fill="#FFFFFF"></path>
                <path d="M311.335412,162.447115 C310.938389,162.518806 310.558606,162.254052 310.487141,161.855769 C310.415677,161.457487 310.679595,161.076499 311.076618,161.004808 L321.859716,156.923077 C322.10321,156.807016 322.390966,156.837374 322.605065,157.001709 C322.819164,157.166045 322.923615,157.436732 322.875615,157.702848 C322.827615,157.968963 322.635233,158.18577 322.377305,158.264423 L311.637339,162.403846 C311.54094,162.439767 311.437981,162.454522 311.335412,162.447115 Z" id="Shape" fill="#FFFFFF"></path>
                <path d="M44.8490963,273.519231 C44.4520736,273.598887 44.065853,273.34059 43.9864484,272.942308 C43.9070439,272.544025 44.1645243,272.15658 44.561547,272.076923 L55.071474,267.389423 C55.426723,267.25462 55.8252097,267.42031 55.9812303,267.767698 C56.137251,268.115086 55.9969635,268.524291 55.6609501,268.701923 L45.1510231,273.389423 C45.0617163,273.455489 44.9583764,273.499918 44.8490963,273.519231 Z" id="Shape" fill="#FFFFFF"></path>
                <path d="M308.560561,155.769231 C308.163538,155.848887 307.777318,155.59059 307.697913,155.192308 C307.618509,154.794025 307.875989,154.40658 308.273012,154.326923 L318.782939,149.639423 C319.019519,149.514356 319.30575,149.531364 319.525957,149.683575 C319.746165,149.835786 319.863949,150.098039 319.83171,150.364351 C319.799471,150.630662 319.622538,150.857011 319.372415,150.951923 L308.919998,155.668269 C308.811414,155.733731 308.687243,155.768609 308.560561,155.769231 Z" id="Shape" fill="#FFFFFF"></path>
                <path d="M48.2278006,280.629808 C47.8893855,280.63821 47.5909815,280.408625 47.5113256,280.078567 C47.4316698,279.74851 47.5923484,279.407426 47.8971189,279.259615 L58.1482515,274.038462 C58.4958463,273.893257 58.8962365,274.041717 59.0661334,274.378801 C59.2360304,274.715886 59.1178626,275.12737 58.7952375,275.322115 L48.5441049,280.557692 C48.4455238,280.605591 48.3373352,280.630257 48.2278006,280.629808 Z" id="Shape" fill="#FFFFFF"></path>
                <path d="M305.440651,149.163462 C305.102236,149.171864 304.803832,148.942278 304.724176,148.612221 C304.64452,148.282164 304.805199,147.941079 305.10997,147.793269 L315.361102,142.557692 C315.59199,142.418322 315.881186,142.420188 316.110268,142.562527 C316.339349,142.704866 316.469843,142.963772 316.448313,143.233227 C316.426783,143.502681 316.256846,143.73743 316.008088,143.841346 L305.756955,149.076923 C305.659772,149.130322 305.551403,149.159971 305.440651,149.163462 Z" id="Shape" fill="#FFFFFF"></path>
                <path d="M298.180031,136.557692 C297.861664,136.556868 297.581758,136.346072 297.492105,136.039619 C297.402453,135.733166 297.52441,135.404058 297.79184,135.230769 L307.482251,128.942308 C307.814271,128.752311 308.236446,128.85619 308.443146,129.178743 C308.649845,129.501295 308.568779,129.929713 308.258634,130.153846 L298.611355,136.442308 C298.483429,136.525711 298.332369,136.566121 298.180031,136.557692 Z" id="Shape" fill="#FFFFFF"></path>
                <path d="M294.082454,130.557692 C293.775655,130.551616 293.506526,130.350849 293.412415,130.057852 C293.318303,129.764856 293.419961,129.444234 293.665507,129.259615 L302.967727,122.480769 C303.175758,122.32876 303.448827,122.299632 303.68407,122.404359 C303.919314,122.509086 304.080993,122.731757 304.108206,122.988494 C304.135418,123.245231 304.024029,123.497029 303.815998,123.649038 L294.542533,130.427885 C294.408419,130.522525 294.246083,130.568327 294.082454,130.557692 Z" id="Shape" fill="#FFFFFF"></path>
                <path d="M289.654195,124.788462 C289.349842,124.786703 289.079577,124.592863 288.979464,124.30453 C288.879351,124.016197 288.971089,123.695866 289.208493,123.504808 L298.151276,116.293269 C298.351603,116.130954 298.623032,116.08818 298.86332,116.181061 C299.103608,116.273941 299.276249,116.488365 299.31621,116.743561 C299.356172,116.998756 299.257383,117.255954 299.057057,117.418269 L290.114273,124.629808 C289.983955,124.734725 289.821274,124.790825 289.654195,124.788462 Z" id="Shape" fill="#FFFFFF"></path>
                <path d="M284.952763,119.25 C284.657409,119.24629 284.394376,119.061716 284.28962,118.784663 C284.184863,118.507609 284.259705,118.19447 284.478307,117.995192 L293.018521,110.278846 C293.315203,110.03984 293.746154,110.074152 294.001539,110.357114 C294.256925,110.640076 294.248276,111.073667 293.981812,111.346154 L285.441597,119.0625 C285.307924,119.184394 285.133404,119.251334 284.952763,119.25 Z" id="Shape" fill="#FFFFFF"></path>
                <path d="M279.949406,113.942308 C279.661802,113.938255 279.404292,113.762615 279.294777,113.495804 C279.185261,113.228994 279.244824,112.92238 279.446194,112.716346 L287.58384,104.552885 C287.865726,104.270104 288.322753,104.270104 288.60464,104.552885 C288.886526,104.835665 288.886526,105.294143 288.60464,105.576923 L280.466994,113.740385 C280.328393,113.874527 280.141932,113.94727 279.949406,113.942308 Z" id="Shape" fill="#FFFFFF"></path>
                <path d="M274.687253,108.966346 C274.406391,108.963187 274.153087,108.79622 274.038724,108.538862 C273.924361,108.281504 273.969889,107.9809 274.155287,107.769231 L281.847231,99.1875 C282.014406,98.9786646 282.283184,98.8799765 282.545246,98.9312078 C282.807307,98.982439 283.019478,99.1751495 283.096253,99.4316754 C283.173027,99.6882014 283.101757,99.966281 282.911163,100.153846 L275.21922,108.735577 C275.082034,108.883977 274.888999,108.967716 274.687253,108.966346 Z" id="Shape" fill="#FFFFFF"></path>
                <path d="M269.180684,104.235577 C268.905721,104.23431 268.655565,104.07581 268.53628,103.827278 C268.416996,103.578747 268.449481,103.283729 268.619963,103.067308 L275.808696,94.0961538 C276.05882,93.7854937 276.512629,93.7370629 276.822307,93.9879808 C277.131985,94.2388986 277.180262,94.6941475 276.930138,95.0048077 L269.741405,103.975962 C269.602962,104.142732 269.397011,104.238088 269.180684,104.235577 Z" id="Shape" fill="#FFFFFF"></path>
                <path d="M263.415321,99.8076923 C263.148127,99.8037942 262.905137,99.6515388 262.784426,99.412378 C262.663715,99.1732173 262.685205,98.8866235 262.840222,98.6682692 L269.597631,89.3365385 C269.831874,89.0139298 270.282465,88.9428981 270.604053,89.1778846 C270.925642,89.4128712 270.996449,89.8648914 270.762205,90.1875 L264.004797,99.5192308 C263.866026,99.7049415 263.646637,99.8122999 263.415321,99.8076923 L263.415321,99.8076923 Z" id="Shape" fill="#FFFFFF"></path>
                <path d="M257.434295,95.6826923 C257.171657,95.6822539 256.930161,95.5381664 256.804396,95.3068655 C256.678631,95.0755646 256.688616,94.7938703 256.830442,94.5721154 L263.099017,84.8942308 C263.230774,84.6625207 263.479275,84.5227011 263.745069,84.5307272 C264.010864,84.5387533 264.250531,84.693314 264.368157,84.9325546 C264.485784,85.1717953 264.462154,85.456633 264.306724,85.6730769 L258.038149,95.3509615 C257.906167,95.557327 257.678706,95.6822838 257.434295,95.6826923 L257.434295,95.6826923 Z" id="Shape" fill="#FFFFFF"></path>
                <path d="M244.868391,88.3990385 C244.75396,88.4023094 244.640458,88.3775568 244.537709,88.3269231 C244.185236,88.1469406 244.043898,87.7151348 244.221405,87.3605769 L249.440425,77.0769231 C249.634554,76.7532745 250.044737,76.6347318 250.380756,76.8051677 C250.716774,76.9756037 250.864764,77.3772641 250.720019,77.7259615 L245.515377,87.9807692 C245.398551,88.2340253 245.146559,88.3969351 244.868391,88.3990385 L244.868391,88.3990385 Z" id="Shape" fill="#FFFFFF"></path>
                <path d="M238.326644,85.2692308 C238.231814,85.2890627 238.133925,85.2890627 238.039095,85.2692308 C237.678398,85.1053755 237.517693,84.6797692 237.679658,84.3173077 L242.352334,73.7740385 C242.529405,73.436959 242.937315,73.2962265 243.283605,73.4527421 C243.629895,73.6092578 243.795061,74.0090087 243.660684,74.3653846 L238.988008,84.9086538 C238.852911,85.144278 238.597221,85.2836806 238.326644,85.2692308 Z" id="Shape" fill="#FFFFFF"></path>
                <path d="M231.626745,82.4855769 C231.388868,82.4872611 231.165563,82.3707856 231.030307,82.1744752 C230.895051,81.9781649 230.865361,81.7274435 230.951005,81.5048077 L235.077337,70.6730769 C235.238848,70.3320776 235.63519,70.1737555 235.986152,70.310043 C236.337115,70.4463306 236.523896,70.8310936 236.414441,71.1923077 L232.288109,81.9663462 C232.201827,82.2640409 231.935537,82.4731029 231.626745,82.4855769 Z" id="Shape" fill="#FFFFFF"></path>
                <path d="M224.783072,80.0480769 L224.56741,80.0480769 C224.190434,79.9243804 223.984554,79.5177679 224.107331,79.1394231 L227.658565,68.1634615 C227.781642,67.7651793 228.203266,67.5423979 228.600289,67.6658654 C228.997312,67.7893329 229.219389,68.2122947 229.096312,68.6105769 L225.5307,79.5576923 C225.425249,79.8754885 225.115562,80.0786186 224.783072,80.0480769 Z" id="Shape" fill="#FFFFFF"></path>
                <path d="M217.824379,77.9855769 L217.637472,77.9855769 C217.25774,77.8801954 217.03332,77.4878216 217.134261,77.1057692 L220.110396,65.9567308 C220.177171,65.6990873 220.375891,65.4967522 220.631699,65.4259432 C220.887507,65.3551342 221.16154,65.4266088 221.350572,65.6134432 C221.539604,65.8002776 221.614918,66.0740873 221.548142,66.3317308 L218.572007,77.4807692 C218.471921,77.8043073 218.160847,78.0143484 217.824379,77.9855769 Z" id="Shape" fill="#FFFFFF"></path>
                <path d="M210.779421,76.2836538 L210.635646,76.2836538 C210.448783,76.2454366 210.284716,76.1342996 210.179554,75.9747036 C210.074392,75.8151076 210.036754,75.6201328 210.074925,75.4326923 L212.461584,64.1394231 C212.547775,63.7537521 212.922374,63.5053505 213.309855,63.5769231 C213.496718,63.6151403 213.660786,63.7262773 213.765948,63.8858733 C213.87111,64.0454694 213.908747,64.2404441 213.870576,64.4278846 L211.483917,75.7211538 C211.409714,76.0512364 211.116719,76.2851758 210.779421,76.2836538 Z" id="Shape" fill="#FFFFFF"></path>
                <path d="M203.633821,75 L203.518801,75 C203.329938,74.9715455 203.160125,74.86887 203.046835,74.7146319 C202.933545,74.5603939 202.886092,74.367272 202.914948,74.1778846 L204.712131,62.7836538 C204.775654,62.3853716 205.149001,62.1141595 205.546024,62.1778846 C205.943046,62.2416098 206.213401,62.6161408 206.149877,63.0144231 L204.352694,74.4086538 C204.289457,74.7555956 203.985353,75.0057521 203.633821,75 L203.633821,75 Z" id="Shape" fill="#FFFFFF"></path>
                <path d="M196.445088,74.0192308 L196.373201,74.0192308 C196.182157,74.0010332 196.006297,73.9069638 195.884777,73.7579679 C195.763257,73.6089721 195.706165,73.4174197 195.726215,73.2259615 L196.933922,61.6875 C196.973624,61.2892178 197.32766,60.9986334 197.724683,61.0384616 C198.121705,61.0782898 198.411371,61.4334485 198.371669,61.8317308 L197.163962,73.3701923 C197.126909,73.740073 196.815652,74.0210937 196.445088,74.0192308 Z" id="Shape" fill="#FFFFFF"></path>
                <path d="M189.213223,73.4423077 L189.213223,73.4423077 C189.022441,73.4311701 188.843931,73.3442845 188.717135,73.2008482 C188.590339,73.0574118 188.525693,72.8692312 188.537483,72.6778846 L189.141336,61.1394231 C189.148534,60.9466056 189.234006,60.7651242 189.377914,60.6371025 C189.521823,60.5090809 189.711652,60.4456521 189.903342,60.4615385 C190.094124,60.472676 190.272635,60.5595616 190.399431,60.702998 C190.526227,60.8464343 190.590872,61.0346149 190.579083,61.2259615 L189.975229,72.7644231 C189.964127,72.955811 189.877516,73.1348875 189.734533,73.2620857 C189.59155,73.389284 189.403965,73.4541342 189.213223,73.4423077 Z" id="Shape" fill="#FFFFFF"></path>
                <circle id="Oval" fill="#FFFFFF" cx="182" cy="212" r="1"></circle>
                <ellipse id="Oval" fill="#2B3D6B" cx="181.952604" cy="133.471154" rx="1.43774651" ry="1.44230769"></ellipse>
                <ellipse id="Oval" fill="#2B3D6B" transform="translate(143.093834, 143.916367) rotate(-30.000000) translate(-143.093834, -143.916367) " cx="143.093834" cy="143.916367" rx="1.43774651" ry="1.44230769"></ellipse>
                <ellipse id="Oval" fill="#2B3D6B" transform="translate(114.643520, 172.465666) rotate(-60.000000) translate(-114.643520, -172.465666) " cx="114.64352" cy="172.465666" rx="1.43774651" ry="1.44230769"></ellipse>
                <ellipse id="Oval" fill="#2B3D6B" transform="translate(249.289909, 250.453725) rotate(-60.000000) translate(-249.289909, -250.453725) " cx="249.289909" cy="250.453725" rx="1.43774651" ry="1.44230769"></ellipse>
                <ellipse id="Oval" fill="#2B3D6B" cx="104.21365" cy="211.456731" rx="1.43774651" ry="1.44230769"></ellipse>
                <ellipse id="Oval" fill="#2B3D6B" cx="259.705935" cy="211.456731" rx="1.43774651" ry="1.44230769"></ellipse>
                <ellipse id="Oval" fill="#2B3D6B" transform="translate(114.635593, 250.457180) rotate(-30.000000) translate(-114.635593, -250.457180) " cx="114.635593" cy="250.45718" rx="1.43774651" ry="1.44230769"></ellipse>
                <ellipse id="Oval" fill="#2B3D6B" transform="translate(249.292457, 172.470170) rotate(-30.000000) translate(-249.292457, -172.470170) " cx="249.292457" cy="172.47017" rx="1.43774651" ry="1.44230769"></ellipse>
                <ellipse id="Oval" fill="#2B3D6B" transform="translate(220.824977, 143.915710) rotate(-60.000000) translate(-220.824977, -143.915710) " cx="220.824977" cy="143.91571" rx="1.43774651" ry="1.44230769"></ellipse>
                <path d="M108.23934,254.076923 L101.438799,258.028846" id="Shape" fill="#78D2DF"></path>
                <path d="M101.438799,258.75 C101.116391,258.746699 100.83561,258.528455 100.751909,258.216096 C100.668207,257.903737 100.80206,257.573679 101.079362,257.408654 L107.879903,253.456731 C108.103344,253.327909 108.37832,253.328455 108.601251,253.458164 C108.824182,253.587872 108.961198,253.827037 108.960688,254.085568 C108.960177,254.344098 108.822218,254.582717 108.598777,254.711538 L101.798236,258.663462 C101.688237,258.723888 101.564154,258.753762 101.438799,258.75 Z" id="Shape" fill="#2B3D6B"></path>
                <path d="M255.59398,254.25 L262.394521,258.201923" id="Shape" fill="#78D2DF"></path>
                <path d="M262.394521,258.923077 C262.267937,258.921758 262.143945,258.88693 262.035084,258.822115 L255.234543,254.870192 C254.889133,254.671051 254.770049,254.228717 254.96856,253.882212 C255.167071,253.535706 255.608007,253.416243 255.953416,253.615385 L262.753957,257.567308 C263.03126,257.732333 263.165113,258.062391 263.081411,258.37475 C262.997709,258.687109 262.716929,258.905353 262.394521,258.908654 L262.394521,258.923077 Z" id="Shape" fill="#2B3D6B"></path>
                <g id="Group" fill="#66A9E8">
                    <ellipse id="Oval" cx="5.65612647" cy="126.663462" rx="4.70143109" ry="4.71634615"></ellipse>
                    <ellipse id="Oval" cx="69.8371307" cy="66.7644231" rx="3.83878318" ry="3.85096154"></ellipse>
                    <path d="M131.545211,12.3605769 C128.146696,12.3605769 125.391656,9.59679624 125.391656,6.1875 C125.391656,2.77820376 128.146696,0.0144230769 131.545211,0.0144230769 C134.943725,0.0144230769 137.698766,2.77820376 137.698766,6.1875 C137.690861,9.59350604 134.940446,12.3526467 131.545211,12.3605769 Z M131.545211,2.26442308 C129.409229,2.26442308 127.677673,4.00147215 127.677673,6.14423077 C127.677673,8.28698939 129.409229,10.0240385 131.545211,10.0240385 C133.681193,10.0240385 135.412749,8.28698939 135.412749,6.14423077 C135.38919,4.01603039 133.666798,2.30102071 131.545211,2.29326923 L131.545211,2.26442308 Z" id="Shape"></path>
                    <path d="M15.9216366,84.4038462 C15.4614712,84.3973615 15.0494554,84.1163373 14.8742302,83.6894405 C14.6990051,83.2625437 14.7943056,82.7719619 15.1164985,82.4423077 L23.8148649,73.7163462 C24.0848972,73.3551608 24.5401128,73.1851485 24.9798528,73.2812505 C25.4195928,73.3773526 25.7630625,73.721912 25.8588606,74.163047 C25.9546588,74.604182 25.7851841,75.0608418 25.425141,75.3317308 L16.7267746,84.0576923 C16.5153273,84.2764294 16.2253572,84.4010965 15.9216366,84.4038462 L15.9216366,84.4038462 Z" id="Shape"></path>
                    <path d="M24.6343804,84.4038462 C24.3327382,84.4049071 24.0430641,84.2855564 23.8292424,84.0721154 L15.130876,75.3461538 C14.7708328,75.0752648 14.6013582,74.6186051 14.6971563,74.1774701 C14.7929545,73.736335 15.1364242,73.3917757 15.5761642,73.2956736 C16.0159041,73.1995716 16.4711197,73.3695839 16.7411521,73.7307692 L25.4395184,82.4567308 C25.7617114,82.786385 25.8570119,83.2769668 25.6817867,83.7038636 C25.5065616,84.1307604 25.0945457,84.4117845 24.6343804,84.4182692 L24.6343804,84.4038462 Z" id="Shape"></path>
                    <path d="M386.428912,88.125 C384.024298,90.5315345 380.130733,90.5284499 377.729911,88.1181083 C375.329089,85.7077667 375.329089,81.8018487 377.729911,79.3915071 C380.130733,76.9811655 384.024298,76.9780809 386.428912,79.3846154 C388.830961,81.799829 388.830961,85.7097863 386.428912,88.125 L386.428912,88.125 Z M379.369577,81 C377.86258,82.5163706 377.865054,84.9707889 379.375104,86.4840992 C380.885155,87.9974095 383.331813,87.9974095 384.841863,86.4840992 C386.351914,84.9707889 386.354388,82.5163706 384.847391,81 C383.332796,79.4872451 380.884171,79.4872451 379.369577,81 Z" id="Shape"></path>
                    <ellipse id="Oval" transform="translate(189.298796, 17.161187) rotate(-71.510000) translate(-189.298796, -17.161187) " cx="189.298796" cy="17.161187" rx="3.83878318" ry="3.85096154"></ellipse>
                    <path d="M369.693543,149.697115 C369.364931,150.02033 368.875901,150.115933 368.450354,149.940152 C368.024807,149.764371 367.744672,149.351048 367.738208,148.889423 L367.738208,136.528846 C367.803572,135.945107 368.295663,135.503802 368.881216,135.503802 C369.466769,135.503802 369.95886,135.945107 370.024224,136.528846 L370.024224,148.875 C370.029144,149.182583 369.909878,149.479093 369.693543,149.697115 L369.693543,149.697115 Z" id="Shape"></path>
                    <path d="M375.847098,143.509615 C375.633276,143.723056 375.343602,143.842407 375.04196,143.841346 L362.73485,143.841346 C362.295883,143.890812 361.867457,143.683719 361.632486,143.308485 C361.397515,142.93325 361.397515,142.456173 361.632486,142.080938 C361.867457,141.705704 362.295883,141.498611 362.73485,141.548077 L375.056337,141.548077 C375.516503,141.554562 375.928518,141.835586 376.103744,142.262483 C376.278969,142.689379 376.183668,143.179961 375.861475,143.509615 L375.847098,143.509615 Z" id="Shape"></path>
                    <path d="M330.874387,67.4855769 C330.545775,67.808792 330.056745,67.9043949 329.631198,67.7286138 C329.205651,67.5528328 328.925516,67.1395098 328.919052,66.6778846 L328.919052,54.3173077 C328.984416,53.7335685 329.476507,53.2922637 330.06206,53.2922637 C330.647613,53.2922637 331.139704,53.7335685 331.205069,54.3173077 L331.205069,66.6634615 C331.209988,66.9710448 331.090722,67.2675547 330.874387,67.4855769 L330.874387,67.4855769 Z" id="Shape"></path>
                    <path d="M337.027942,61.2980769 C336.81412,61.5115179 336.524446,61.6308687 336.222804,61.6298077 L323.915694,61.6298077 C323.476727,61.6792736 323.048302,61.472181 322.81333,61.0969462 C322.578359,60.7217113 322.578359,60.2446348 322.81333,59.8694 C323.048302,59.4941652 323.476727,59.2870726 323.915694,59.3365385 L336.237181,59.3365385 C336.697347,59.3430231 337.109363,59.6240473 337.284588,60.0509441 C337.459813,60.4778409 337.364512,60.9684227 337.04232,61.2980769 L337.027942,61.2980769 Z" id="Shape"></path>
                </g>
            </g>
            <path d="M79.4560547,273.029297 L79.4560547,269.226562 L76.7666016,273.029297 L79.4560547,273.029297 Z M79.4736328,276 L79.4736328,273.949219 L75.7939453,273.949219 L75.7939453,272.917969 L79.6376953,267.585938 L80.5283203,267.585938 L80.5283203,273.029297 L81.7646484,273.029297 L81.7646484,273.949219 L80.5283203,273.949219 L80.5283203,276 L79.4736328,276 Z M87.7646484,268.951172 C88.1396503,269.642582 88.3271484,270.589838 88.3271484,271.792969 C88.3271484,272.933599 88.1572283,273.876949 87.8173828,274.623047 C87.3251929,275.693365 86.5205134,276.228516 85.4033203,276.228516 C84.3955028,276.228516 83.6455103,275.79102 83.1533203,274.916016 C82.743162,274.185543 82.5380859,273.205084 82.5380859,271.974609 C82.5380859,271.02148 82.6611316,270.203128 82.9072266,269.519531 C83.3681664,268.246087 84.2021424,267.609375 85.4091797,267.609375 C86.4951226,267.609375 87.280271,268.056636 87.7646484,268.951172 Z M86.7041016,274.541016 C87.0283219,274.056638 87.1904297,273.154303 87.1904297,271.833984 C87.1904297,270.880855 87.0732434,270.096683 86.8388672,269.481445 C86.604491,268.866208 86.1494174,268.558594 85.4736328,268.558594 C84.852536,268.558594 84.3984389,268.850583 84.1113281,269.43457 C83.8242173,270.018558 83.6806641,270.878901 83.6806641,272.015625 C83.6806641,272.871098 83.77246,273.558591 83.9560547,274.078125 C84.2373061,274.871098 84.71777,275.267578 85.3974609,275.267578 C85.9443387,275.267578 86.3798812,275.025393 86.7041016,274.541016 Z M94.4384766,268.951172 C94.8134784,269.642582 95.0009766,270.589838 95.0009766,271.792969 C95.0009766,272.933599 94.8310564,273.876949 94.4912109,274.623047 C93.999021,275.693365 93.1943415,276.228516 92.0771484,276.228516 C91.0693309,276.228516 90.3193384,275.79102 89.8271484,274.916016 C89.4169901,274.185543 89.2119141,273.205084 89.2119141,271.974609 C89.2119141,271.02148 89.3349597,270.203128 89.5810547,269.519531 C90.0419945,268.246087 90.8759705,267.609375 92.0830078,267.609375 C93.1689507,267.609375 93.9540991,268.056636 94.4384766,268.951172 Z M93.3779297,274.541016 C93.7021501,274.056638 93.8642578,273.154303 93.8642578,271.833984 C93.8642578,270.880855 93.7470715,270.096683 93.5126953,269.481445 C93.2783191,268.866208 92.8232456,268.558594 92.1474609,268.558594 C91.5263641,268.558594 91.0722671,268.850583 90.7851562,269.43457 C90.4980454,270.018558 90.3544922,270.878901 90.3544922,272.015625 C90.3544922,272.871098 90.4462881,273.558591 90.6298828,274.078125 C90.9111342,274.871098 91.3915982,275.267578 92.0712891,275.267578 C92.6181668,275.267578 93.0537093,275.025393 93.3779297,274.541016 Z" id="400" fill="#FFFFFF"></path>
            <path d="M271.842773,270.735352 C272.104493,270.475585 272.235352,270.166017 272.235352,269.806641 C272.235352,269.494139 272.110353,269.207033 271.860352,268.945312 C271.61035,268.683592 271.229495,268.552734 270.717773,268.552734 C270.209958,268.552734 269.842775,268.683592 269.616211,268.945312 C269.389647,269.207033 269.276367,269.51367 269.276367,269.865234 C269.276367,270.259768 269.42285,270.568358 269.71582,270.791016 C270.008791,271.013673 270.35449,271.125 270.75293,271.125 C271.217776,271.125 271.581053,270.995118 271.842773,270.735352 Z M272.033203,274.883789 C272.35547,274.620116 272.516602,274.226565 272.516602,273.703125 C272.516602,273.160154 272.350588,272.748048 272.018555,272.466797 C271.686522,272.185545 271.260745,272.044922 270.741211,272.044922 C270.237302,272.044922 269.826173,272.188475 269.507812,272.475586 C269.189452,272.762697 269.030273,273.160154 269.030273,273.667969 C269.030273,274.105471 269.17578,274.483397 269.466797,274.801758 C269.757814,275.120119 270.208005,275.279297 270.817383,275.279297 C271.305667,275.279297 271.710936,275.147462 272.033203,274.883789 Z M268.631836,271.089844 C268.323241,270.777342 268.168945,270.371096 268.168945,269.871094 C268.168945,269.246091 268.395506,268.708987 268.848633,268.259766 C269.30176,267.810545 269.944332,267.585938 270.776367,267.585938 C271.581059,267.585938 272.211912,267.797849 272.668945,268.22168 C273.125979,268.64551 273.354492,269.140622 273.354492,269.707031 C273.354492,270.230471 273.221681,270.654295 272.956055,270.978516 C272.807616,271.16211 272.57715,271.341796 272.264648,271.517578 C272.612306,271.677735 272.885741,271.861327 273.084961,272.068359 C273.456057,272.458986 273.641602,272.966794 273.641602,273.591797 C273.641602,274.330082 273.393557,274.956052 272.897461,275.469727 C272.401365,275.983401 271.7002,276.240234 270.793945,276.240234 C269.977535,276.240234 269.287112,276.018557 268.722656,275.575195 C268.1582,275.131834 267.875977,274.488285 267.875977,273.644531 C267.875977,273.148435 267.997069,272.719728 268.239258,272.358398 C268.481447,271.997069 268.840818,271.720704 269.317383,271.529297 C269.024413,271.404296 268.795899,271.257813 268.631836,271.089844 Z M279.764648,268.951172 C280.13965,269.642582 280.327148,270.589838 280.327148,271.792969 C280.327148,272.933599 280.157228,273.876949 279.817383,274.623047 C279.325193,275.693365 278.520513,276.228516 277.40332,276.228516 C276.395503,276.228516 275.64551,275.79102 275.15332,274.916016 C274.743162,274.185543 274.538086,273.205084 274.538086,271.974609 C274.538086,271.02148 274.661132,270.203128 274.907227,269.519531 C275.368166,268.246087 276.202142,267.609375 277.40918,267.609375 C278.495123,267.609375 279.280271,268.056636 279.764648,268.951172 Z M278.704102,274.541016 C279.028322,274.056638 279.19043,273.154303 279.19043,271.833984 C279.19043,270.880855 279.073243,270.096683 278.838867,269.481445 C278.604491,268.866208 278.149417,268.558594 277.473633,268.558594 C276.852536,268.558594 276.398439,268.850583 276.111328,269.43457 C275.824217,270.018558 275.680664,270.878901 275.680664,272.015625 C275.680664,272.871098 275.77246,273.558591 275.956055,274.078125 C276.237306,274.871098 276.71777,275.267578 277.397461,275.267578 C277.944339,275.267578 278.379881,275.025393 278.704102,274.541016 Z M286.438477,268.951172 C286.813478,269.642582 287.000977,270.589838 287.000977,271.792969 C287.000977,272.933599 286.831056,273.876949 286.491211,274.623047 C285.999021,275.693365 285.194342,276.228516 284.077148,276.228516 C283.069331,276.228516 282.319338,275.79102 281.827148,274.916016 C281.41699,274.185543 281.211914,273.205084 281.211914,271.974609 C281.211914,271.02148 281.33496,270.203128 281.581055,269.519531 C282.041994,268.246087 282.875971,267.609375 284.083008,267.609375 C285.168951,267.609375 285.954099,268.056636 286.438477,268.951172 Z M285.37793,274.541016 C285.70215,274.056638 285.864258,273.154303 285.864258,271.833984 C285.864258,270.880855 285.747071,270.096683 285.512695,269.481445 C285.278319,268.866208 284.823246,268.558594 284.147461,268.558594 C283.526364,268.558594 283.072267,268.850583 282.785156,269.43457 C282.498045,270.018558 282.354492,270.878901 282.354492,272.015625 C282.354492,272.871098 282.446288,273.558591 282.629883,274.078125 C282.911134,274.871098 283.391598,275.267578 284.071289,275.267578 C284.618167,275.267578 285.053709,275.025393 285.37793,274.541016 Z" id="800" fill="#FFFFFF"></path>
        </g>
    </g>
</svg>