<?xml version="1.0" encoding="UTF-8"?>
<svg width="25px" height="8px" viewBox="0 0 25 8" version="1.1" xmlns="http://www.w3.org/2000/svg" xmlns:xlink="http://www.w3.org/1999/xlink">
    <!-- Generator: Sketch 46 (44423) - http://www.bohemiancoding.com/sketch -->
    <title>Wave gold@8x</title>
    <desc>Created with Sketch.</desc>
    <defs>
        <linearGradient x1="50%" y1="0%" x2="50%" y2="99.3283642%" id="linearGradient-1">
            <stop stop-color="#F5DC4F" offset="0%"></stop>
            <stop stop-color="#F4AF53" offset="100%"></stop>
        </linearGradient>
    </defs>
    <g id="Guidelines" stroke="none" stroke-width="1" fill="none" fill-rule="evenodd">
        <g id="Logo-&amp;-Icons" transform="translate(-869.000000, -1379.000000)" fill="url(#linearGradient-1)">
            <path d="M877.816614,1379.75062 C878.535009,1379.85597 879.207677,1380.04691 879.834639,1380.32346 L883.831505,1382.04198 C884.445405,1382.30535 884.948274,1382.50288 885.340125,1382.63457 C885.993211,1382.8321 886.58098,1382.93086 887.103448,1382.93086 C888.056954,1382.93086 888.948402,1382.55227 889.777821,1381.79506 C890.60724,1381.03786 891.257051,1380.10618 891.727273,1379 L894,1379 C893.268544,1380.86997 892.262807,1382.5753 890.982759,1384.11605 C889.70271,1385.6568 888.089613,1386.42716 886.143417,1386.42716 C885.55564,1386.42716 884.882971,1386.30864 884.125392,1386.0716 C883.681293,1385.92675 883.034748,1385.67654 882.185737,1385.32099 L878.502351,1383.78025 C878.045191,1383.58272 877.56518,1383.43128 877.062304,1383.32593 C876.559428,1383.22058 876.138194,1383.1679 875.798589,1383.1679 C874.701405,1383.1679 873.747914,1383.59588 872.938088,1384.45185 C872.467866,1384.95227 871.919282,1385.80164 871.29232,1387 L869,1387 C869.444098,1385.90699 869.878394,1384.97531 870.3029,1384.20494 C870.727405,1383.43456 871.370685,1382.56214 872.232759,1381.58765 C872.911968,1380.92921 873.604228,1380.44198 874.309561,1380.12593 C875.014894,1379.80987 875.792054,1379.65185 876.641066,1379.65185 C877.019856,1379.65185 877.411701,1379.68477 877.816614,1379.75062 Z" id="Wave-gold"></path>
        </g>
    </g>
</svg>