<?xml version="1.0" encoding="UTF-8"?>
<svg width="12px" height="12px" viewBox="0 0 12 12" version="1.1" xmlns="http://www.w3.org/2000/svg" xmlns:xlink="http://www.w3.org/1999/xlink">
    <!-- Generator: Sketch 46.1 (44463) - http://www.bohemiancoding.com/sketch -->
    <title>Add User Icon</title>
    <desc>Created with Sketch.</desc>
    <defs></defs>
    <g id="SimCast" stroke="none" stroke-width="1" fill="none" fill-rule="evenodd">
        <g id="SimCast-Admin-Settings-Users-Add-User" transform="translate(-1016.000000, -253.000000)" fill="#FFFFFF">
            <g id="Users-Settings" transform="translate(531.000000, 231.000000)">
                <g id="Add-User" transform="translate(485.000000, 18.000000)">
                    <g id="Add-User-Icon" transform="translate(0.000000, 4.000000)">
                        <path d="M6.5,6.5 L9,6.5 C9.27614237,6.5 9.5,6.27614237 9.5,6 C9.5,5.72385763 9.27614237,5.5 9,5.5 L6.5,5.5 L6.5,3 C6.5,2.72385763 6.27614237,2.5 6,2.5 C5.72385763,2.5 5.5,2.72385763 5.5,3 L5.5,5.5 L3,5.5 C2.72385763,5.5 2.5,5.72385763 2.5,6 C2.5,6.27614237 2.72385763,6.5 3,6.5 L5.5,6.5 L5.5,9 C5.5,9.27614237 5.72385763,9.5 6,9.5 C6.27614237,9.5 6.5,9.27614237 6.5,9 L6.5,6.5 Z M6,12 C2.6862915,12 0,9.3137085 0,6 C0,2.6862915 2.6862915,0 6,0 C9.3137085,0 12,2.6862915 12,6 C12,9.3137085 9.3137085,12 6,12 Z" id="Combined-Shape"></path>
                    </g>
                </g>
            </g>
        </g>
    </g>
</svg>