<?xml version="1.0" encoding="UTF-8"?>
<svg width="13px" height="16px" viewBox="0 0 13 16" version="1.1" xmlns="http://www.w3.org/2000/svg" xmlns:xlink="http://www.w3.org/1999/xlink">
    <!-- Generator: Sketch 46 (44423) - http://www.bohemiancoding.com/sketch -->
    <title>Bill Histor ico W@2x</title>
    <desc>Created with Sketch.</desc>
    <defs></defs>
    <g id="Guidelines" stroke="none" stroke-width="1" fill="none" fill-rule="evenodd">
        <g id="Logo-&amp;-Icons" transform="translate(-1115.000000, -1266.000000)" fill-rule="nonzero" fill="#FFFFFF">
            <g id="Bill-Histor-ico-W" transform="translate(1115.000000, 1266.000000)">
                <path d="M12.7495246,7.58379942e-08 C12.8156499,-0.000904160745 12.879371,0.025402347 12.9264414,0.0730380961 C12.9735119,0.120673845 13.0000058,0.185665914 13,0.253483637 L13,15.744709 C13.000034,15.8381349 12.9499529,15.9240064 12.8696736,15.9681731 C12.7893942,16.0123398 12.6919323,16.007641 12.6160476,15.9559453 L10.6699201,14.6243117 L8.7237926,15.9559453 C8.64092031,16.0124012 8.53311945,16.0124012 8.45024716,15.9559453 L6.50411964,14.6243117 L4.55799213,15.9559453 C4.47511983,16.0124012 4.36731898,16.0124012 4.28444669,15.9559453 L2.33007985,14.6260016 L0.383952337,15.9576352 C0.308067655,16.0093309 0.210605761,16.0140297 0.130326404,15.969863 C0.0500470465,15.9256962 -3.40238047e-05,15.8398248 -3.82127722e-10,15.7463989 L-3.82127722e-10,0.253483637 C-3.82127705e-10,0.113488532 0.110666083,7.58379942e-08 0.247179616,7.58379942e-08 L12.7495246,7.58379942e-08 Z M2.5,9 C2.22385763,9 2,9.22385763 2,9.5 C2,9.77614237 2.22385763,10 2.5,10 L6.5,10 C6.77614237,10 7,9.77614237 7,9.5 C7,9.22385763 6.77614237,9 6.5,9 L2.5,9 Z M2.5,6 C2.22385763,6 2,6.22385763 2,6.5 C2,6.77614237 2.22385763,7 2.5,7 L6.5,7 C6.77614237,7 7,6.77614237 7,6.5 C7,6.22385763 6.77614237,6 6.5,6 L2.5,6 Z M2.5,3 C2.22385763,3 2,3.22385763 2,3.5 C2,3.77614237 2.22385763,4 2.5,4 L6.5,4 C6.77614237,4 7,3.77614237 7,3.5 C7,3.22385763 6.77614237,3 6.5,3 L2.5,3 Z M9.5,9 C9.22385763,9 9,9.22385763 9,9.5 C9,9.77614237 9.22385763,10 9.5,10 L10.5,10 C10.7761424,10 11,9.77614237 11,9.5 C11,9.22385763 10.7761424,9 10.5,9 L9.5,9 Z M9.5,6 C9.22385763,6 9,6.22385763 9,6.5 C9,6.77614237 9.22385763,7 9.5,7 L10.5,7 C10.7761424,7 11,6.77614237 11,6.5 C11,6.22385763 10.7761424,6 10.5,6 L9.5,6 Z M9.5,3 C9.22385763,3 9,3.22385763 9,3.5 C9,3.77614237 9.22385763,4 9.5,4 L10.5,4 C10.7761424,4 11,3.77614237 11,3.5 C11,3.22385763 10.7761424,3 10.5,3 L9.5,3 Z" id="Combined-Bill-Shape"></path>
            </g>
        </g>
    </g>
</svg>