<?xml version="1.0" encoding="UTF-8"?>
<svg width="25px" height="8px" viewBox="0 0 25 8" version="1.1" xmlns="http://www.w3.org/2000/svg" xmlns:xlink="http://www.w3.org/1999/xlink">
    <!-- Generator: Sketch 46 (44423) - http://www.bohemiancoding.com/sketch -->
    <title>Wave blue</title>
    <desc>Created with Sketch.</desc>
    <defs></defs>
    <g id="Guidelines" stroke="none" stroke-width="1" fill="none" fill-rule="evenodd">
        <g id="Logo-&amp;-Icons" transform="translate(-722.000000, -1379.000000)" fill="#24C6DD">
            <path d="M730.816614,1379.75062 C731.535009,1379.85597 732.207677,1380.04691 732.834639,1380.32346 L736.831505,1382.04198 C737.445405,1382.30535 737.948274,1382.50288 738.340125,1382.63457 C738.993211,1382.8321 739.58098,1382.93086 740.103448,1382.93086 C741.056954,1382.93086 741.948402,1382.55227 742.777821,1381.79506 C743.60724,1381.03786 744.257051,1380.10618 744.727273,1379 L747,1379 C746.268544,1380.86997 745.262807,1382.5753 743.982759,1384.11605 C742.70271,1385.6568 741.089613,1386.42716 739.143417,1386.42716 C738.55564,1386.42716 737.882971,1386.30864 737.125392,1386.0716 C736.681293,1385.92675 736.034748,1385.67654 735.185737,1385.32099 L731.502351,1383.78025 C731.045191,1383.58272 730.56518,1383.43128 730.062304,1383.32593 C729.559428,1383.22058 729.138194,1383.1679 728.798589,1383.1679 C727.701405,1383.1679 726.747914,1383.59588 725.938088,1384.45185 C725.467866,1384.95227 724.919282,1385.80164 724.29232,1387 L722,1387 C722.444098,1385.90699 722.878394,1384.97531 723.3029,1384.20494 C723.727405,1383.43456 724.370685,1382.56214 725.232759,1381.58765 C725.911968,1380.92921 726.604228,1380.44198 727.309561,1380.12593 C728.014894,1379.80987 728.792054,1379.65185 729.641066,1379.65185 C730.019856,1379.65185 730.411701,1379.68477 730.816614,1379.75062 Z" id="Wave-blue"></path>
        </g>
    </g>
</svg>