<?xml version="1.0" encoding="UTF-8"?>
<svg width="14px" height="14px" viewBox="0 0 14 14" version="1.1" xmlns="http://www.w3.org/2000/svg" xmlns:xlink="http://www.w3.org/1999/xlink">
    <!-- Generator: Sketch 46 (44423) - http://www.bohemiancoding.com/sketch -->
    <title>Cross</title>
    <desc>Created with Sketch.</desc>
    <defs></defs>
    <g id="Guidelines" stroke="none" stroke-width="1" fill="none" fill-rule="evenodd">
        <g transform="translate(-432.000000, -2664.000000)" id="Cross" fill-rule="nonzero" fill="#2B3D6B">
            <g transform="translate(433.000000, 2665.000000)">
                <path d="M0.707106781,12.6863275 L12.6863275,0.707106781 C13.0768518,0.316582489 13.0768518,-0.316582489 12.6863275,-0.707106781 C12.2958033,-1.09763107 11.6626383,-1.09763107 11.272114,-0.707106781 L-0.707106781,11.272114 C-1.09763107,11.6626383 -1.09763107,12.2958033 -0.707106781,12.6863275 C-0.316582489,13.0768518 0.316582489,13.0768518 0.707106781,12.6863275 Z" id="Cross2"></path>
                <path d="M-0.707106781,0.707106781 L11.272114,12.6863275 C11.6626383,13.0768518 12.2958033,13.0768518 12.6863275,12.6863275 C13.0768518,12.2958033 13.0768518,11.6626383 12.6863275,11.272114 L0.707106781,-0.707106781 C0.316582489,-1.09763107 -0.316582489,-1.09763107 -0.707106781,-0.707106781 C-1.09763107,-0.316582489 -1.09763107,0.316582489 -0.707106781,0.707106781 Z" id="Cross1"></path>
            </g>
        </g>
    </g>
</svg>