<?xml version="1.0" encoding="UTF-8"?>
<svg width="14px" height="14px" viewBox="0 0 14 14" version="1.1" xmlns="http://www.w3.org/2000/svg" xmlns:xlink="http://www.w3.org/1999/xlink">
    <!-- Generator: Sketch 46 (44423) - http://www.bohemiancoding.com/sketch -->
    <title>Cross Hover@1x</title>
    <desc>Created with Sketch.</desc>
    <defs></defs>
    <g id="Guidelines" stroke="none" stroke-width="1" fill="none" fill-rule="evenodd" fill-opacity="0.7">
        <g transform="translate(-432.000000, -2784.000000)" id="Cross-Hover" fill-rule="nonzero" fill="#FFFFFF">
            <g transform="translate(432.000000, 2784.000000)">
                <path d="M5.57539682,6.98961038 L0.292893219,12.272114 C-0.0976310729,12.6626383 -0.0976310729,13.2958033 0.292893219,13.6863275 C0.683417511,14.0768518 1.31658249,14.0768518 1.70710678,13.6863275 L6.98961038,8.40382394 L12.272114,13.6863275 C12.6626383,14.0768518 13.2958033,14.0768518 13.6863275,13.6863275 C14.0768518,13.2958033 14.0768518,12.6626383 13.6863275,12.272114 L8.40382394,6.98961038 L13.6863275,1.70710678 C14.0768518,1.31658249 14.0768518,0.683417511 13.6863275,0.292893219 C13.2958033,-0.0976310729 12.6626383,-0.0976310729 12.272114,0.292893219 L6.98961038,5.57539682 L1.70710678,0.292893219 C1.31658249,-0.0976310729 0.683417511,-0.0976310729 0.292893219,0.292893219 C-0.0976310729,0.683417511 -0.0976310729,1.31658249 0.292893219,1.70710678 L5.57539682,6.98961038 Z" id="Combined-Shape"></path>
            </g>
        </g>
    </g>
</svg>