<?xml version="1.0" encoding="UTF-8"?>
<svg width="11px" height="12px" viewBox="0 0 11 12" version="1.1" xmlns="http://www.w3.org/2000/svg" xmlns:xlink="http://www.w3.org/1999/xlink">
    <!-- Generator: Sketch 46 (44423) - http://www.bohemiancoding.com/sketch -->
    <title>Delete Hover</title>
    <desc>Created with Sketch.</desc>
    <defs></defs>
    <g id="Guidelines" stroke="none" stroke-width="1" fill="none" fill-rule="evenodd" fill-opacity="0.7">
        <g transform="translate(-1064.000000, -2785.000000)" id="Delete-All-Hover" fill-rule="nonzero" fill="#FFFFFF">
            <g transform="translate(1064.000000, 2783.000000)">
                <g id="Delete-Hover" transform="translate(0.000000, 2.000000)">
                    <path d="M10.2654937,3.38296875 L5.50210084,3.38296875 L5.50210084,3.38296875 C3.89732143,3.38296875 2.29254202,3.38242187 0.687762605,3.38132813 C0.530596113,3.38132813 0.46207458,3.40078125 0.494679622,3.57914062 C0.589947479,4.09734375 0.660761555,4.61953125 0.739472164,5.14007812 C0.849853817,5.86273438 0.959980742,6.58570313 1.06985294,7.30898438 C1.17607405,8.00296875 1.28688025,8.69671875 1.39233718,9.39070312 C1.51205882,10.1777344 1.62770483,10.965 1.74615284,11.7520312 C1.77162553,11.9219531 1.86587447,12.0002344 2.06736345,11.9997656 C4.35515056,11.9949219 6.64285277,11.9938281 8.93047006,11.9964844 C9.15462973,11.9964844 9.22646271,11.9404688 9.25804884,11.7370312 C9.33701418,11.228125 9.41445116,10.7190625 9.49035977,10.2098438 C9.64625263,9.16804688 9.79883403,8.12601563 9.95676471,7.08445312 C10.1323564,5.92742187 10.3093067,4.770625 10.4876155,3.6140625 C10.5227679,3.38296875 10.5174186,3.38296875 10.2654937,3.38296875 Z" id="Shape-del2"></path>
                    <path d="M10.9886633,2.73492188 C10.975927,2.51273438 10.9886633,2.28960938 10.9848424,2.06648438 C10.9810215,1.7803125 10.851875,1.54195313 10.5772794,1.41539063 C10.3896361,1.33273534 10.1851159,1.2875275 9.97714286,1.28273438 C9.37216649,1.26585938 8.76642595,1.27359375 8.16094013,1.27851563 C8.01778361,1.27851563 7.96123424,1.24710938 7.95970588,1.1015625 C7.95308298,0.4921875 7.40771271,0.003046875 6.74593225,0.001640625 C5.9109375,-0.000390625 5.07594275,-0.000390625 4.240948,0.001640625 C3.60234769,0.00328125 3.04933561,0.495234375 3.04092962,1.07976563 C3.03863708,1.2346875 2.98998424,1.28109375 2.82211922,1.27921875 C2.19752889,1.2721875 1.57395746,1.27453125 0.948348214,1.27921875 C0.362476366,1.28390625 0.0150288866,1.61367188 0.0157930672,2.15132813 C0.0157930672,2.32734375 0.0157930672,2.50289063 0.0157930672,2.67914063 C0.0157930672,2.915625 0.0157930672,2.91609375 0.278671218,2.91632813 L5.47662815,2.91632813 L5.47662815,2.91632813 C7.2342437,2.91632813 9.00994485,2.91492188 10.7749475,2.91890625 C10.9277836,2.91914063 10.9973241,2.8884375 10.9886633,2.73492188 Z" id="Shape-del"></path>
                </g>
            </g>
        </g>
    </g>
</svg>