<?xml version="1.0" encoding="UTF-8"?>
<svg width="6px" height="12px" viewBox="0 0 6 12" version="1.1" xmlns="http://www.w3.org/2000/svg" xmlns:xlink="http://www.w3.org/1999/xlink">
    <!-- Generator: Sketch 46 (44423) - http://www.bohemiancoding.com/sketch -->
    <title>Arrow EQ ico Copy 3@1x</title>
    <desc>Created with Sketch.</desc>
    <defs></defs>
    <g id="Guidelines" stroke="none" stroke-width="1" fill="none" fill-rule="evenodd">
        <g id="Logo-&amp;-Icons" transform="translate(-391.000000, -1122.000000)" fill="#8F8F8F">
            <g id="Arrow-EQ-ico" transform="translate(391.000000, 1122.000000)">
                <g>
                    <path d="M2.65867377,11.6771219 L0.17348207,7.6085077 L0.17348207,7.6085077 C0.05832645,7.41998148 0.11780507,7.17379871 0.306331287,7.05864309 C0.369118018,7.02029169 0.441265863,7 0.514838982,7 L5.48519991,7 L5.48519991,7 C5.7061138,7 5.88519991,7.1790861 5.88519991,7.4 C5.88519991,7.47357257 5.86490852,7.5457199 5.82655766,7.60850632 L3.34138843,11.6771205 L3.34138843,11.6771205 C3.22623357,11.8656472 2.98005104,11.9251268 2.79152436,11.8099719 C2.7373215,11.776864 2.69178188,11.7313246 2.65867377,11.6771219 Z" id="Arrow-EQ"></path>
                    <path d="M2.65867377,4.67712186 L0.17348207,0.608507695 L0.17348207,0.608507695 C0.05832645,0.419981479 0.11780507,0.173798709 0.306331287,0.0586430884 C0.369118018,0.020291685 0.441265863,5.13115619e-16 0.514838982,4.99600361e-16 L5.48519991,1.06343801e-15 L5.48519991,3.88578059e-16 C5.7061138,3.4799671e-16 5.88519991,0.1790861 5.88519991,0.4 C5.88519991,0.473572572 5.86490852,0.545719903 5.82655766,0.608506322 L3.34138843,4.67712049 L3.34138843,4.67712049 C3.22623357,4.86564717 2.98005104,4.92512678 2.79152436,4.80997192 C2.7373215,4.77686402 2.69178188,4.73132459 2.65867377,4.67712186 Z" id="Arrow-EQ-2" transform="translate(3.000000, 2.500000) rotate(-180.000000) translate(-3.000000, -2.500000) "></path>
                </g>
            </g>
        </g>
    </g>
</svg>