<?xml version="1.0" encoding="UTF-8"?>
<svg width="14px" height="20px" viewBox="0 0 14 20" version="1.1" xmlns="http://www.w3.org/2000/svg" xmlns:xlink="http://www.w3.org/1999/xlink">
    <!-- Generator: Sketch 46 (44423) - http://www.bohemiancoding.com/sketch -->
    <title>Download Icon@1x</title>
    <desc>Created with Sketch.</desc>
    <defs></defs>
    <g id="Guidelines" stroke="none" stroke-width="1" fill="none" fill-rule="evenodd">
        <g id="Logo-&amp;-Icons" transform="translate(-1031.000000, -1131.000000)" fill="#FFFFFF">
            <g id="Download-Icon" transform="translate(1031.000000, 1131.000000)">
                <path d="M2,16 L12,16 L12,16 C13.1045695,16 14,16.8954305 14,18 L14,18 L14,18 C14,19.1045695 13.1045695,20 12,20 L2,20 L2,20 C0.8954305,20 1.3527075e-16,19.1045695 0,18 L0,18 L0,18 C-1.3527075e-16,16.8954305 0.8954305,16 2,16 Z" id="Path-Download-icon3"></path>
                <path d="M5.40422372,0 L8.59577628,0 L8.59577628,5.55111512e-17 C8.81669018,1.49299262e-17 8.99577628,0.1790861 8.99577628,0.4 L8.99577628,8.24899309 L8.99577628,8.24899309 C8.99577628,8.46990699 9.17486238,8.64899309 9.39577628,8.64899309 L11.625015,8.64899309 L11.625015,8.64899309 C11.8459289,8.64899309 12.025015,8.82807919 12.025015,9.04899309 C12.025015,9.1560317 11.9821146,9.25860484 11.905909,9.33377112 L7.28089406,13.8957075 L7.28089406,13.8957075 C7.12514051,14.0493368 6.87485949,14.0493368 6.71910594,13.8957075 L2.09409098,9.33377112 L2.09409098,9.33377112 C1.93681242,9.17863761 1.93507351,8.92537759 2.09020701,8.76809902 C2.16537329,8.69189341 2.26794643,8.64899309 2.37498504,8.64899309 L4.60422372,8.64899309 L4.60422372,8.64899309 C4.82513762,8.64899309 5.00422372,8.46990699 5.00422372,8.24899309 L5.00422372,0.4 L5.00422372,0.4 C5.00422372,0.1790861 5.18330982,-1.25952229e-16 5.40422372,-1.66533454e-16 Z" id="Path-Download-icon2"></path>
            </g>
        </g>
    </g>
</svg>