<?xml version="1.0" encoding="UTF-8"?>
<svg width="21px" height="16px" viewBox="0 0 21 16" version="1.1" xmlns="http://www.w3.org/2000/svg" xmlns:xlink="http://www.w3.org/1999/xlink">
    <!-- Generator: Sketch 46.1 (44463) - http://www.bohemiancoding.com/sketch -->
    <title>Mail Ico</title>
    <desc>Created with Sketch.</desc>
    <defs></defs>
    <g id="Symbols" stroke="none" stroke-width="1" fill="none" fill-rule="evenodd">
        <g id="Email-Btn" transform="translate(-42.000000, -13.000000)" fill="#FFFFFF">
            <g id="Email-Text">
                <g transform="translate(42.000000, 12.000000)">
                    <path d="M1.98444976,1.66461538 L10.1483254,8.31076923 C10.1483254,8.31076923 10.173445,8.33538462 10.173445,8.33538462 C10.3744019,8.50769231 10.6507177,8.50769231 10.826555,8.33538462 C10.826555,8.33538462 10.8516746,8.31076923 10.8516746,8.31076923 L19.0155502,1.66461538 C19.0406699,1.64 19.0657895,1.64 19.0909091,1.61538462 C18.4629187,1.24615385 17.7344498,1 16.9557416,1 L4.01913876,1 C3.24043062,1 2.51196172,1.22153846 1.88397129,1.61538462 C1.90909091,1.61538462 1.95933014,1.64 1.98444976,1.66461538 Z M20.472488,2.99384615 C20.4222488,3.06769231 20.3720096,3.11692308 20.2966507,3.16615385 L12.1578947,9.81230769 C11.680622,10.2061538 11.1028708,10.4276923 10.5,10.4276923 C9.89712919,10.4276923 9.31937799,10.2307692 8.84210526,9.81230769 L0.703349282,3.16615385 C0.627990431,3.11692308 0.577751196,3.04307692 0.527511962,2.99384615 C0.200956938,3.56 -3.62376795e-13,4.22461538 -3.62376795e-13,4.93846154 L-3.62376795e-13,13.0615385 C-3.62376795e-13,15.2276923 1.80861244,17 4.01913876,17 L16.9808612,17 C19.1913876,17 21,15.2276923 21,13.0615385 L21,4.93846154 C21,4.22461538 20.7990431,3.56 20.472488,2.99384615 Z" id="Mail-Ico"></path>
                </g>
            </g>
        </g>
    </g>
</svg>