<?xml version="1.0" encoding="UTF-8"?>
<svg width="91px" height="93px" viewBox="0 0 91 93" version="1.1" xmlns="http://www.w3.org/2000/svg" xmlns:xlink="http://www.w3.org/1999/xlink">
    <!-- Generator: Sketch 46 (44423) - http://www.bohemiancoding.com/sketch -->
    <title>Load 2@1x</title>
    <desc>Created with Sketch.</desc>
    <defs>
        <circle id="path-1" cx="36" cy="36" r="36"></circle>
    </defs>
    <g id="Guidelines" stroke="none" stroke-width="1" fill="none" fill-rule="evenodd">
        <g id="Logo-&amp;-Icons" transform="translate(-551.000000, -3409.000000)">
            <g id="Load-2" transform="translate(550.000000, 3409.000000)">
                <g id="Anima-logo" transform="translate(12.000000, 18.000000)">
                    <mask id="mask-2" fill="white">
                        <use xlink:href="#path-1"></use>
                    </mask>
                    <use id="Circle-Blue" stroke="#66A9E8" stroke-width="6" xlink:href="#path-1"></use>
                    <path d="M10,51.5370253 C20.2067511,44.8155063 30.2890295,45.5623418 40.2468354,53.7775316 C50.2046414,61.9927215 59.7890295,62.9321203 69,56.5957278 L60.5,63.5957278 L52.1962025,66.8471519 L42.5,69.0957278 L28.5,66.8471519 L17.5,61.5 L11.5,54.5957278 L10,51.5370253 Z" id="Wave2" fill="#5084B5" mask="url(#mask-2)" transform="translate(39.500000, 58.047864) scale(-1, 1) translate(-39.500000, -58.047864) "></path>
                    <circle id="Circle-Blue" stroke="#66A9E8" stroke-width="6" mask="url(#mask-2)" cx="36" cy="36" r="36"></circle>
                    <path d="M3.79270651,53.722704 C14.4171709,46.7261055 24.9120687,47.5035053 35.2773998,56.0549035 C45.642731,64.6063017 55.6193622,65.5841455 65.2072935,58.988435 L56.3594293,66.2749114 L47.7157972,69.6594006 L37.6227756,72 L23.0498228,69.6594006 L11.9554048,63.051502 L5.35409431,56.9065846 L3.79270651,53.722704 Z" id="Wave1" fill="#66A9E8" mask="url(#mask-2)"></path>
                </g>
                <g id="-Circle-Score-Copy-3" fill-rule="nonzero" fill="#73AAD8">
                    <ellipse id="Oval" cx="7.99051274" cy="85" rx="2.99051274" ry="3"></ellipse>
                    <path d="M54.9873503,8 C52.7851975,8 51,6.209139 51,4 C51,1.790861 52.7851975,4.0693046e-16 54.9873503,0 C57.1895031,-4.05309223e-16 58.9747006,1.790861 58.9747006,4 C58.9695783,6.20700703 57.1873779,7.99486143 54.9873503,8 Z M54.9873503,1.45794393 C53.603287,1.45794393 52.481282,2.58350843 52.481282,3.97196262 C52.481282,5.3604168 53.603287,6.48598131 54.9873503,6.48598131 C56.3714136,6.48598131 57.4934186,5.3604168 57.4934186,3.97196262 C57.4781528,2.59294181 56.3620857,1.48165828 54.9873503,1.47663551 L54.9873503,1.45794393 Z" id="Shape"></path>
                    <g id="Group-4" transform="translate(86.000000, 14.000000)">
                        <path d="M0.926434178,5.69471154 C0.696351508,5.69146919 0.49034358,5.55095713 0.402731005,5.33750873 C0.31511843,5.12406032 0.362768696,4.87876941 0.523865156,4.71394231 L4.87304835,0.350961538 C5.00806452,0.170368865 5.23567232,0.0853626986 5.4555423,0.133413731 C5.67541229,0.181464762 5.84714715,0.353744448 5.89504622,0.574311957 C5.9429453,0.794879466 5.85820796,1.02320934 5.67818639,1.15865385 L1.3290032,5.52163462 C1.22327953,5.63100316 1.07829451,5.69333673 0.926434178,5.69471154 L0.926434178,5.69471154 Z" id="Shape"></path>
                        <path d="M5.2828061,5.69471154 C5.13198501,5.69524202 4.98714797,5.63556666 4.88023708,5.52884615 L0.531053888,1.16586538 C0.351032324,1.03042088 0.266294983,0.802091005 0.314194058,0.581523495 C0.362093132,0.360955986 0.533827996,0.188676301 0.753697979,0.140625269 C0.973567961,0.092574237 1.20117576,0.177580403 1.33619193,0.358173077 L5.68537513,4.72115385 C5.84647159,4.88598095 5.89412185,5.13127185 5.80650928,5.34472026 C5.7188967,5.55816867 5.51288877,5.69868073 5.2828061,5.70192308 L5.2828061,5.69471154 Z" id="Shape"></path>
                    </g>
                    <ellipse id="Oval" transform="translate(5.437471, 25.437471) rotate(-45.000000) translate(-5.437471, -25.437471) " cx="5.43747064" cy="25.4374706" rx="3.83878318" ry="3.85096154"></ellipse>
                </g>
       
            </g>
        </g>
    </g>
</svg>