<?xml version="1.0" encoding="UTF-8"?>
<svg width="91px" height="93px" viewBox="0 0 91 93" version="1.1" xmlns="http://www.w3.org/2000/svg" xmlns:xlink="http://www.w3.org/1999/xlink">
    <!-- Generator: Sketch 46 (44423) - http://www.bohemiancoding.com/sketch -->
    <title>Load 1</title>
    <desc>Created with Sketch.</desc>
    <defs>
        <linearGradient x1="50.3393351%" y1="91.8709212%" x2="49.7860477%" y2="9.12924201%" id="linearGradient-1">
            <stop stop-color="#223F6B" offset="0%"></stop>
            <stop stop-color="#24C6DD" offset="100%"></stop>
        </linearGradient>
        <linearGradient x1="32.4615538%" y1="100%" x2="32.4615529%" y2="0%" id="linearGradient-2">
            <stop stop-color="#223F6B" offset="0%"></stop>
            <stop stop-color="#24C6DD" offset="100%"></stop>
        </linearGradient>
    </defs>
    <g id="Guidelines" stroke="none" stroke-width="1" fill="none" fill-rule="evenodd">
        <g id="Logo-&amp;-Icons" transform="translate(-395.000000, -3409.000000)">
            <g id="Load-1" transform="translate(394.000000, 3409.000000)">
                <g id="Anima-logo" transform="translate(12.000000, 18.000000)">
                    <path d="M10,51.5370253 C20.2067511,44.8155063 30.2890295,45.5623418 40.2468354,53.7775316 C50.2046414,61.9927215 59.7890295,62.9321203 69,56.5957278 L60.5,63.5957278 L52.1962025,66.8471519 L42.5,69.0957278 L28.5,66.8471519 L17.5,61.5 L11.5,54.5957278 L10,51.5370253 Z" id="Wave2" fill="#20B3C7" transform="translate(39.500000, 58.047864) scale(-1, 1) translate(-39.500000, -58.047864) "></path>
                    <g id="Symbol" transform="translate(35.908510, 43.019423) rotate(-345.000000) translate(-35.908510, -43.019423) translate(14.408510, 27.019423)" fill-rule="nonzero">
                        <path d="M30.727027,13.3157387 L26.8151765,13.5703189 L26.8151765,15.7322619 C33.7235045,19.4117416 39.6401784,24.177165 40.8372047,25.0801292 C40.8978383,25.1238852 41.0034583,25.0801292 41.116902,25.0085285 L41.116902,13.0114358 C41.1178963,12.7448697 41.013604,12.4890576 40.827425,12.3013956 L38.9262657,10.3681771 C38.7417158,10.1788586 38.4901459,10.0728077 38.2280004,10.0738187 L34.4217698,10.0738187 L34.1870588,2.75861532 L36.0549674,2.75861532 C36.2444317,2.7830337 36.4307162,2.69395963 36.5330703,2.53000484 C36.6354245,2.36605005 36.6354245,2.15672662 36.5330703,1.99277183 C36.4307162,1.82881704 36.2444317,1.73974297 36.0549674,1.76416135 L34.1538081,1.76416135 L34.1049099,0.250602401 C34.1049142,0.112971528 33.9957635,0.00109230858 33.8604193,1.32509697e-10 L32.479536,1.32509697e-10 C32.3464251,-6.82229326e-05 32.2373152,0.107359357 32.2330894,0.24264677 L32.1900591,1.55333711 L33.1680217,1.7522279 L30.2888997,1.7522279 C30.0994354,1.72780953 29.913151,1.81688359 29.8107968,1.98083838 C29.7084427,2.14479318 29.7084427,2.3541166 29.8107968,2.51807139 C29.913151,2.68202618 30.0994354,2.77110025 30.2888997,2.74668187 L33.134771,2.74668187 L32.1568084,2.95750612 L31.9357888,9.85503887 L33.3049365,10.0539297 L26.2088396,10.0539297 C25.8055428,10.0447543 25.4380866,10.2883248 25.2835792,10.667244 C25.1290718,11.0461632 25.2192202,11.4826719 25.5105743,11.7663794 L26.7252039,13.0014912 L30.727027,13.3157387 Z" id="Shape-anima-logo" fill="url(#linearGradient-1)"></path>
                        <path d="M41.3000976,25.9063222 C41.3000976,25.9063222 40.7252589,26.6013062 40.5016016,26.4419975 C39.2263622,25.4781803 32.6127748,20.1572719 25.1379103,16.4075449 L20.9472777,9.69666859 C20.8166622,9.48586988 20.6129653,9.33240248 20.3763628,9.26653527 C7.14918795,5.53672184 1.09670584,7.35284029 0.84558178,7.4324946 C0.393725194,7.57149507 0.103532372,8.01750261 0.154990628,8.49388839 L0.621924418,13.1377351 C0.192266855,13.5539289 0.0627810138,14.0935869 0.304095536,14.7706486 C1.71078263,18.7354423 3.09196493,21.4994471 4.56535685,23.940852 C2.9958315,17.3136127 3.41567953,10.2781451 3.41567953,9.91173524 C3.41567953,9.41389576 3.36663187,8.71692048 5.47568155,19.8346719 C6.89610199,27.3201864 10.6688485,30.0622863 12.9564317,31.0639393 C14.4670999,31.496064 16.2916731,31.4841158 18.3281322,30.4028085 C20.1892949,29.418646 22.4081886,29.4260913 24.2628999,30.4227221 C25.9913397,31.3526862 28.3985992,31.8843788 31.2041258,30.3988258 C33.0590009,29.4079854 35.2767937,29.4132049 37.1271221,30.4127653 C38.4668211,31.1593404 40.0076921,31.4484014 41.521793,31.2371875 C42.1476413,30.1857505 42.5792607,28.6603703 42.5871084,26.4419975 C42.5890703,25.8445902 41.3000976,25.9063222 41.3000976,25.9063222 Z M23.7547661,18.9066991 C30.9157255,20.898057 39.0242858,27.535253 39.0242858,27.535253 C39.0242858,27.535253 30.7509253,22.8575532 23.7547661,18.9066991 Z" id="Shape-anima-logo" fill="url(#linearGradient-2)"></path>
                    </g>
                    <path d="M3.79270651,53.722704 C14.4171709,46.7261055 24.9120687,47.5035053 35.2773998,56.0549035 C45.642731,64.6063017 55.6193622,65.5841455 65.2072935,58.988435 L56.3594293,66.2749114 L47.7157972,69.6594006 L37.6227756,72 L23.0498228,69.6594006 L11.9554048,63.051502 L5.35409431,56.9065846 L3.79270651,53.722704 Z" id="Wave1" fill="#24C6DD"></path>
                    <circle id="Circle-logo" stroke="#24C6DD" stroke-width="6" cx="36" cy="36" r="36"></circle>
                </g>
                <g id="-Circle-Score-Copy-3" fill-rule="nonzero" fill="#73AAD8">
                    <ellipse id="Oval" cx="7.99051274" cy="85" rx="2.99051274" ry="3"></ellipse>
                    <path d="M54.9873503,8 C52.7851975,8 51,6.209139 51,4 C51,1.790861 52.7851975,4.0693046e-16 54.9873503,0 C57.1895031,-4.05309223e-16 58.9747006,1.790861 58.9747006,4 C58.9695783,6.20700703 57.1873779,7.99486143 54.9873503,8 Z M54.9873503,1.45794393 C53.603287,1.45794393 52.481282,2.58350843 52.481282,3.97196262 C52.481282,5.3604168 53.603287,6.48598131 54.9873503,6.48598131 C56.3714136,6.48598131 57.4934186,5.3604168 57.4934186,3.97196262 C57.4781528,2.59294181 56.3620857,1.48165828 54.9873503,1.47663551 L54.9873503,1.45794393 Z" id="Shape"></path>
                    <g id="Group-4" transform="translate(86.000000, 14.000000)">
                        <path d="M0.926434178,5.69471154 C0.696351508,5.69146919 0.49034358,5.55095713 0.402731005,5.33750873 C0.31511843,5.12406032 0.362768696,4.87876941 0.523865156,4.71394231 L4.87304835,0.350961538 C5.00806452,0.170368865 5.23567232,0.0853626986 5.4555423,0.133413731 C5.67541229,0.181464762 5.84714715,0.353744448 5.89504622,0.574311957 C5.9429453,0.794879466 5.85820796,1.02320934 5.67818639,1.15865385 L1.3290032,5.52163462 C1.22327953,5.63100316 1.07829451,5.69333673 0.926434178,5.69471154 L0.926434178,5.69471154 Z" id="Shape"></path>
                        <path d="M5.2828061,5.69471154 C5.13198501,5.69524202 4.98714797,5.63556666 4.88023708,5.52884615 L0.531053888,1.16586538 C0.351032324,1.03042088 0.266294983,0.802091005 0.314194058,0.581523495 C0.362093132,0.360955986 0.533827996,0.188676301 0.753697979,0.140625269 C0.973567961,0.092574237 1.20117576,0.177580403 1.33619193,0.358173077 L5.68537513,4.72115385 C5.84647159,4.88598095 5.89412185,5.13127185 5.80650928,5.34472026 C5.7188967,5.55816867 5.51288877,5.69868073 5.2828061,5.70192308 L5.2828061,5.69471154 Z" id="Shape"></path>
                    </g>
                    <ellipse id="Oval" transform="translate(5.437471, 25.437471) rotate(-45.000000) translate(-5.437471, -25.437471) " cx="5.43747064" cy="25.4374706" rx="3.83878318" ry="3.85096154"></ellipse>
                </g>
            </g>
        </g>
    </g>
</svg>