<?xml version="1.0" encoding="UTF-8"?>
<svg width="13px" height="16px" viewBox="0 0 13 16" version="1.1" xmlns="http://www.w3.org/2000/svg" xmlns:xlink="http://www.w3.org/1999/xlink">
    <!-- Generator: Sketch 46 (44423) - http://www.bohemiancoding.com/sketch -->
    <title>Password ico@1x</title>
    <desc>Created with Sketch.</desc>
    <defs></defs>
    <g id="Guidelines" stroke="none" stroke-width="1" fill="none" fill-rule="evenodd">
        <g id="Logo-&amp;-Icons" transform="translate(-650.000000, -1266.000000)" fill-rule="nonzero" fill="#3E3E3E">
            <g id="Password-ico" transform="translate(650.000000, 1266.000000)">
                <path d="M11.9166667,6.93333333 L11.1041667,6.93333333 L11.1041667,4.66666667 C11.1041667,2.0936 8.97785417,0 6.36458333,0 C3.7513125,0 1.625,2.0936 1.625,4.66666667 L1.625,6.93333333 L1.08333333,6.93333333 C0.4850625,6.93333333 0,7.41093333 0,8 L0,14.9333333 C0,15.5224 0.4850625,16 1.08333333,16 L11.9166667,16 C12.5149375,16 13,15.5224 13,14.9333333 L13,8 C13,7.41093333 12.5149375,6.93333333 11.9166667,6.93333333 Z M7.3125,12.5333333 C7.3125,12.9752 6.94877083,13.3333333 6.5,13.3333333 C6.05122917,13.3333333 5.6875,12.9752 5.6875,12.5333333 L5.6875,10.4 C5.6875,9.95813333 6.05122917,9.6 6.5,9.6 C6.94877083,9.6 7.3125,9.95813333 7.3125,10.4 L7.3125,12.5333333 Z M3.25,6.93333333 L3.25,4.66666667 C3.25,2.97573333 4.64722917,1.6 6.36458333,1.6 C8.0819375,1.6 9.47916667,2.97573333 9.47916667,4.66666667 L9.47916667,6.93333333 L3.25,6.93333333 Z" id="Shape-Password"></path>
            </g>
        </g>
    </g>
</svg>