<?xml version="1.0" encoding="UTF-8"?>
<svg width="12px" height="12px" viewBox="0 0 12 12" version="1.1" xmlns="http://www.w3.org/2000/svg" xmlns:xlink="http://www.w3.org/1999/xlink">
    <!-- Generator: Sketch 46 (44423) - http://www.bohemiancoding.com/sketch -->
    <title>Search Icon@2x</title>
    <desc>Created with Sketch.</desc>
    <defs></defs>
    <g id="Guidelines" stroke="none" stroke-width="1" fill="none" fill-rule="evenodd">
        <g transform="translate(-522.000000, -2666.000000)" id="Search-Icon" fill-rule="nonzero" fill="#FFFFFF">
            <path d="M526.977317,2666 C524.239793,2666 522,2668.23485 522,2670.97267 C522,2673.71049 524.239793,2675.95052 526.977317,2675.95052 C528.029812,2675.95052 529.004537,2675.61348 529.808166,2675.05347 L532.499028,2677.73944 C532.841218,2678.08685 533.401167,2678.08685 533.743357,2677.73944 C534.085548,2677.39721 534.085548,2676.84239 533.743357,2676.50016 L531.052495,2673.80901 C531.617628,2673.00011 531.949449,2672.02528 531.949449,2670.97267 C531.949449,2668.23485 529.709657,2666 526.977317,2666 Z M526.977317,2667.75262 C528.760855,2667.75262 530.191834,2669.18375 530.191834,2670.97267 C530.191834,2672.76159 528.760855,2674.19272 526.977317,2674.19272 C525.188594,2674.19272 523.757615,2672.76159 523.757615,2670.97267 C523.757615,2669.18375 525.188594,2667.75262 526.977317,2667.75262 Z"></path>
        </g>
    </g>
</svg>