<?xml version="1.0" encoding="UTF-8"?>
<svg width="12px" height="12px" viewBox="0 0 12 12" version="1.1" xmlns="http://www.w3.org/2000/svg" xmlns:xlink="http://www.w3.org/1999/xlink">
    <!-- Generator: Sketch 46 (44423) - http://www.bohemiancoding.com/sketch -->
    <title>Dropdown Data Sources down@1x</title>
    <desc>Created with Sketch.</desc>
    <defs></defs>
    <g id="Guidelines" stroke="none" stroke-width="1" fill="#C7C7C7" fill-rule="evenodd">
        <g id="Logo-&amp;-Icons" transform="translate(-686.000000, -1011.000000)" fill="#DD2233;">
            <g id="Data-Sources-Pressed" transform="translate(686.000000, 1007.000000)">
                <path d="M5.64226303,15.667033 L0.098189229,4.57888544 L0.098189229,4.57888544 C-0.000606470528,4.38129404 0.0794832682,4.14102482 0.277074667,4.04222912 C0.332616841,4.01445804 0.393862067,4 0.455960105,4 L11.5441077,4 L11.5441077,4 C11.7650216,4 11.9441077,4.1790861 11.9441077,4.4 C11.9441077,4.46209804 11.9296497,4.52334326 11.9018786,4.57888544 L6.35780478,15.667033 L6.35780478,15.667033 C6.25900908,15.8646244 6.01873987,15.9447142 5.82114847,15.8459185 C5.74373751,15.807213 5.68096851,15.744444 5.64226303,15.667033 Z" id="Dropdown-Data-Sources-down" transform="translate(5.999990, 9.944118) rotate(-360.000000) translate(-5.999990, -9.944118) "></path>
            </g>
        </g>
    </g>
</svg>