<?xml version="1.0" encoding="UTF-8"?>
<svg width="14px" height="16px" viewBox="0 0 14 16" version="1.1" xmlns="http://www.w3.org/2000/svg" xmlns:xlink="http://www.w3.org/1999/xlink">
    <!-- Generator: Sketch 46 (44423) - http://www.bohemiancoding.com/sketch -->
    <title>Upgrade Acc icon@2x</title>
    <desc>Created with Sketch.</desc>
    <defs></defs>
    <g id="Guidelines" stroke="none" stroke-width="1" fill="none" fill-rule="evenodd">
        <g id="Logo-&amp;-Icons" transform="translate(-791.000000, -1132.000000)" fill="#FFFFFF">
            <path d="M799.082189,1132.49372 L804.582709,1138.6125 C804.852519,1138.91458 805.001403,1139.3087 804.99999,1139.7171 C805.000279,1139.94993 804.952906,1140.18026 804.860896,1140.39339 C804.632755,1140.95344 804.096784,1141.31914 803.501572,1141.32087 L801.34246,1141.32087 L801.34246,1146.10318 C801.34246,1147.14981 800.618541,1148 799.730239,1148 L796.271866,1148 C795.383564,1148 794.659645,1147.14981 794.659645,1146.10318 L794.659645,1141.31765 L792.500532,1141.31765 C791.905579,1141.31505 791.370033,1140.94965 791.141208,1140.39017 C790.878844,1139.7929 790.988003,1139.09409 791.419396,1138.60928 L796.919916,1132.4905 C797.195121,1132.17832 797.587593,1132 797.999472,1132 C798.411351,1132 798.803823,1132.17832 799.079028,1132.4905 L799.082189,1132.49372 Z" id="Upgrade-Acc-icon"></path>
        </g>
    </g>
</svg>