<?xml version="1.0" encoding="UTF-8"?>
<svg width="12px" height="12px" viewBox="0 0 12 12" version="1.1" xmlns="http://www.w3.org/2000/svg" xmlns:xlink="http://www.w3.org/1999/xlink">
    <!-- Generator: Sketch 46 (44423) - http://www.bohemiancoding.com/sketch -->
    <title>Search Icon Hover@2x</title>
    <desc>Created with Sketch.</desc>
    <defs></defs>
    <g id="Guidelines" stroke="none" stroke-width="1" fill="none" fill-rule="evenodd" fill-opacity="0.7">
        <g transform="translate(-487.000000, -2786.000000)" id="Search-Icon-Hover" fill-rule="nonzero" fill="#FFFFFF">
            <path d="M491.977317,2786 C489.239793,2786 487,2788.23485 487,2790.97267 C487,2793.71049 489.239793,2795.95052 491.977317,2795.95052 C493.029812,2795.95052 494.004537,2795.61348 494.808166,2795.05347 L497.499028,2797.73944 C497.841218,2798.08685 498.401167,2798.08685 498.743357,2797.73944 C499.085548,2797.39721 499.085548,2796.84239 498.743357,2796.50016 L496.052495,2793.80901 C496.617628,2793.00011 496.949449,2792.02528 496.949449,2790.97267 C496.949449,2788.23485 494.709657,2786 491.977317,2786 Z M491.977317,2787.75262 C493.760855,2787.75262 495.191834,2789.18375 495.191834,2790.97267 C495.191834,2792.76159 493.760855,2794.19272 491.977317,2794.19272 C490.188594,2794.19272 488.757615,2792.76159 488.757615,2790.97267 C488.757615,2789.18375 490.188594,2787.75262 491.977317,2787.75262 Z"></path>
        </g>
    </g>
</svg>